<svg version="1.1" viewBox="0 0 1042.3 1015.6" xmlns="http://www.w3.org/2000/svg">
 <g id="africa" transform="matrix(1.5943 0 0 1.5943 -1686.2 -685.67)" fill="#f9db8e" stroke="#ffffff" stroke-width=".5">
  <path id="burkina-faso" class="scored land bf" d="m1228.9 669.24c0.53-1.39 1.01-2.99 0.7-4.47-0.36-1.61 0.62-0.65 1.23-1.86 0.38-0.75 1.23-3.03 0.34-3.72-0.6-0.46 0.59-1.5-1.2-1.98 0.84 0.05 1.36-0.6 2-1 1.03-0.62 2.5-0.1 3.58-0.76 1.3-0.8 2.88-3.89 1.73-5.25-0.55-0.65 0.25-1.08 0.96-1 1.1 0.13 1-0.86 0.85-1.72-0.11-0.56-1.22-1.4-0.26-1.73 0.75-0.26 1.77-2.36 2.24-3-0.06 1.26 2.92 2.77 3.96 2.87-0.25-1.2 0.53-1.04 1.5-1-0.12-1.1 0.42-2.6-0.14-3.6 0.8 0.15 1.65 0.2 2.38 0.64 1.09-1.64 0.96-5.23 3.79-5.53 1.4-0.14 3.13 2.08 3.4-0.4 0.15-1.33 1.62-1.16 2.53-1.63 1.17-0.61 2.08-1.5 3.3-2.09 1.48-0.7 4.17-4.33 6.23-2.47 0.39 0.35 1.35-0.47 1.98-0.27 0.86 0.26 1.73 0.56 2.54 0.95 1.24 0.6-1.05 3.77 0.86 4.81 1.18 0.64 0.26 2.64 1.14 3.54 0.5 0.5 1.51 1.54 1.35 2.2 0.94 0.38 3.4 2.04 4.99 3.27-0.72 0.35-1.36 0.33-2.01-0.15-0.98 2.5 2.3 5.38 4.28 6.32 1.59 0.75 2.48-1.14 3.61-0.81 0.93 0.27 1.1 1.74 1.47 2.48-2.53 0.87-0.42 2.32 0.51 4.06 1 1.86-1.4 4.55-3.22 4.67-0.45 0.02-2.2 0.53-2.52 0.27-0.9-0.71-1.1-0.35-1.84 0.32-1.47 1.32-2.3 3.06-4.19 3.33-2.9 0.41-3.41-0.5-5.13-0.83-0.82-0.15-1.6-0.42-2.45-0.43-0.76-0.01-2.72 1.94-3.28 1.7-1.36-0.6 1.63-0.65-8.57-0.62-3.39 0.01-5.4 0.24-8.12 0 0.33 1.55-1.17 2.36-0.75 3.3 0.58 1.29 0.86 2.3 1.09 3.65 0.2 1.14 0.3 2.57 0.17 3.85-0.12 1.13 0.76 2.48-0.02 3.09-1.26-0.94-2.45-3.2-3.3-4.54-0.73 1.07-3.63-0.21-4.76 0.22-1.22 0.47-3.8 0.84-3.82 2.59-0.77-0.13-3.5-1.27-3.97-1.86-0.45-0.55-0.91-0.84-1-1.28-0.16-0.86-0.96-2.5-1.58-2.84-1.04-0.57-2.2 0.27-2.58-1.3"/>
  <path id="libya" class="scored land ly" d="m1342.4 499.68c-0.97-0.83 1.1-1.8 1.63-2.05 1.6-0.75 2.47-1.18 3.44-2.75 0.78-1.27 1.56-1.89 1.26-3.52-0.26-1.4-0.93-2.82-0.79-4.3 0.2-2 2.64-1.49 3.03-2.93 0.42-1.56 1.7-2.36 3-2.98 0.99-0.47 4.23-1.36 4.25-2.73 0.02-0.7-0.66-1.12-0.59-1.85 0.13-1.35 0.18-2.7 0.32-4.04 1.29 0.9 3.03 1.36 4.41 2.21 1.46 0.9 3.12 1.2 4.81 1.02 1.72-0.19 2.98-1.28 4.75-0.64 1.57 0.57 3.23 0.63 4.76 1.28 1.37 0.58 2.47 1.63 3.84 2.17 1.2 0.47 2.82-0.02 3.9 0.72 1.26 0.87 1.5 2.37 1.74 3.77a7.1 7.1 0 0 0 2.41 4.43c2.53 2.18 5.65 1.67 8.68 2.22 3.05 0.55 7.4 1.94 9.83 3.91 1.96 1.59 3.76 4.26 6.55 4 3.23-0.29 6.68-3.13 7.4-6.37 0.33-1.5-0.68-2.65-1.14-4-0.5-1.49-0.87-3.2-0.37-4.73 0.94-2.82 5.58-6.32 8.53-6.42 1.52-0.05 2.4-1.15 3.82-1.26 1.44-0.1 2.97-0.14 4.38 0.2 1.64 0.41 3.07 1.2 4.63 1.81 1.84 0.73 1.35 0.98 1.44 2.6 0.08 1.3 2.19 1.58 3.13 1.65 1.83 0.14 3.02 0.97 4.7 1.46 1.69 0.48 3.45-0.08 5.15 0.23 0.97 0.18 2.43 2.1 2.08 3.12-0.36 1.06-1.66 1.34-1.84 2.54-0.26 1.66 0.8 2.89 1.1 4.43 0.32 1.74-0.8 3.28-1.39 4.79-0.62 1.6 1.02 3.5 1.3 5.16 0.46 2.83 0.96 5.5 1.14 8.4l1.78 75.28h-7.49c0.07 1.44 0.01 2.88 0.14 4.32l-59.65-33.76-13.53 6.48c-1.15 0.31-2.55-1.56-3.22-2.22-2.79-2.79-5.82-3.35-9.54-4.2-1.33-0.3-3.06-0.46-4.25-1.19-0.93-0.58-1.38-2.22-1.77-3.17-1.13-2.8-2.52-3.55-5.25-4.58-0.91-0.34-1.78-1.11-2.77-1.09-0.97 0.03-2.02 1.1-2.93 0.12-0.74-0.8-2.02-2.85-2.04-3.96-0.04-2.32-0.27-3.16-1.54-5.14-0.98-1.52-4.24-4.22-2.84-6.24 1.62-2.33 4.1-1.44 3.04-5.27-0.54-1.91-0.92-3.38-0.26-5.33 0.56-1.66 0.9-3.04 0.28-4.76-0.65-1.8-0.15-3.62 0.02-5.46a15.4 15.4 0 0 0-0.86-6.44 19.73 19.73 0 0 0-2.62-4.94"/>
  <path id="madagascar" class="scored " d="m1595.5 950.54c0.57 2.4-0.65 5.33 1.06 7.43 0.83 1.03 0.82 2.18 1.25 3.37 0.39 1.1 1.49 1.26 0.4 2.5-1.06 1.22-0.9 5.18-0.2 6.62 0.63 1.31 1.27 2.29 1.62 3.74 0.45 1.89 1.68 2.42 3.07 3.56-1.76-1.02-0.24 0.34 0.2 0.48 0.64 0.2 1.32 0.13 1.97 0.3 1.57 0.4 2.42 2.13 3.99 2.48 2.71 0.6 5.53-2.86 8.03-3.6 0.92-0.26 1.88 0.28 2.72-0.03 0.67-0.24 1.25-0.69 1.96-0.82 1-0.2 1.6-1.38 1.98-2.2 0.51-1.1 0.87-2.29 1.18-3.47 0.44-1.63 1.45-2.95 1.95-4.51 0.93-2.9 1.93-5.69 2.73-8.65 1.13-4.22 2.83-8 4.29-12.08 1.18-3.32 1.86-6.7 3.32-9.92 0.43-0.93 1.24-2.42 0.82-3.48 0.5 0 1.07-2.03 1.2-2.37 0.84-2.24 1.3-4.61 2.21-6.83 1.34-3.23 2.56-5.98 3.26-9.44 0.52-2.59-1.25-6.36 1.9-8.06 0.6-0.33 1.29-2.28 1.36-3.05 0.07-0.72-0.09-1.43 0.04-2.15 0.17-0.97-1.02-0.86-1-1.79 0-0.7-0.72-6.18 1.03-5.43 1.5 0.64 1 3.76 2.45 4.27 1.62 0.57 2.69-3.83 2.87-4.79 0.26-1.4-0.67-2.09-1.05-3.32-0.7-2.27-0.63-4.47-0.72-6.8a34.74 34.74 0 0 0-2.9-12.67 9.6 9.6 0 0 0-0.72 0.5c0.2-0.58-0.05-0.7-0.4-1.05-0.59-0.58 0.32-0.95-0.2-1.58-0.5-0.6-0.82-2.88-2.07-2.12a2 2 0 0 1-0.06-0.8c2.17 0.21-1-3.07-0.64-0.32 0.14 1.09-2.09 3.09-3.11 3.07 1.93 0.96 0.67 3.82 0.29 5.1-0.58 1.9-0.55 3.11-2.89 3.18 0.29 1.37-0.15 0.28-0.8 1.07-0.47 0.58-0.5 1.4-0.7 2.09-0.59-0.02-2.74-4.4-3.05-1.3-0.1 1.1 0.28 1.82 0.67 2.82 0.36 0.89-0.27 3.33-0.43 1.58-0.17 0.85-2.83 0.96-1.78 2.93 0.56 1.05 2.69 0.64 1.85 2.33 0.29-1.31-1.07-1.43-1.88-0.8-1.13 0.87-1.03 2.83-2.58 3.31-0.2-1.1 0.86-1.96 0.65-3.1-1.12 0.25-0.86 1.01-1.3 1.8-0.44 0.77-1.7 1.19-1.87 2.1-0.13 0.62 0.53 1.33 0.8 1.84 0.5 1-1.3 1.21-1.88 1.69 0.11-0.7 1.38-2.7-0.4-2.66-1.02 0.02-1.84 1.3-2.62 1.83-0.52 0.35-1.91 1.09-1.77 1.9 0.07 0.4-0.26 0.91-0.11 1.3 0.2 0.53 0.92 0.43 1.09 1.08-0.8-0.06-1.63 0.1-1.77-1.02-0.19-1.41-1.57-1.39-1.62 0.09-0.34-0.56-1.93-0.72-2.5-0.44-0.7 0.34-0.43 1.52-0.95 2.02 0-1.5-1.72-0.32-1.81 0.58-0.25-0.47-0.53-0.9-0.86-1.3-0.87 0.6-1.53 1.62-2.53 2-0.94 0.35-2.6-0.41-3.37 0.3-0.37 0.35-0.05 3.2-0.36 2.89 0.27 1.15-0.55 2.48-1.11 3.41-0.94 1.57-3.93 4.49-2.78 6.37 0.8 1.3 0.1 3.66 0.23 5.18 0.14 1.72 1.38 3.16 1.37 4.85 0 1.58-0.1 2.58 0.75 3.99 0.92 1.5 0.4 2.18-0.05 3.64-0.33 1.05 1 1.38 0.37 2.51-0.66 1.2-1.53 2.35-2.26 3.53-0.77 1.27-1.73 2.54-2.29 3.92-0.43 1.07-0.08 2.86-1.44 3.33-1.63 0.57-2.01 0.6-2.17 2.48-0.13 1.56-1.55 2.99-1.93 4.59"/>
  <path id="cote-divoire" class="scored land ci" d="m1205 703.22c0.42-0.92 1.54-1.13 1.93-2.12 0.25-0.66 0.45-1.71 0.5-2.41 0.08-1.28-0.43-3.6-1.35-4.54 0.59-0.62 1.4-0.3 2 0.07 0.14-0.75 1.35-1.58 0.87-2.41-0.39-0.67 0.25-2.1 1.16-1.62-0.7-1.02-1.9-1.66-2.2-2.92-0.59-2.37 3.85-0.5 4.57-0.18-0.52-1.57-0.33-3.33-2.37-3.67 0.37-1.05 0.37-2.17 1.73-2.37-1.13-1.34-1.34-1.05-0.94-3.03-2.45 1.57-2.34-3.84-2.02-5.04 0.3-1.15 1.12-1.45 2.14-1.75 0.56-0.16 0.6-1.2 1.03-1.56 0.63-0.54 1.38-0.19 2.09-0.5-0.16 1.4 2.68 2.8 3.82 2.3-0.77-1.27 0.53-1.34 1.46-1.32 1.23 0.01 0.8-2.04 0.84-2.86 0.48 0.27 0.99 1.2 1.66 1.01 0.64-0.17 0.76-1.38 1.44-1.65 0.55 1-0.24 4.35 1.2 4.71 1.3 0.32 0.25-2.5 4.2-2.39 0.37 0.01-0.84 1.14 2.3 1.34 1.5 0.09 1.8 3.02 2 3.26a9.4 9.4 0 0 0 4.9 2.94c0.02-1.75 2.6-2.12 3.83-2.6 1.12-0.42 4.02 0.86 4.75-0.2 1.2 1.42 1.69 2.98 3.3 4.53 0.19-0.23 0.36-0.47 0.52-0.72 0.47 1.43-0.64 2.8-0.43 3.51 0.34 1.2 1.05 1.78 1.21 3.17 0.14 1.15 0.85 3.1 0.42 4.18-0.47 1.22-1.09 1.87-1.68 2.98-0.8 1.47-2.15 2.33-2.1 3.96 0.06 2.13-1 3.68-1.43 5.26-0.46 1.66-0.24 4.35 0.79 5.7a5.56 5.56 0 0 1 1.09 4.57c2.56-0.7 1.06 3.18 1.48 4.4-0.52-0.01-1.02 0.06-1.51 0.21 0.14-0.27 0.31-0.54 0.5-0.79-1.2 1.8-2.2-0.47-2.45-1.37-0.65 0.72-0.9 1.72-2.01 1.8a3.09 3.09 0 0 1-2.16-0.79c-0.4 0.73-1.31 0.04-1.66-0.29 0.62-0.14 1.32 0.48 1.8-0.21-0.21-0.24-0.45-0.43-0.72-0.58 0.3 1.44-0.3 0.1-1.3 0.36 0.21 0.43-2.36 0.18-2.99 0.25-0.32 0.04-3.52 0.6-3.26 0.75 1.6 0.86 4.75-1.9 6.04-0.28-2 0.1-3.9 0.44-5.86 0.78-0.44 0.08-1.35 0.27-1.63-0.25-0.4-0.73-2.33-0.4-3.02 0.26 1.13-0.45 1.76-0.33 2.88 0.07-2.45 0.28-5.07 0.15-7.38 1.15-2 0.86-3.79 2.48-6.02 2.7-1.13 0.12-3.56 1.4-4.4 2.21-1.87 1.8-2.2-1.53-1.9-2.9 0.34-1.64 0.9-3.45 1.36-4.8 0.6-1.8 0.09-3.75-1.33-4.95-0.87-0.72-2.12-1.04-1.98-2.56 0.16-1.74-5.14-0.22-4.06-2.22-0.64 0.14-1.21-0.14-1.65-0.58"/>
  <path id="algeria" class="scored land dz" d="m1208.9 523.44 0.5-10.87c-0.46-2.93 4.02-3.9 5.63-5.36 0.8-0.73 2.11-2.22 3.34-2.14 1.07 0.06 1.32-1.55 2.73-1.82 2.3-0.45 3.47 1.77 4.85-1.26 0.43-0.95 1.85-0.55 2.68-0.66 1.47-0.2 2.96-0.4 4.36-0.91 2.8-1.04 2.92-4.05 5.3-5.31 0.99-0.52 2.28-0.58 3.32-0.96 1.28-0.48 2.12-1.91 3.44-2.18 0.48-0.1 3.08-0.3 2.01-1.67-0.68-0.89-1.77-1.21-0.36-2.5-2.02-0.55-0.2-2.67 1.28-2.54 1.96 0.16 3.76-0.54 4.46-2.37 1.33-3.51 10.39-0.4 12.98-1.07-2.97-1.33 2.16-2.97 0.55-4.2-0.76-0.6-1.61-1.11-2.23-1.86-0.72-0.87-0.34-2.11-1.05-3.18-0.73-1.1-0.32-2.02-0.11-3.12 0.2-1.04-0.6-1.05-0.5-2.06 0.11-0.94 0.1-2.07 0.11-3 0.02-1.26-0.82-2.27 0.43-3.24-1.3-0.53-0.77-1.25-0.96-2.22-0.25-1.28-2.48-1.7-2.97-3.03 2.4 0 3.42-0.58 5.45-1.62 0.89-0.46 1.45-0.46 1.98-1.4 0.47-0.82 0.83-1.51 1.7-1.98 0.5-0.27 1.47-1.04 1.99-0.63 0.68 0.54 1.54-0.4 1.99-0.8 1.17-1.08 2.79 1.62 3.99-0.85 1.6-3.3 7.15-4.73 10.4-5.1 2.31-0.27 4.65-0.91 6.98-0.75 1.73 0.11 2.93-2.1 4.44-1.25 0.66 0.37 0.5 0.16 0.76-0.25 0.05-0.09 2.66-0.05 3.05-0.2 2.25-0.9 4.52-0.56 6.89-0.63 1.97-0.05 2.44 0.36 3.94 1.49 1.92 1.45 2.59-0.7 4.25-0.9 0.54-0.06 3.86-0.2 3.68-1.19-0.33-1.77 2.08-0.68 2.66-0.3 1.2 0.81 3 1.22 4.24 0.23 0.67-0.54 0.23-1.24 1.52-0.92 0.91 0.23 1.63 0.9 2.63 0.85-0.85 1.39 1.24 0.9 1.9 0.73 1.32-0.34 2.74-0.02 4-0.45 0.1 1.8-2.17 2.68-3.16 3.82 2.7 0.58 0.1 4.38 0.65 6.12 0.95 3.02 0.55 5.3-0.08 8.28-0.53 2.45-3.26 4.36-5.08 5.97-1.06 0.94-0.55 3.39 0.07 4.43 1 1.68 0.55 3.51 2.62 4.3 2.83 1.07 2 4.65 4.27 6.35 1.06 0.8 2.3 1.37 3.2 2.36 1.2 1.34 1.38 3.54 1.67 5.25 0.58 3.52 2.25 7.43 2.25 10.98 0 0.95-2.02 0.59-0.72 2.32a14.6 14.6 0 0 1 2.71 5.72c1.43 7.1-0.67 7.06 0.4 10.71a6.44 6.44 0 0 1-0.13 4.7c-0.77 1.92-0.07 3.7 0.34 5.6 0.63 2.9-0.65 2.94-2.7 4.49-2.34 1.76 1.55 5.2 2.56 6.75 1.9 2.91 0.75 6.37 3.27 9.09 0.97 1.04 2.08-0.21 3.11-0.13 1.3 0.1 2.73 1.08 3.95 1.53 2.8 1.01 3.74 3.36 4.77 6.02 0.5 1.26 0.99 1.41-0.38 2.18-14.2 9.06-28.5 18.11-40.6 29.89-0.7 1.01-2.95 3.54-4.7 4.5-1.32 0.74-3.28 0.8-4.74 1.11-1.98 0.41-3.98 0.8-5.96 1.22-1 0.21-9.73 3.21-9.35 0.12 0.13-1.08 0.9-1.5 0.8-2.71-0.04-0.47 0.1-2.9-0.38-3.14-1.47-0.73-3.3-1.07-4.92-1.38-0.8-0.15-1.87-2.18-2.48-2.03-3.5 0.86-4.05-2.63-4.68-3.15-0.74-0.62-2.02-0.67-2.7-1.19-0.76-0.58-0.1-2.02-0.57-2.8a7.33 7.33 0 0 0-2.52-2.4 44.78 44.78 0 0 1-4.6-3.23c-3.67-2.85-7.27-5.78-10.93-8.65-14.08-11.08-28.15-22.12-42.9-32.32a896.1 896.1 0 0 0-10.6-7.23"/>
  <path id="cameroon" class="scored land cm" d="m1336.2 717.9c0.94-0.8 1.52-1.98 1.57-3.18 0.04-1.12 1.5-3.28 1.08-4.05-0.42-0.78-0.59-1.1 0.57-2.4 1.15-1.29 2.28-2.6 3.56-3.78 0.72-0.68 1.64-0.97 2.02-1.91 0.33-0.81 1.6-2.97 2.5-3.22 1-0.28 1.57 1.03 2.79 0.77 0.96-0.21 1.02-1.55 1.24-2.3 0.18 0.76 2.25 2.86 2.98 3.06s0.93 1.23 0.65 2.02c-0.21 0.57 0.82 1.42 1.95 1.15 0.33-0.58 2.2-2.3 1.74-3.34-0.32-0.72 1.19-1.68 1.71-2.1 0.87-0.7 0-1.75 0.47-2.69 0.92-1.83 2.22-3.5 2.84-5.8 0.27-0.97-0.08-2 0.2-2.92 0.21-0.71 1.34-0.96 1.28-2.14-0.33-0.1 2.52 0.28 3.1-2.51 0.12-0.63 1.22-3.75 0.15-3.96 1.23-0.63 3.04-1.43 3.24-2.83 0.14-0.91 0.09-1.67 0.09-2.59 0-0.95 0.95-0.87 1.38-1.52 0.53-0.8 0.47-1.92 0.8-2.92 0.33-1.05 0.64-2.05 0.77-2.68 0.26-1.23 0.96-3.53 2.24-4.05 0.67-0.27 4.68-0.24 5.2-2.51 0.14-0.64-0.52-1.14-0.43-1.88 0.17-1.3 0.25-2.03 0.47-3 0.26-1.15-1.84-2.14-2.52-1.93-0.55 0.2-1.27-0.97-1.53-2.45-0.22-2.34-0.09-3.22-0.42-3.9 0.87 0 2.22-0.07 2.9 0.68 1 1.12-0.04 2.24 2.18 2.85 1.14 0.32 1.27 2.98 1.35 3.9 0.07 0.92-0.11 0.15 0.84 1.06 1.9 1.81-0.15 7.18 0.12 9.56 0.36 3.3 1.93 7.08 4.92 8.74-1.2 1.03-2.73 0.54-3.72 0.05-1 0.1-1.23 0.26-2.29 0.3-2.23 0.08-4.5-1.36-5.62 0.47-1.37 2.23-1.2 2.62 0.62 4.7 1.82 2.1 3.83 3.91 5.84 5.82 0.6 0.57 1.4 1.46 1.8 2.21 0.8 1.46 1.45 4.46 2.31 5.88 0.88 1.45-0.88 2.47-1.32 3.06-0.7 0.93-1.66 3.1-2.3 4.62-0.2 0.5-0.7 1.28-0.9 1.8-0.39 0.94-0.97 1.69-1.4 2.6-0.61 1.29-3.74 2.54-1.94 3.26 1.32 0.53 1.2 1.87 1.02 3.62-0.08 0.79-0.12 1.5-0.56 2.17 0.05-0.07 0.96 1.17 0.97 1.26 0.22 1.48-0.13 3.73 0.85 4.91 0.6 0.73 1.41 1 1.69 2.14 0.2 0.85 0.56 1.98 1.35 2.53-2.47 0.07 3.08 6.61 3.55 7 1.2 0.95 2.88 1.52 3.1 2.38 0.16 0.66 0.29 1.01 0.32 1.65 0.07 1.6 0.44 3.26 0.8 4.81-1.88 0.88 0.2 4-1 4.9a9.57 9.57 0 0 0-3.71-2.47c-0.63-0.2-2.51-0.96-3.02-0.62-0.66 0.44-1.97 0.37-2.38-0.62-0.02-0.05-2.2-0.46-2.4-0.55-0.69-0.26-2.6-0.06-3.5-0.11-1.6-0.1-3.25-0.07-4.85-0.3-0.28-0.04-1.07 0.21-1.38 0.06-0.61-0.3 0.27-0.9-0.86-0.8-1.48 0.15-2.78 0.4-4.3 0.07-1.77-0.38-3.23-0.08-5.01-0.14-1.17-0.03-3.25-0.7-4.36-0.09-0.31 0.18-0.2 1.1-0.53 1.1h-3.3c-1.54 0-3.07 0.06-4.6 0.1-3.3 0.07-4-1.74-3.31-4.8 0.4-1.73 1-3.62 0.06-5.3-0.45-0.8-1.97-2.14-0.36-2.67-0.91 0.52-2.66-0.33-1.61-1.38 0.55-0.55 1.79-1.51 0.17-1.57 0.31-0.35 0.48-0.75 0.5-1.22-0.51 1.23-1.05 0.25-1.87 0.29 0.3 0.4 0.52 0.7 0 0.43 0.03 0.4-0.02 0.78-0.14 1.15-0.67-0.02-0.99-0.54-0.8-1.15-0.57 1.04-2.2-0.27-2.41-1.03-0.33-1.21-0.4-3.28-1.27-4.23-0.98 1.22-0.8-0.21-1.44-0.21 0.12 0.47 0.2 0.95 0.22 1.43-2.04 0.26-0.93-1.66-0.71-2.73"/>
  <path id="botswana" class="scored land bw" d="m1421.3 973.8 0.85-23.98h6.81l0.96-31.84c2.42-0.58 8.56-0.94 12.06-2.15 1.09-0.38 3.75-0.95 4.84-0.32 1.48 0.85 1.77 2.61 2.49 4 1.92-1.52 3.43-4.62 5.7-4.68 0.85-0.02 0.76 0.48 1.38 0.57 0.8 0.1 1.28-1 1.88-1.36 1.95-1.16 3.98-1 3.63-0.29-0.1 0.2 0 1.31 0.1 1.55a15.47 15.47 0 0 0 2.1 3.68c0.85 1.1 1.52 1.68 2.15 3.56 0.45 1.35 0.62 1.63 1 2.91a10.57 10.57 0 0 0 5.21 6.23c2.58 1.34 4.95 1.06 4.07 5.18 2.35-0.55 4.2-0.28 3.18 2.85a2.97 2.97 0 0 0 0.39 2.84c0.67 1.02 1.14 3.44 2.21 3.77 2.16 0.67 4.03 0.56 6.34 1.35 1.7 0.58 0.23 1.39 0.75 2.26 0.41 0.68 1.93 0.47 2.17 1.44-2.69 0.33-2.26 0.9-3.25 2.3-1.11 1.55-4.15 0.77-5.46 2.19-1.18 1.28-2.18 3.41-3.78 4.67-0.17 0.14-0.8 0.72-1.44 1.17-1.08 0.76-2.28 1.04-3.1 1.97-1.1 1.25-1.3 1.61-1.5 3.48-0.23 2.3-1.57 2.81-3.2 4.75-0.96 1.14-2.53 1.46-4.14 1.72-1.15 0.19-0.47 0.63-0.69 1.75-0.29 1.48-1 2.81-1.48 4.22-0.7 2.1-1.83 2.83-3.97 2.64-1.94-0.16-1.71 1.23-4.22 0.68-0.99-0.22-3.37-1.33-4.21-1.38-1.24-0.09-2.05-0.86-2.77-1.75-1.06-1.33-3.95-2.3-5.45-0.38-1.37 1.77-0.77 3.74-2.03 5.56-0.62 0.9-1.5 1.5-2.35 2.08-1.04 0.72-1.35 1.87-2.23 2.7-0.66 0.61-1.23 0.34-1.96 0.64-0.25 0.21-0.27 0.46-0.21 0.8-0.3 0.8-1.5 1.02-2.2 0.98-1.1-0.07-1.72-0.35-2.8-0.43-0.96-0.08-1.83-0.46-3.07 0.57-1.81-3.46 1.97-5.02 0.65-9.72a24.8 24.8 0 0 0-2.13-5.37c-0.8-1.4-2.36-2.1-3.28-3.41"/>
  <path id="kenya" class="scored land ke" d="m1530.8 768.6c1.52-1.1-2.29-5.71 2.98-4.63 0.01-0.29 0.3-0.88-0.02-1.43l3.13-0.4c-2.08-3.15-2.97-0.68-3.96 0.18-0.84 0.74-2.9-2.52-2.8-4.51 0.8-1.45 0.27-2.1 1.76-3.46 1.1-1 1.99-4.31 3.79-5.12 0.85-0.39 0.72-0.52 0.68-1.27-0.08-1.17 1.28-1.73 1.58-2.76 0.35-1.23 0.45-2.44 0.57-3.67 0.11-1.12-1-1.9-1.24-3.15-0.52-2.8-2.24-3.4-2.5-4.63-0.2-0.98-0.74-1.8-1.07-2.74-0.22-0.4-0.34-0.84-0.37-1.3 0-0.63 0.7-0.98 0.5-1.65-0.16-0.59-0.8-0.74-1.3-0.93-1.13-0.42-0.3-1.28-1.5-1.16 0.49-1.12-0.9-2.2-0.77-2.98s1.09-1.4 1.62-1.96c1.86-1.95 4.15-1.4 6.59-1.4 1.4 0 2.8-0.1 4.2-0.12 0.7-0.01 1.41-0.05 2.1 0.06 0.58 0.1 0.76 1.13 1.47 1.4 2.18 0.85 4.62-0.18 6.84 0.85a26.18 26.18 0 0 1 6.64 4.85c0.92 0.9 1.66 1.54 2.99 1.69 0.87 0.1 2.84-0.45 3.52-0.01 1.9 1.22 4.83 0.13 6.49 1.73 0.22-1.14 1.78-2.78 2.49-3.76 1.24-1.74 3.91-2.43 5.76-3.3 1.96-0.9 2.3 1.25 3.78 2.11 1 0.59 2.1 0.2 3.15 0.01 0.85-0.15 1.87 0.41 2.66-0.03-1.22 2.1-2.35 4.4-3.84 6.32-1.58 2.03-2.99 3.16-2.98 5.9 0 6.44 0.06 12.9 0.06 19.34 0 4.83-0.97 9.42 2.27 13.37 1.1 1.34 2.76 3.06 1.58 4.82-0.7 1.03-2.77 2.92-4.06 1.73l-0.3 0.79c-0.2-0.25-0.4-0.51-0.56-0.79 0.34 0.79 1.2 2.23 0.43 3.03-0.14-1.96-0.95 0.28-1.15 0.73-0.4 0.93-1.17 1.1-2.06 1.23-1.96 0.28-2.75 2.01-2.13 3.67 0.29 0.75-1.1 2.94-1.66 3.4-0.98 0.8-1.8 6.1-2.87 5.65 0.47 2.06-1.59 3.52-1.94 5.4-0.84-0.61-0.75 0.45-1.44 0.29-0.89-0.2-2.01-1.75-2.7-2.27-3-2.29-6.78-4.78-8.63-7.25-0.49-0.65-1.39-0.76-0.36-1.9 1.45-1.6-1.09-3.52-2.4-4.34l-25.07-15.68"/>
  <path id="sierra-leone" class="scored land sl" d="m1169.6 681.4c0.61-0.56 1.4-0.07 2.09-0.5 0.66-0.42 0.48-1.56 1.29-1.8 1.33-0.39 2.23-2.96 2.65-4.13 0.7-1.94 2.75-0.5 4.2-1.48 1.24-0.83 4.7-0.9 5.95 0.02 1.19 0.88 1.77 2.39 2.54 3.6 0.4 0.64 0.85 1.3 1.12 2 0.2 0.52-0.39 1.15-0.03 1.52 0.45 0.46 0.94 0.35 0.99 1.13 0.04 0.6-0.2 1.65 0.27 2.13 0.65 0.69-1.54 2.9-1.41 4.07 0.16-0.36 1.78-1.21 2.16-1.44 1.48-0.9 1.24 0.33 0.88 1.44-0.41 1.28-2.28 0.93-2.45 2.78-0.16 1.77-0.22 1.69-1.2 2.72-0.78 0.82-1.54 1.64-2.65 2.45-1.5 1.1-2.17 3.86-2.83 3.66-0.7-0.21-6.52-3.34-7.45-4.12 1.62 0.46 0.35-0.31-0.07-0.58 0.7-0.48 1.6-0.49 2.23-1.08-1.34 0.17-3.28 0.37-2.16-1.58-0.88 2.01-1.97-0.25-2.73-0.15-0.53 0.07-1-3.46-1.01-3.89-1.1 0.26-2.83-0.66-2.02-2.08 0.47 0.37 0.98 0.7 1.5 1-1.25-0.63 0.6-1.7 1.3-1.65-0.28-0.48-0.15-0.36-0.06-0.94-0.65 1.3-1.29 0.64-2.1 0.15-0.1 0.25-0.2 0.52-0.28 0.79-0.94-1.59-0.16-2.2 1.22-2.52-0.53-0.7-1.58-0.64-1.94-1.52"/>
  <path id="mali" class="scored land ml" d="m1178.6 631.8c1.35-0.33 1.95 0.4 3.05-1 0.93-1.2 0.51-3.75 0.96-5.24 1.03-3.38 5.73 2.23 6.22 3.29 0.9-2.47 2.39-3.82 5.22-2.67 1.86 0.76 5.8 0.62 6.22-1.94 1.06 2.56 6.28 1.42 8.33 1.26 5-0.38 10.13-0.11 15.15-0.11 1.76 0 3.94-0.2 5.68-0.03 1.29 0.13 0.91-2 1.04-3.1 0.14-1.24 1.35-3.63 0.05-4.45-2.24-1.43-1.64-2.69-1.63-4.5l-5.22-70.07h13.24c13.7 10.27 26.55 20.49 39.5 30.67 1.56 1.12 4.49 2.25 4.27 4.6-0.07 0.73-0.17 1.38 1.14 1.9 0.64 0.26 1.35 0.44 1.9 0.8 0.9 0.6 0.75 1.7 1.47 2.42 0.7 0.68 1.41 0.78 2.3 0.93 0.64 0.11 0.17-0.59 1.32-0.02 0.83 0.41 1.19 1.51 2.13 1.8 1.48 0.47 3.45 0.6 4.82 1.4 1 0.6 0.7 3.36 0.28 4.33-0.6 1.34-1.45 2.61 0.68 2.91 2.26 0.33 4.82-0.87 7.05-1.15-0.3 6.14 0.58 12.67-0.21 18.75-0.1 0.7 0.12 1.18-0.4 4.5-0.18 1.1 0.2-0.3-1.32 2.9-0.47 1-0.44 2.18-0.87 3.2-0.4 0.97-1.36 1.27-2.14 1.87-0.96 0.74-0.3 1.71-1.62 1.5-0.3-0.06-2.92-0.76-3.04-0.3-0.31 1.18-8.5 0.78-9.75 0.88-3.04 0.24-2.98-0.13-5.13 2.22-0.68 0.74-2 1-2.95 0.8-0.55-0.1-1.8-0.12-2.36-0.1-0.99-0.02-0.92-0.79-0.92 0.45-0.72-0.27-1.4-0.61-2.12-0.9-1.7-0.72-2.11 0.47-2.76 0-0.63-0.47-1.7-1.08-3.11 0.18-1.48 1.32-3.61 2.41-4.46 2.98-1.4 0.94-2.45 1.69-3.9 2.05-1.18 0.3-0.21 2.82-1.97 2.05-1.09-0.48-2.07-1.13-3.22-0.34-0.98 0.68-1.5 1.92-1.86 3-0.2 0.6-0.48 1.58-0.77 2.16-0.25-0.17-1.84-0.56-2.47-0.66 0.56 1 0.01 2.5 0.15 3.6-0.98-0.04-1.76-0.2-1.51 1-1.04-0.1-4.02-1.6-3.96-2.88-1.9 4.55-3.3 2.4-2.35 4.02 0.53 0.9 0.55 1.58 0.34 2.35-0.09 0.31-2.36-0.09-1.81 0.87 1.02 1.76 0.57 3.65-1.4 5.32-0.92 0.77-2.02 0.46-3.13 0.66-1.04 0.19-1.62 1.31-2.74 1.26 2 0.5 0.55 1.54 1.15 1.9 1.03 0.6 0.15 3.24-0.41 4.18-0.2 0.32-1.26 0.45-1.2 0.75 0.33 1.51 0.52 3.38-0.52 4.74-0.42 0.55-1.64 0.53-2.23 0.7-1.24 0.34-0.6 1.98-2.16 1.84-1.73-0.16-0.6-3.61-1.18-4.68-0.68 0.28-0.8 1.48-1.44 1.66-0.67 0.18-1.18-0.74-1.66-1.01-0.04 0.82 0.4 2.87-0.84 2.85-0.93-0.02-2.23 0.06-1.46 1.32-1.14 0.5-3.98-0.9-3.82-2.3-0.59 0.26-1.53-0.04-1.97 0.5-0.7 0.83-0.6 1.83-2 1.95 1.03-1.9-2.35-2.19-2.35-3.8-0.01-1.04 0.26-2.25 0.01-3.26-0.34-1.43-2.25 0.25-2.91 0.22 0.25-0.93 0.98-3.36 2.38-2.88 0.5-1.4-2.36-1.9-2.52-3.24-0.91 0.51-0.83-0.5-0.75-1.09 0.19-1.31-0.34-1.82-0.9-2.92-0.43-0.86 0.12-2.09-0.9-2.6-0.4-0.2-1.77-0.96-2.18-0.57-0.46 0.42 1 1.49 0.02 1.95-1.1 0.52-1.98 1.4-3.1 1.96-0.77 0.4-1.64-0.72-2.27-0.98-1.37-0.56-2.43-0.46-3.4 0.7-2.44 2.9-1.1-0.56-3.22-1.28-1.38-0.46-2.83 3.94-4.18 0.54-0.44-1.08 1.36-2.08 0.49-3.3-0.5-0.7-0.1-2.4 0.16-3.13 0.32-0.87-2.33-5.84-2.88-3.68-0.63-0.18-1.62-2.11-1.9-2.7-0.24-0.53 0.56-1.59 0.53-2.63-0.05-1.57 0.13-2.24-0.98-3.47-0.39-0.43-0.79-0.95-0.53-1.56 0.44-1.06 0.13-1.06-0.3-2.1"/>
  <path id="congo-dem-rep" class="scored land cd" d="m1363.8 809.5c0.7-0.52 1.54-0.08 1.81-1.01 0.22-0.76 0.84-3.72 0.31-4.33-1.39-1.59 4-3.99 5-4.9 0.28 1.15 1.96 1.32 2.03 2.53 0.53-0.56 1.25-0.9 1.84-1.37 0.82-0.66 0.48-1.85 1.19-2.6 1.2 1.6 3-1.44 4.41-0.74 1.35 0.68 0.1 0.98-0.1 1.83-0.24 0.95 0.37 2 0.37 2.95 0.6-0.77 1.92 0.2 2.73-0.36 1.19-0.83 1.93-2.4 2.84-3.52 0.47-0.57 2.38-1.5 2.49-2.02 0.26-1.38 1.41-1.71 2.56-2.2 2.65-1.14 3.13-6.14 3.07-8.53-0.05-1.82 0.11-3.46-0.12-5.28-0.22-1.74 1.98-2.19 2.71-3.57 1.74-3.24 1.6-5.3 5.13-7.69a13 13 0 0 0 3.36-3.57c0.98-1.39 0.28-3.4 0.67-4.99 0.35-1.4 1.04-7.37 1.1-8.93 0.06-1.78 1.09-3.33 1.38-5.05 0.28-1.68-0.2-3.44 0.17-5.1 0.7-3.11 2.57-5.66 3.63-8.62 0.62-1.72 0.32-3.53 0.28-5.29-0.03-0.8 0.35-1.65 0.22-2.44-0.11-0.7-0.53-1.3-0.73-1.98-0.3-1.07 1.58-1.04 2-2.03 0.6-1.35 1.23-2.55 2.26-3.64 0.98-1.06 2.22-1.96 3.72-1.95 1.28 0.01 1.79 1.12 2.6 1.3 1.9 0.42 3.65 2.46 4.36 4.2 0.58 1.42 2.62 0.36 3.77 0.71 0.63 0.19 0.94 1.03 1.65 1 0.64-0.03 0.77-0.15 1.43 0.2 1 0.5 1.19-0.01 2.16-0.07 0.65-0.05 1.37 0.3 1.96 0.52 1.08 0.4 2.55 1.17 3.72 0.76 2.1-0.74 1.45-5.75 4.25-5.88 1.59-0.08 2.01 3.14 4.09 1.18 0.87-0.84 6.93-1.64 6.57-3.63 1.25-0.05 1.67 1.67 2.88 1.55 1.45-0.15 3.93-0.37 4.53-1.9 0.22-0.59-0.36-1.16 0.4-1.54 0.94-0.47 1.7-0.19 2.43 0.53 1.17 1.14 2.25-0.2 3.54 0.4 0.63 0.3 1.16 0.79 1.79 1.1 0.73 0.38 1.24 0.06 2.02 0.18 1.83 0.28 2.54-1.76 4.47-0.66 0.73 0.41 3.28 2.02 3.28 2.97 0 0.46 0.6 1.61 1.05 1.8 1.9 0.77 3.7 3.56 5.73 1.65 1.15-1.08 2-1.3 3.52-0.55 1.56 0.76 2.18 0.45 3.1-1.36 1.22-2.4 4.33 3.6 4.49 4 0.7 1.75 5.45 1.98 4 4.72 0.92-0.22 2.03-0.27 2.26 0.9 0.12 0.31 0.28 0.6 0.48 0.87 0.13 0.6-0.69 1.72-0.6 2.35 0.29 2.01-0.05 4.02-0.34 5.93-0.15 1.01 0.6 0.88 1.73 0.68 0.52-0.09 2.51 1.3 2.15 2.4-0.87 2.63-4.13 5.23-6 7.18-0.63 0.65-1.88 2.36-2.63 3-0.75 0.63-0.82 0.09-1.25 0.91-0.54 1.04 0.12 2.3-0.54 3.36a11.78 11.78 0 0 0-1.6 4.32c-0.14 1.24-0.12 2.49-0.2 3.73-0.1 1.45-0.3 2.72-0.45 4.1-0.11 1.01 0.15 2.43-0.32 3.35-0.52 1.05-1.38 1.45-2.15 2.3-1.19 1.32-1.09 1.74-1.13 3.29-0.03 1.01-1.12 2.16-1.67 2.89-1.21 1.6 0.48 3.27 1.42 4.8 0.7 1.15 1.22 1.96 0.7 3.55-1.92 1.67 0.4 6.93-1.4 8.65 1.31 0.76 1.07-2.63 1.53-2.06 0.45 2.67-1.22 4.61-1.24 7.23-0.01 3.4 2.85 4.97 1.65 7.32-0.7 1.36-1.43 1.66-0.84 2.54 0.9 1.33 1.28 3.54 3.06 7.03 1.19 2.33 4.58 1.89 4.8 7.5 0.07 2.2 1.79 0.99 2.45 4.37-4.7 1.07-8.18 1.2-12.9 2.2 1.95 3.23-3.11 4.57-4.03 6.98 2.72 0.84 1.82 5.04 1.63 7.09-0.13 1.5 0.44 2.9 0.35 4.38a6.03 6.03 0 0 1-0.53 2.18c-0.44 0.97-0.76 1.7-1 2.72-0.5 2-1.17 3.15 0.1 5.1a27.55 27.55 0 0 0 3.69 4.15c0.52 0.5 3.3 2.2 3.52 1.16 0.39-1.83 0.87-1.49 2.67-2 0 2.89-0.1 5.8-0.17 8.7-0.01 0.44 0.32 2.35-0.43 2.42-0.88 0.1-1.07-0.92-0.47-1.4-1.3-1.6-4.2 3.37-5.58 0.38-0.45-1-0.88-2.25-1.55-3.15-0.38-0.51-1.4-1.17-1.52-1.78-0.23-1.18-0.47-2.55-1.96-2.6-1.25-0.03-1.78-1.34-2.98-1.48-1-0.12-1.61 0.64-2.3-0.47-0.54-0.85-0.56-2.1-1.34-2.8-1.12-1-1.91-4.47-2.88-1.35-1 3.21-2.76 1.52-5.27 1.61-1.69 0.06-2.09-0.48-3.52-1.12-0.1-0.05-1.6-0.4-1.63-0.4-2.28 0.4-2.96-3.06-2.16-4.64-1.4 0.08-2.8 0.38-4.1 0.87-1.61 0.61-1.95 1.4-3.75 0.65 0.7-1.24 0.74-2.87 0.14-2.84-0.78 0.04-1.1-0.63-1.65-1.14-1.26-1.2-1.08 0.21-1.38 0.32-1.11 0.38-1.6 0.33-2.6 0.07-1.21-0.32-1.96 0.53-3.03 0.9-1.37 0.49-2.24-0.43-3.13-0.28-0.32 0.06-1.6-0.08-1.63-0.06-0.86 0.46-1.3 1.76-2.48 1.73 0.26-0.89-0.27-1.59-0.43-2.42-0.21-1.15 0.58-1.35 0.83-2.24 0.59-2.04-0.21-5.59-1.45-7.24-1.52-2-2.17-3.26-1.98-5.86 0.2-2.68 1.14-5.5 0.44-8.17-0.27-1.02-1-1.9-0.98-2.99 0.02-1.22 0.7-2.37 0.79-3.59 0.15-2-1.15-1.78-2.77-1.79-1.54-0.01-3.08-0.04-4.62 0.02-3.16 0.14-2.68-0.55-1.79-3.23-0.7 0-1.4-0.18-2.1 0.1-0.46 0.17-0.11 0.38-0.38 0.6-0.83 0.72-4.68 0.1-5.8 0.1 0.38 0.94-0.32 2.04-0.15 3.05 0.13 0.82 0.16 2.12-1.15 1.84 0.43 1.25-0.33 2.48-0.07 3.74-0.52 0-3.97 0.12-4.52-0.2-1.65-0.96-4.55 0.82-5.11 0.87-1.31-0.21-2.54-0.15-3.98-0.14-1.82-0.38-2.6-4.17-3.52-5.5l-0.9-1.28c-0.61-0.86-0.33-1.48-0.46-2.4-0.23-1.64-1.94-2.72-1.7-4.46 0.23-1.56 0-2.87-0.73-3.78-1.03-1.28-1-1.75-2.6-1.67-4.39 0.2-8.73 0.38-13.11 0.13-3.54-0.2-7.68 0.38-11.15-0.28-2.78-0.54-5.08 3.6-6.72-0.58"/>
  <path id="somalia" class="scored land so" d="m1583.7 739.51c0-1.4-0.37-3.35 0.24-4.67 0.58-1.25 1.76-2.22 2.55-3.35 1.59-2.26 2.97-6.3 5.37-7.76 2.2-1.32 4.77-0.46 6.7-2.53 2.18-2.34 4.25-3.88 7.55-4.35 2.47-0.36 6.82 1.4 8.53-0.87l21.69-25.65c-2.63 0-5.35 0.45-7.92-0.21-2.93-0.75-5.72-2.16-8.54-3.21-2.91-1.09-5.8-2.21-8.71-3.31-2.7-1.02-5.05-1.73-7.12-3.8-0.69-0.7-0.91-1.06-1.87-1.3-0.97-0.27-1.35-1.78-1.8-2.58-0.78-1.35-1.3-2.45-2.38-3.65-1.3-1.42-2.84-3.25-2.25-5.38 0.65-2.33 2.7-4.37 3.6-6.67 2.4 1.34 3.73 4.54 5.37 6.62 2.05 2.58 5.18 3.3 8.35 2.26 1.22-0.4 2.8-1.49 3.83-2.25 1.83-1.36 2.35-1.13 4.6-0.76 2.34 0.38 3.39 0.87 5.56-0.49 1.1-0.68 3.63-3.24 5.04-2.74 1.56 0.56 2.64 0.63 4.31 0.05 1.02-0.35 1.97-0.86 3.02-1.1 1.2-0.26 2 0.26 3.16 0.38 1.87 0.18 3.31-0.93 4.94-1.59 1.69-0.69 3.61-0.38 5.32-1.25 1.42-0.72 1.57-2.58 2.77-3.17 1.18-0.58 4.96 0.42 4.5 2.11-0.61 2.2-1.02 3.53-0.61 5.85 0.28 1.61 0.7 3.93-0.72 5.17 0.94 0.36 1.72 0.14 1.51-0.86 0.47 0.31 0.98 0.53 1.52 0.65-0.3 1.55-3.82-0.58-3.84 2.15 0 2.22 0.18 4.5-0.44 6.68-0.53 1.86-1.65 3.28-2.7 4.85-1.23 1.82-1.08 4.52-2.59 6.28-0.58 0.68-1.38 0.85-1.79 1.75-0.4 0.9-0.05 1.91-0.39 2.86-0.76 2.16-2.3 3.87-3.38 5.86-1.44 2.65-1.55 5.56-2.67 8.3-1.14 2.79-2.91 5.24-4.54 7.75-1.58 2.43-2.63 5.25-4.45 7.52a618.33 618.33 0 0 1-6.08 7.52c-4.12 5-8.31 9.07-13.77 12.59-2.3 1.47-4.57 3-6.48 4.96-2.16 2.2-4.62 4.37-6.56 6.75-1.93 2.35-3.96 4.65-5.86 7-0.93 1.16-1.74 2.4-2.64 3.57-0.56 0.72-2.23 3.33-2.52 1.81 0 2.48-1.62 4.86-3.11 6.73 0.12-1.95-1.75-3.55-3.08-5.47-1.53-2.19-1.28-3.7-1.3-6.23-0.07-7.67 0.08-15.16 0.08-22.82"/>
  <path id="guinea-bissau" class="scored land gw" d="m1144.1 652.97c0.7-0.49 1.6-0.12 2.35-0.46 0.8-0.36 1.55-0.82 2.47-0.84 1.92-0.05 3.67 0.46 5.29-0.94 1.41-1.22 3.2-0.86 4.91-0.86h7.8c-0.22 1.01 0.9 2.18 0 3.07-0.5 0.48-1.83 0.37-2.03 1.1-0.27 1.05 3.45 1.86 1.6 3.94-0.95 1.07-2.35 0.5-3.55 0.7-1.12 0.2-2.46 1.08-3.62 1.43-1.99 0.6-1.03 4.08-3.06 4.8-0.5-1.87-0.76-2.11-2.44-2.94 0.15-0.28 0.31-0.54 0.5-0.8-1.45 1.09-0.07-3.35 2-1.73-0.5-1.4-1.77-0.47-2.5 0.15-0.71-1.26-0.84-2.11 0.72-2.66 1.32-0.47 1.79 0.94 3.02 0.86-0.66-0.27-1.05-1.1-0.43-1.66-0.49-0.16-0.94-0.1-1.37 0.19-0.7 0.38-1.3-0.1-2.02 0.03-0.71 0.12-1.17 0.66-1.7 1.08-0.68 0.55-1.6 0.46-2.4 0.65 0.05-1.3 1.14-1.73 2.02-2.45-1.25-0.12-2.23 1.17-3.46 0.9-2.4-0.52-0.86-2.65 0.29-3.42-0.46 0.05-0.92 0.12-1.37 0.21-0.24 0.3-0.5 0.56-0.8 0.8-0.88 0.03-1.38-1.02-2.23-1.15"/>
  <path id="ghana" class="scored land gh" d="m1246.5 705.45c-0.46-2.45-0.63-4.41 0.45-6.73 0.92-1.99 0.36-2.68 1.1-4.68 0.55-1.48 2.53-3.53 3.12-4.81 0.8-1.74 0.17-4.33-0.36-6.12-0.21-0.72-0.52-1.17-0.8-1.84-0.32-0.72 0.14-1.47 0.2-2.2 0.12-1.69-0.7-2.87-0.35-4.5 0.37-1.72-0.35-3.58-0.67-5.27-0.15-0.8-1-1.7-0.5-2.55 0.39-0.66 0.93-1.6 0.69-2.4 4.2 0.37 8.05-0.28 12.52 0.02 0.9 0.06 3.56-0.17 3.77 0.35 0.4 0.96 1.97-0.58 2.79-1.17 0.83-0.6 3.22-0.1 2.7 0.97-0.8 1.63-0.99 3.25 1.36 5.02 1.94 1.46 0.84 0.86 1.17 2.37 0.16 0.73 0.26 0.67 0.19 1.51-0.07 0.85-0.1 2.23-0.31 3.3-1.07-0.16-0.62 0.6-1.08 1.23 0.64 0.11 1.1-0.62 1.7-0.45 0.88 0.24 0.87 1.5 0.67 2.15-0.4 1.24 0.45 4.44-1.22 4.13 0.42 1.07 1.55 1.73 2.2 2.64 0.77 1.1 0.1 1.42-0.35 2.44-0.55 1.23 0.5 2.85-0.2 4.01-0.82 1.39-0.9 2.08 0.24 3.26 0.54 0.56-0.07 1.96-0.32 2.6-0.61 1.55-0.77 2.25 0.12 3.8 0.56 0.97 1.74 1.83 2.63 2.52 0.25 0.19 1.77 1.09 1.8 1.2 0.21 0.82-1.14 1.22-1.35 1.91-0.29 0.94-0.94 1.74-2.07 1.62-0.63-0.08-0.83-1.49-1.17-1.9-0.74-0.92-2-0.57-2.97-0.99 0.78 0.64 2.07 0.25 2.92 0.87 1.66 1.22-0.89 2-1.71 2.14-3.14 0.55-5.13 2.33-7.73 3.88-1.5 0.9-3.16 0.87-4.75 1.52-0.96 0.4-2.06 0.61-2.88 1.28-0.7 0.55-1.26 1.28-2.05 1.7-0.82 0.42-1.47 0.28-2.07-0.36-0.83-0.86-1.73-0.97-2.83-1.3-1.14-0.34-2.06-0.07-2.77-1.24 0.94-0.03 0.47-0.16 1.4-0.13-0.41-1.22 1-5.07-1.56-4.36 0.86-1.54-0.76-4.17-1.67-5.44"/>
  <path id="uganda" class="scored land ug" d="m1496.5 769.6c0.49-1.35 0.33-3.17 0.53-4.6 0.25-1.81 0.42-3.6 0.66-5.42 0.28-2.22 1.57-3.48 1.78-4.64 0.13-0.7-0.14-1.41 0-2.12 0.21-1.12 1.27-0.83 1.78-1.64 1.55-2.46 4.03-4.21 6.14-6.38 0.81-0.85 1.9-2.31 2.25-3.45 0.28-0.94-1.46-1.92-2.13-2.28-0.54-0.29-1.36 0.6-1.76-0.3-0.31-0.7-0.06-1.66 0.09-2.37 0.44-2.19-0.37-3.95 0.73-5.95 0.32-0.59-0.47-0.74-0.27-1.36 0.2-0.65 0.8-1.2 1.31-1.61 0.5-0.41 1.09-0.79 1.77-0.67 0.56 0.1 1.6 1.26 2.15 1.01 0.7-0.31 1.74-1.61 2.49-0.62 0.8 1.06 1.02 1.44 2.42 1.94-0.78-1.3 1.4-1.8 2.41-1.95 1.27-0.18 2.71-1.2 3.95-1.05 1.7 0.2 2.22 1.7 4.07 0.41 1.32-0.92 2.25-2.3 3.26-3.53 0.58 0.8 1.21 1.93 0.86 2.95 1.19-0.12 0.4 0.75 1.52 1.09 1.16 0.35 1.6 0.57 1.12 2.06-0.63 1.94 1.3 4.02 2.32 6.32 0.2 0.45 1.36 1.97 1.34 2.36-0.05 0.83 0.93 2.06 1.13 2.87 0.35 1.43 0 3.38-0.62 4.81-0.53 1.22-1.55 1.4-1.29 2.82 0.14 0.74-1.06 1.2-1.6 1.48-1.07 0.54-1.11 1.97-1.75 3.04-0.48 0.8-1.27 1.22-1.6 2.04-0.45 1.12-0.87 1.93-1.38 3.01-0.5-0.03-2.33 0.58-2.03-1.02-1.17 0.44-0.8 0.77-1.28 0.85-1.42 0.22-1.44-0.64-0.37-0.57-0.28-0.57-1.23-1.28-0.9-1.7-0.8 0.3-0.28 0.09-1.36 0.5l0.34 0.57c-0.95 0.25-0.22 1.18-1.41 1.12 0.15 1.86-2.65 0.9-2.97 0.96-0.06 0.04 0.15-1.67-0.06-1.38-1.35 3.15-1.85 1.48-2.1 1.64 0.05 0.67-0.46 0.72-1.62 0.83-0.55 0.78-1.85 0.76-1.74 1.03 1.02 2.62-1.13 3.05-1.46 4.88-0.3 1.59 0.29 1.67 0.47 2.72-7.2 0 1.56 0.31-5.61-0.22-2.48-0.19-5.39 0.32-6.84 2.11-0.5 0.63-1.2 2.37-2.08 1.8-0.24-0.16-0.37-1-0.78-0.97-0.7 0.06-1.81 0.83-2.14 1.07 0.16-0.65 1.08-1.78 0.26-2.48"/>
  <path id="mozambique" class="scored land mz" d="m1499.9 889.34c5.53-2.08 11.09-4.12 16.66-6.1 1.25-0.45 2.42-1.04 3.65-1.52 0.42-0.16 1.48-0.85 1.94-0.7l4.17 4.65c0.04-0.93 2.04-0.6 2.98-0.87 0.81-0.23 2.03-0.99 2.7-0.13 1.23 1.6 1.23 5.46 0.6 7.22-0.82 2.24-2.7 4.26-1.5 6.56 0.28 0.55 0.12 1.2 0.45 1.72 0.37 0.59 1.03 0.9 1.4 1.5a14.9 14.9 0 0 0 2.9 3.1c0.98 0.84 0.93 1 0.25 2.1-0.72 1.18 1.62 1.63 1.77 0.04a6.02 6.02 0 0 0-1.18-4.17c1.4-1.02 0.67-3.15 2.74-3.58 2.8-0.58 3.04-1.8 3.05-4.62 0-1.03-0.17-2.08-0.11-3.1 0.1-1.67 0.97-3.52 0.26-5.15-0.72-1.64-2.22-3.19-3.18-4.72-0.9-1.42-1.78-2.95-2.91-4.2-0.84-0.92-0.52-0.08-1.27-0.92-0.22-0.72 0.16-2.13-0.3-3.52-0.6-1.83 0.47-2.93 0.23-3.74-1.38-4.68-0.54-3.53-0.61-4.12 0.54-1.23 2.35-1 1.9-5.36 1.5 0.14 2.87 0.47 4.63-0.04 0.99-0.29 1.92-1.5 3-0.8 0.76 0.48 1.12 1.41 1.92 1.83 0.61 0.33 2.64 0.44 3.31 0.27 1.12-0.29 1.93-2.17 3.2-0.8 2.34 2.55 5.15-0.47 6.29-2.34 0.62-1.03 1.74-1.06 2.72-0.44 1.59 1.01 1.97 1 3.48-0.06 1.26-0.88 2.25-1.5 3.9-1.18 0.95 0.19 2.77-1.63 3.66-2.03a24 24 0 0 0 4.7-3.07c1.83-1.41 3.02 0.96 1.43 1.72 0.25 0.11 0.48 0.23 0.72 0.36-0.73 0.94-0.31 2-0.72 3.02-0.21 0.55-1.6 1.27-0.79 1.85 0.68 0.48 0.53 3.06 0.62 4.06 0.07 0.75 0.13 1.5 0.07 2.26-0.1 1.14-0.46 0.85-0.14 1.86 0.07 0.38 0.05 0.75-0.08 1.1-0.15 0.7 0.3 0.92 0.47 1.52 0.27 0.88-0.07 2.14-0.66 2.83 2 0.28-0.6 4.68 0.18 4.93 1.37 0.44 0.04 5.02 0.47 6.09 1.51-0.9-0.22 2.02 0.22 2.73 0.12-1.27 1.4-1.06 1.19 0.2-0.24 1.37 0.09 2.34-1.34 3.12 0.26 0.2 0.53 0.4 0.8 0.57-1.64-0.4-0.22 0.2-0.7 0.77-0.3 0.36-0.76 0.5-0.96 0.96 1.6-0.57 0.22 1.96-0.02 2.46-0.8 1.68-2.49 2.61-3.3 4.29-0.82 1.66-2.15 2.63-3.05 4.2-0.7 1.21-5.39 2.84-5.22 4.15 0.08 0.61-3.54 1.23-4.25 1.67-0.62 0.38-1.33 0.69-2.03 0.9-1.13 0.33-0.94-0.1-1.76 0.65-1.18 1.1-2.84 1.62-4.25 2.35-1.4 0.73-3.63 4.14-5.2 2.8 2.93 3.22-4.2 4.46-3.54 7.7-0.6 0.1-1.01-0.3-1.15-0.86 0.15 1.14-0.94 2.6-0.79 1-1.37 1.2-3.03 2.01-4.14 3.48-0.99 1.3-1.89 2.53-3.07 3.67-0.49 0.46-2.4 2.47-3.08 1.64-0.45-0.54-1.01-2.38-2.02-1.8 1.73-0.1 1.13 2.07 1.47 2.6 0.32 0.5 0.3 1.3 0.06 1.83-0.1 0.27-0.3 0.43-0.6 0.47 0.23 0.41 0.3 0.85 0.23 1.32-0.2 2.27 0.55 1.64 1.72 3.14 0.66 0.84 0.85 1.83 0.84 2.87-0.01 0.4-0.33 3.54 0.24 1.6-0.43 1.7 0.7 3.52 0.86 5.25 0.1 1.04 0.48 2.12 0.3 3.16-0.14 0.88-0.52 1.86 0.42 2.46 0.17-1.1 0.13-2.1 0.87-3.03-0.01 0.34 0 2.77 0.36 0.73-0.2 1.17-0.5 2.33-0.6 3.52-0.09 1.06 0.67 2 0.53 3.04-0.37 2.83-2.4 5.56-1.95 8.56-0.26-1.64 0.95 0.05 1.01-1.37 1.09 1.83-1.01 4.56-2.14 5.84-1.86 2.13-4.68 3.1-7.27 4.02-2.94 1.04-5.9 2.12-8.52 3.82-1.18 0.77-2.42 1.45-3.07 2.76-0.57 1.13-0.85 2.45-2.33 2.64 0.99-0.01 2.56 3.49 3.38 1.37-0.17 1.8 0.77 6.44-1.09 6.32l-4.47-0.18c0.06-1.47-0.85-3.13-0.62-4.27 0.2-0.96-0.26-1.89-0.91-2.75-0.48-0.63-0.37-2.15 0.13-3.36 0.28-0.68 0.24-3.14 0.27-3.84 0.08-1.73 0.06-3.45 0.2-5.17 0.11-1.55-0.25-2.59-0.5-4.07-0.37-2.22-1.88-4.03-2.35-6.2-0.22-1.04-0.05-2.14-0.23-3.21-0.26-1.5-0.56-2.94-0.97-4.4-0.26-0.94-0.68-0.66-0.15-1.35 0.53-0.42 2.01-2.35 2.64-3 0.93-0.94 5.26-7.04 6.4-6.2-1.15-1.5 0-2.35 0.36-3.83 0.22-0.9-0.66-2.18 0.34-2.77 1.4-0.83 1.75-1.96 2.52-3.39 0.33-0.61 0.5-1.13 0.74-1.79 0.38-1.04 0.1-1.84 0.14-2.85l-0.72 0.3c-0.52-1.06-0.9-2-0.69-2.58 0.25-0.7 1.14-1.29 0.8-2.23-0.28-0.81-1.45-0.52-1.12-1.83 0.25-0.97 1.95-1.13 1.81-2.31-0.24-2.04 1.03-1.27 0.9-2.6-0.1-1.1-0.72-2.16-0.5-3.27 0.14-0.78 0.65-1.65 0.46-2.43-0.39-1.55-0.26-2.6-0.22-4.26 0-0.54-0.28-0.93-0.43-1.46-0.22-0.76 0.53-2.06 0.65-2.82-1.05 0.3-1.59 0.29-2.15-0.75-0.53-0.98-3.56-1.07-4.35-1.52-2.43-1.4-4.75-2.86-7.36-3.6-0.84-0.23-3.46-0.16-4.37-0.37-1.48-0.36-0.89-2.76-1.02-3.86-0.2-1.6-1.4-3.03-1.26-4.66"/>
  <path id="mauritania" class="scored land mr" d="m1144.1 579.89a6.13 6.13 0 0 1 0.46-3.66c0.15-0.37 0.67-1.26 1.63-1.31l27.89-0.03c1.42-0.75 0.44-6.91 0.35-9.29-0.18-2.38-0.42-3.93 1.5-5.74 1.6-1.52 1.54-1.13 6.63-3.2l1.11-21.84 24.88-0.3 0.34-11.06a673.9 673.9 0 0 1 27.9 19.78h-13.21l5.42 72.9c0.45 1.2 1.67 1.72 1.78 2 0.73 1.85-0.23 2.41-0.3 3.84-0.07 1.67-0.24 3.18-0.73 3.36l-15.89 0.02c-9.02 0.31-12.89 1.55-13.68-1.12-0.39 2.42-3.97 2.81-5.73 2.1-2.79-1.1-4.57-0.63-5.71 2.5a15.24 15.24 0 0 0-2.56-2.91c-1.15-1.1-2.26-1.7-2.86-1.36-2.3 1.27 0.9 7.65-4.72 7.25 0.03 0.1-1.52-1.1-1.93-1.88-0.5-0.97-1.09-0.66-2.06-1.49-1.05-0.9-0.97-2.36-1.83-2.93-2.31-1.54-1.4-1.55-1.61-2.6-0.27-1.28-1.57-2.9-2.22-2.92-3.4-0.05-3.64-2.8-5.85-3.86a8.1 8.1 0 0 0-3.57-0.87c-2.34-0.08-3.14 2.2-8.5 1.8-1.12-0.08-0.97-0.84-1.93-0.56-0.94 0.34-2.03 3.34-2.4 4.13 0-5.2 3.42-9.44 3.91-14.54 0.3-3.07-0.12-5.67-0.5-8.68-0.15-1.08-0.11-2.27-0.8-3.19-0.6-0.8-1.65-1.37-1.76-2.46 0.8 0.25 1.68-0.35 1.59-1.23a1.7 1.7 0 0 0-1.16 1.08c0.2-1.04 1.04-1.77 1.5-2.69 0.3-0.6-0.14-1.54 0.2-1.94 1.57-1.79-0.82-4.97-1.41-6.74-0.25 0.43-0.41 0.88-0.5 1.37-1.59-1.2-1.21-3.7-2.81-4.9-0.26 1.06-0.64 2.1-0.86 3.17"/>
  <path id="angola" class="scored " d="m1360.1 908.85c-0.11-3.51 0.84-7.05 0.44-10.57-0.06-0.55-0.46-1.07-0.24-1.63 0.33-0.8 1.2-1.26 1.55-2.08 0.28-0.67 0.32-1.38 0.4-2.09 0.1-0.63 0.93-1.4 0.72-1.95-0.45-1.14 1.12-4.22 1.37-5.51 0.35-1.84-0.04-3.83 0.99-5.44 0.69-1.08 0.25-3.32 1.04-4.02 0.82-0.71 2.13-2.26 2.64-3.22 0.76-1.42 0.3-3.66 2.6-3.87 1.6-0.15 1.75-1.4 2.55-2.79 1.9-3.31 2.43-8.45 1.56-12.12-0.4-1.7-1.07-2.9-2.03-4.33-1-1.5-1.02-2.66-1.57-4.22-0.25-0.7-0.88-1.25-0.98-2-0.12-0.94 0.02-1.8-0.4-2.68-0.6-1.3-1.82-2.98 0-3.9-0.48 0.34-0.83 0.89-0.78 1.51 0.38-0.73 0.81-1.48 1.4-2.06 0.48-0.47 1.25-0.44 1.33-1.19a9 9 0 0 0-1.11-5.45c-1.05-1.92-1.6-3.93-2.42-5.95-0.36-0.9-0.33-1.9-0.6-2.82-0.38-1.37-1.65-2.3-2.35-3.49-0.58-0.97-2.6-4.38-0.84-4.92 0.81-0.25 1.65-0.26 2.48-0.37 1.15-0.15 1.72-1.18 3-1.3 5.89-0.57 11.84 0.1 17.76-0.03 2.25-0.06 4.55-0.23 6.8-0.15 2.1 0.07 1.66 1.51 2.64 2.87 0.4 0.56 0.03 2.27 0.22 3.02 0.33 1.35 1 2.59 1.5 3.88 0.39 1-0.21 1.88 0.63 2.78 0.9 0.96 1.13 1.65 1.67 2.82 0.34 0.72 1.89 4.09 2.9 3.8 0.62-0.16 3.73 0.08 3.73 0.07-0.16-0.4 3.35-1.4 3.99-1.27 1.8 0.4 3.44 0.61 5.58 0.61-0.26-1.25 0.5-2.49 0.07-3.74 1.06 0.23 1.16-0.79 1.02-1.56-0.18-1.07 0.65-2.4 0.28-3.34 1.85 0 3.7 0.04 5.55 0.02 0.56 0 0.23-0.64 0.68-0.8 0.65-0.22 1.39 0 2.05 0-0.41 2.06-1.54 3.24 1.08 3.24 2.3 0 4.6-0.13 6.9-0.07 1.9 0.04 1.55 1.94 1.1 3.22-0.24 0.72-0.57 1.45-0.63 2.22-0.1 1.21 0.95 2.44 1.17 3.65 0.45 2.55-0.5 5.37-0.7 7.93-0.2 2.67 0.74 3.72 2.28 5.72 1.08 1.41 1.62 5.07 1.3 6.8-0.12 0.6-0.7 1-0.9 1.57-0.4 1.08 0.68 2.11 0.35 3.23 0.93 0.02 1.76-1.3 2.51-1.72 0.65-0.35 2.62 0.18 3.34 0.38 1.28 0.35 2.8-1.09 4.16-1.03 1.3 0.05 2.76 0.86 3.3-0.87 0.62 0.88 0.7 3.68 0.5 4.67-0.24 1.38-0.22 2.76-0.56 4.12-0.4 1.64 0.64 3.14 0.2 4.75-0.42 1.61-1.58 2.93-0.2 4.46-2.84 1.2-6.81 0.62-9.84 0.6-1.52 0-3.3-0.37-4.8-0.17-1.33 0.18-0.67 5.11-0.73 6.7-0.16 4.2 0.07 7.16-0.09 10.38-0.16 3.2 0.01 6.47-0.08 9.68-0.09 3.28 2.2 4.16 4.08 6.5 2.02 2.5 4.05 5 6.78 6.78-4.46 0.86-8.94 1.62-13.34 2.76-1.76 0.46-2.43 0.01-4.1-0.17-0.73-0.09-1.37 0.27-2.04 0.5-1.1 0.36-2.15-0.18-3.2-0.47-3.73-1.02-7.72-0.6-11.52-1.2-1.63-0.25-2.46-1.66-3.23-2.93-0.7-1.13-2.9-0.66-4.06-0.6-9.3 0.43-18.87 0.02-28.19 0.02-1.92 0-2.13-0.12-3.78-1.42-1.67-1.3-2.98-2.93-5.23-1.94-1.65 0.73-3.37 2.73-5.26 1.83-2.31-1.1-2.64 0.04-4.4 0.36"/>
  <path id="niger" class="scored land ne" d="m1272.9 634.75c-1.06-1.25 0.17-3.53 0.07-4.97 1.27 0.45 2.84 0.32 4.18 0.34 1.58 0.01 1.98-0.8 2.91-1.88 1.13-1.3 2.44-0.98 4.04-1.1 2.05-0.16 4.1-0.35 6.15-0.39 0.97-0.02 1.92-0.02 2.88 0.1 1.9 0.22 0.11-0.59 1-0.81 1.43-0.37 3.3 1.55 3.92-0.07 0.54-1.43 2.21-1.63 2.78-2.92 0.57-1.33 0.55-2.75 1.29-4.04 1.52-2.7 1.18-5.68 1.34-8.76 0.22-4.39 0.15-8.79 0.12-13.18-0.01-2.73 0.23-3.44 2.94-4.07 2.4-0.56 4.89-0.7 7.28-1.28 2.83-0.7 4.69-3.48 6.69-5.42 2.91-2.83 5.7-5.91 8.9-8.4 6.54-5.1 13.79-9.7 20.77-14.16 3.29-2.1 6.45-4.39 9.74-6.49 3.07-1.96 7.2 0.05 10.48 0.95 2.86 0.78 5.17 2.64 7.13 4.82 0.84 0.94 1.1 0.99 2.13 0.28 1.46-1 3.04-1.81 4.56-2.71 0.73 3.82 1.33 7.55 1.62 11.42 0.12 1.54 1.02 2.6 1.82 3.85 0.45 0.71 0.86 1.46 1.17 2.25 0.29 0.74-0.52 1.34 0.12 2.08 0.82 0.94 2.2 1.74 2.55 3.02 0.42 1.56-1.35 3.17-1.5 4.73-0.43 4.66-1.17 9.3-1.17 13.98 0 2.02-0.2 4.03-0.26 6.05-0.05 1.63 0.17 3.61-0.37 5.17-0.47 1.34-1.8 2.48-2.67 3.57-1.4 1.78-2.93 3.45-4.35 5.21a35.37 35.37 0 0 0-5.63 9.69 8.1 8.1 0 0 1-1.26 2.35c-0.27 0.33-0.84 0.24-1.05 0.64-0.65 1.27 0.92 4.87 1.12 6.27-0.69 0-1.57-0.17-2.2 0.23-0.65 0.43-0.54 0.9-1.29 1.22a11.54 11.54 0 0 0-4.13 2.74c-1.95 2.05-3.1 1.16-5.47 0.2-2.77-1.12-5.25-1.27-8.2-1.35-2.53-0.06-4.7 0.4-6.63 2.13-0.65 0.6-1.13 1.27-1.63 1.99-0.86 1.24-1.38 0.45-2.62 0.56-2.91 0.27-4.16-1.2-6.6-2.17-1.77-0.71-3.8-3.22-5.94-2.08-0.81 0.42-1.42 1.13-2.21 1.6-0.61 0.35-1.57-0.19-1.84 0.4-1.13 2.42-3.08-0.58-3.54-1.58-1.08-2.38-2.73-3.3-5.14-3.73-1.38-0.24-2.41-1.4-3.82-1.53-1.24-0.12-1.73 1.17-3.05 1.15-2.39-0.05-4.57-0.25-6.31 1.73-0.58 0.65-1.18 0.97-1.26 1.86-0.13 1.49-0.17 2.73-1.06 3.98-1.2 1.69-2.66 2.8-2.57 5.04 0.01 0.47-0.24 5.25-0.54 5.09-1.42-0.8-4.47-6.2-5.96-6.02-0.47 0.05-0.66 0.62-1.08 0.78-0.55 0.21-1.78 0.06-2.14 0.62-0.2 0.29 0.63 2.68 0.07 2.66-0.5-0.01-1.67-2.14-1.9-2.53-0.79-1.28-0.18-1.55 0.88-1.97-0.34-0.71-0.4-1.7-1.08-2.22-1.2-0.93-1.95 1-3.21 0.78-2.34-0.41-6.15-4.1-5.07-6.55 0.66 0.47 1.3 0.49 2.01 0.14-0.35-0.3-4.88-3.48-5.03-3.17 0.33-0.68-1.35-1.95-1.57-2.7-0.38-1.3-0.08-2.52-1.31-3.42"/>
  <path id="zambia" class="scored land zm" d="m1437.6 899.5c0-8.19 0.03-16.4 0.14-24.58 0.01-0.88-0.3-2.68 0.91-2.95 1.07-0.23 2.39 0.07 3.48 0.1 3.63 0.1 7.5 0.73 11.03-0.44-1.15-1.26-0.57-2.4-0.03-3.76 0.65-1.66-0.22-2.96-0.14-4.62 0.17-3.06 1.48-6.57 0.24-9.62 1.14 0.02 1.03 1.27 2.22 1.51 1.33 0.28 0.74 2.24 0.23 3.03 1.58 0.35 1.44 0.3 2.98-0.37 1.5-0.65 3.23-1.06 4.86-1.15-0.58 1.15-0.3 3.26 0.62 4.18 0.72 0.72 1.9 0.28 2.8 0.68 1.29 0.6 2.23 1.17 3.7 1.19 2.39 0.03 4.6 1.6 5.44-1.43 0.92-3.3 1.9 0.39 3.04 1.4 0.79 0.68 0.68 1.78 1.25 2.61 0.9 1.33 1.9 0.07 2.7 0.59 1.2 0.79 1.66 1.5 2.96 1.48 1.52-0.02 1.17 2.48 2.19 3.42 1.49 1.38 1.77 2.55 2.62 4.32 1.07 2.23 4.2-2.1 5.38-0.65-0.52 0.41-0.54 1.1 0.12 1.36 1.15 0.46 0.76-1.88 0.77-2.38 0.08-2.9 0.18-5.8 0.18-8.7-0.53 0.2-1.1 0.25-1.63 0.42-0.92 0.28-0.65 1.07-1.05 1.69-0.68 1.08-3.71-1.4-4.4-2.12-2.11-2.2-4.52-4-3.28-7.63 0.67-1.97 1.24-3.6 1.79-5.27 0.38-1.16-0.39-3.08-0.28-4.39 0.17-2.12 1.22-6.6-1.62-7.47 0.92-2.42 6.02-3.76 4.07-6.98 4.2-0.9 7.94-1.16 12.74-2.23 0 0.81-1 1.84-0.98 2.05 0.07 0.43 1.43-0.18 0.75 0.95 0.14 0.27 0.66-1.17 2.44 0.6 1.84 1.83 2.52 0.62 2.33-0.3 2.05 0.03 2.58 0.75 3.43 2.26 0.37 0.66 0.78 0.39 1.35 0.19 0.73-0.27 0.98 0.95 1.58 1.2 1.21 0.5 3.44 0.34 3.83 1.77 0.12 0.42 0.93 0.27 1.43 0.42 0.83 0.26 1.55 0.53 1.86 0.88 0.3 0.36 0.29 0.8 0.14 1.25-0.4 1.2 2.38 0.75 2.87 2.55 0.16 0.6-0.32 0.95-0.23 1.51 0.15 0.86 0.8 1.17 1.4 1.7 0.52 0.47 0.71 2.03 0.93 2.67 0.41 1.21-1 2.36-2.16 2.71-1.27 0.4-0.54 1.37-0.23 2.34 0.49 1.52-0.4 2.32-0.45 3.78-0.07 2.1-1.04 6.6 1.6 7.4-1.08 1.14-4.35 1.68-4.33 3.61 0 1.26 0.33 1.73 0.07 3.16-0.37 2.07-1.71 3.3-2.2 4.74-0.29 0.84 0.65 1.5 1.3 1.96 0.91 0.65 1.34 0.17 1.71 0.8-7.13 3.33-14.75 5.35-22 8.3-0.93 0.65 1.58 3.96 1.12 5.62-0.7 0.08-2.62 0.37-3.3 0.1-1.31-0.53-2.88 0.28-4.12 0.7-1.77 0.6-4.05 1.65-4.44 3.7-0.16 0.88 0.06 1.83-0.34 2.66-0.56 1.18-2.13 1.33-3.2 1.75-1.88 0.74-4.4 2.27-5.44 4.04-1.06 1.8-5.18 9.64-8.29 7.78-0.67-0.4-1.4-0.78-2.15-1.02-1.1-0.35-2.2 1.1-3.06 0.63-0.68-0.38-0.95-1.65-1.81-1.45-0.2 0.05-2.4 0.6-3.5-0.43-1.24-1.17-1.8-1.98-2.79-2.25-1.05-0.22-1.76 0.88-3.67-0.25-1.52-0.24-2.58 0.57-4.07 0.68-0.77 0.06-2.25 0.66-2.74 0.47-2.6-1-4.33-3.97-6.16-6.02-1-1.12-1.78-2.02-2.86-3.06-1.02-0.97-1.3-1.94-1.64-3.4"/>
  <path id="ethiopia" class="scored land et" d="m1522.1 691.34c0.14-1.16 1.25-1.78 1.25-2.97 0.01-2.02 1.44-2.22 3.15-1.93 1.51 0.26 2.83 0.74 3.95-0.93 0.78-1.16 0.27-3.17 0.11-4.44-0.25-2.12-0.56-4.4 0.23-6.45 0.31-0.8 0.73-1.56 1.02-2.37 0.43-1.19-0.04-1.98-0.06-3.16a5.12 5.12 0 0 1 1.37-3.24c0.88-1.02 2.19 0.2 2.16 1.3 0.5-0.56 2.52-3.64 1.51-4.6-0.57-0.56 0.35-1.86 0.52-2.41 0.33-1.1-0.4-2.47 0.57-3.36 1.56-1.43 2.18-3.3 3.14-5.22 0.4-0.82 0.66-1.66 1.65-1.71 0.4-0.02 2.36 0.2 2.53-0.3 0.55-1.5 0.42-3.35 0.65-4.92 0.14-0.9 0.5-1.59 0.87-2.4 0.66-1.48 0.5-2.85 0.8-4.38 0.56-2.9 1.78-1.84 3.97-1.86 0.84 0 1.02-1.73 2.2-1.04 0.93 0.53 1.45 1.77 2.04 2.6 0.89-2.2 1.77-4.44 2.37-6.76 0.34 0.53 0.73 1.2 1.3 1.51 0.62 0.34 1.33 0.07 1.7 0.82 0.75 1.48 1.65 1.66 3.2 1.38 0.57-0.1 1.18-0.26 1.63-0.65 0.27-0.24 0.5-1.12 0.79-1.2 0.52-0.15 1.37 1.64 1.47 2.03 1.47-1.85 3.96 0.3 5.48-0.1 2.07-0.56 4.2 1.66 5.98 2.4 2.37 1.01 3.06 4.08 5 5.62 1.15 0.93 2.68 1.67 3.4 3.04 0.66 1.25 0.97 2.3 2.14 3.2 1.96 1.5 2.81 2.66 1.51 4.94-1.53 2.7-3.63 4.23-3.15 7.52 0.25 1.64-0.4 3.63 1.95 3.47 1.37-0.1 2.73-0.75 4.05-1.08 1.08-0.28 1.49 0.67 2.5 0.34-0.12 1.7-2.09 3.15-1.14 5.14 1.14 2.38 2.18 3 3.67 5.12 0.49 0.71 1.37 3.07 1.93 3.72s1.04 0.44 1.7 0.97c1 0.82 2.54 2.56 3.81 3.02 5.1 1.84 9.7 3.75 14.79 5.63 2.41 0.9 4.36 1.95 6.86 2.54 2.32 0.54 5.29 0.16 7.63 0.16l-21.39 25.39c-1.3 1.52-2.34 1.67-4.2 1.42-3.04-0.41-7.3-0.58-11.28 3.07-1.05 0.96-1.41 2.16-2.94 2.47-1.41 0.28-2.9 0.23-4.2 0.95-1.42 0.77-1.32 2.1-3.18 1.67-1.55-0.36-3.73 0.92-5.1-0.6-0.59-0.64-1.06-1.65-2.03-1.76-0.93-0.11-2.2 0.57-3 0.94-1.28 0.6-3.4 1.72-4.22 2.92a77.15 77.15 0 0 0-2.11 3.28c-0.97-0.93-3.15-1.07-4.4-0.96-0.98 0.09-1.66-0.69-2.53-0.87-0.9-0.2-1.91 0.23-2.82 0.14-3.68-0.34-0.58-0.81-10.27-6.64-1.65-1-4.05 0.13-6.08-0.58-0.94-0.33-2.36-2.18-2.78-3.03-0.59-1.19 0.41-2.75 0.03-4.05-0.34-1.18-2.75-1.89-3.55-0.86-0.5-0.48-1.18-1.88-1.58-2.5-0.93-1.45-1.26-3.4-1.89-5-0.47-1.2-0.7-2.55-1.36-3.68-0.3-0.52-0.65-0.7-1.16-0.96-0.56-0.28-0.57-0.83-0.99-1.2-0.26-0.17-0.36-0.31-0.66-0.35-0.8-0.22-0.87-1.07-1.3-1.65-0.93-1.28-1.57-2.84-2.83-3.86a6.28 6.28 0 0 0-3.2-1.4c-1.09-0.14-2.6-0.15-3.18-1.29"/>
  <path id="morocco" class="scored land" transform="matrix(.62722 0 0 .62722 1074 429.69)" d="m258.51 30.908c-0.21284-0.02314-0.46095 0.0301-0.75391 0.18555-1.2276 0.66962-2.7096 1.2766-4.1445 1.1172-1.1798-0.12755-2.2013 3.7777-2.4883 4.543-2.9336 7.892-6.6639 18.639-14.396 23.039-3.9061 2.2321-8.274 3.6818-12.355 5.5312-3.7626 1.69-6.1394 5.0709-9.1367 7.7812-1.403 1.2755-2.9498 2.7417-3.5078 4.623-0.78123 2.5828-0.26971 4.8786-2.1191 7.1426-3.2365 3.938-5.1508 6.2986-5.4219 11.592-0.0957 1.8973 9.3e-4 3.6349-0.82812 5.3887-0.845 1.7538 0.0794 1.77 1.3867 2.7266 3.38 2.4553-0.62122 8.9281-2.375 11.16-2.5669 3.3003-5.0236 6.9498-8.2441 9.6602-3.3481 2.8539-6.6801 5.2628-9.8848 8.3398-3.2684 3.1249-7.652 4.4946-11.973 5.4512-2.3437 0.51019-4.7985 0.62212-7.0625 1.4512-0.6181 0.20604-2.3995 3.0198-2.9531 3.6484l-0.14063 2e-3c-0.0837 0.59797-1.9134 4.3696-2.9824 7.1758-1.977 5.3092-4.5913 7.5412-9.4062 10.268-4.3685 2.4872-5.7072 7.4454-7.4609 11.941-2.1364 5.4845-1.2913 10.108-5.6758 14.588-3.2843 3.3481-8.2903 6.5537-10.283 10.906 0.51019-0.87689 1.2273-1.6275 2.0723-2.1855 1.2595 2.1524-3.2844 7.7813-4.4004 9.4394-0.70151 1.0204-0.15958 2.8368-1.0684 3.3789-1.5943 0.94066-1.5627 3.4135-2.041 5.0078-0.94066 3.109-3.7312 3.1242-5.2617 5.6113-1.2595 2.0567-1.8651 4.2735-2.2637 6.6172-0.57396 3.4597-3.3797 9.1034-1.4824 12.436-0.3667-2.4074 0.17468-7.9238 3.5547-7.9238h44.084c2.7104-0.78123 0.74928-14.015 0.58984-16.566-0.30292-4.3844 1.1954-6.8546 4.9102-9.1504 2.4553-1.5306 5.8044-1.7218 8.1641-3.4277l1.834-34.805 39.619-0.44726 0.76562-23.277h-0.0898c0.39665-3.5592 0.77349-7.5398 0.51953-11.127-0.2551-3.6351 2.009-3.9228 4.5918-6.0273 1.3233-1.0682 2.9332-1.7381 4.2246-2.8223 1.2117-1.0204 2.169-2.5192 3.6836-3.125 1.3233-0.54207 2.5822-0.30356 3.6504-1.4356 1.0523-1.1479 1.9773-1.9447 3.6035-2.0723 2.3118-0.17538 5.1811 2.0254 6.1856-0.9082 0.92472-2.7423 3.3972-1.7696 5.709-1.8652 3.0611-0.12755 6.9502-1.0365 9.0547-3.4121 1.8494-2.0408 2.854-4.9899 5.373-6.377 1.2914-0.7334 2.8535-0.68576 4.2246-1.1641 1.8176-0.63774 3.5082-2.3273 5.0547-3.4434 1.4668-1.0682 3.8577-0.59045 5.2129-1.9297 1.1958-1.1798-3.7947-3.0285-1.0684-5.5156-3.2206-0.87689-0.31861-4.2577 2.041-4.0664 3.1249 0.27104 5.9953-0.84408 7.1113-3.7617 2.1205-5.5961 16.566-0.65477 20.695-1.707-4.0018-1.4987 3.4598-4.7828 0.97266-6.7598-1.3552-1.0682-2.7901-1.6895-3.7148-3.252-0.60585-1.0363-0.0481-2.0415-0.66993-3.1895-1.2117-2.2321-1.4997-3.1405-0.92578-5.6914 0.39859-1.69-0.62149-2.695-0.79687-4.2734-0.23915-1.961 0.44677-3.7464 0.0801-5.7871-0.23915-1.2755-0.6378-3.0297 0.58984-3.9863-2.248-0.92472-0.65332-2.4073-1.3867-4.0176-0.65368-1.419-2.5838-1.9917-3.668-2.9961-1.0204-0.92472-1.9926-2.5999-3.6348-1.8027-1.3846 0.69917-2.8958 0.26289-3.9316-0.75391 0.91162 1.1951-0.76342 0.62226-0.94727-0.41016-0.20726-1.0842-0.58853-1.4499-0.55664-2.8848-2.2799 4.4163-7.0638 2.1356-10.811 2.582-4.512 0.54208-7.796 1.3239-11.75-1.498a10.523 10.523 0 0 1-3.9375-4.9434c-0.37566-0.90678-0.63628-2.4446-1.5586-2.5449zm29.561 9.6992c-0.11608-0.15217-0.25986-0.32462-0.46875-0.53711 0.14075 0.19437 0.29994 0.3714 0.46875 0.53711zm-125.96 103.68c0.0162-0.11548-8e-3 -0.15289-0.14258 2e-3z" stroke-width=".79717"/>
  <path id="chad" class="scored land td" d="m1373.2 634.82c0.26-0.67 0.93-0.52 1.28-1.07 0.3-0.48 0.39-1.16 0.88-1.52 0.6-0.45 0.71-2.18 0.97-2.86 1.41-3.7 4.57-7.08 7.09-10.05 2.3-2.73 4.93-5.04 5.1-8.72 0.22-4.62 0.32-9.24 0.64-13.85 0.25-3.56 0.07-8.25 1.84-11.4 1.02-1.83 0.35-2.68-0.88-4.1-0.35-0.4-0.8-0.72-1.15-1.11-0.61-0.7 0.2-1.31-0.09-2.02-0.64-1.65-1.98-2.92-2.74-4.49-0.64-1.32-0.23-2.93-0.37-4.35-0.24-2.34-0.94-4.6-1.3-6.93-0.05-0.27-0.5-1.23-0.13-1.41l8.24-3.91 59.57 33.72 0.6 32.98c-1.96-0.6-2.14-0.36-4.2-0.04-1.37 0.22-3.13 0-3.57 1.28-0.32 0.93 0.58 2.7-0.1 3.6-0.64 0.85-1.62 3.76-2.97 4.23-1.53 0.53-0.9 3.2 0.19 4.26-2.5 2-4.12 3.24-2.18 6.03 1.3 1.88-1.74 2.67-2.58 4.26-0.58 1.08-0.8 1.46 0.07 2.34 0.75 0.74 2.02-0.06 2.83-0.05 1 0 1.85 0.47 1.2 1.26-0.94 1.15 0.97 2.5 0.23 4.52 0.26-0.13 0.52-0.25 0.79-0.36 0.58 0.93-0.08 1.98-0.07 2.95 0 1.11 0.14 1.13 0.84 1.9 0.64 0.7 2.17 0.31 2.27 2.21 0.05 0.85-0.77 2.39-0.53 3.35-0.43-0.73-2.5-1.43-3.42-0.96-0.54 0.28-1.3 0.52-1.65 1.05-0.44 0.65-0.53 0.24-1.03 0.79-0.79 0.87-2.69 0.66-2.96 2.03-0.11 0.56 0.34 1.04 0.16 1.62-0.61 1.96-2.37 2.76-3.8 4.05-1.12 1.03-1.7 2.48-2.71 3.6-1.8 2-3.04 2.45-5.58 3.39-1.45 0.54-5.04 0.77-6.56 0.62-0.52-0.04-3.7 0.7-2.57 1.56 0.5 0.37 1.81 0.62 1.52 1.5a9.8 9.8 0 0 1-2.32 3.19c-0.62 0.57-1.16 2-1.94 2.19-1.48 0.37-3.27 0.08-4.8 0.22-2.02 0.18-3.52 0.68-5.24 1.74-0.95 0.6-2.73 1.1-3.17 2.24-0.68-0.98-1.63-1.67-1.94-2.88-0.63 0.22-0.93 1.05-1.23 1.58-0.21 0.37-1.45 0.48-1.86 0.66-2.07 0.9-2.78 0.75-4.98 0.78 1.16-1.46-0.14-1.99-0.56-3.35-0.57-1.86-1.06-3.94-2.28-5.5-1.04-1.32-2.48-2.24-3.78-3.29-1.28-1.05-2-2.32-3.04-3.56-0.7-0.84-2.5-2.44-1.65-3.66 0.87-1.25 1.28-2.13 2.9-2.05 1.8 0.08 3.57 0.81 5.35 0.2 0.79-0.26 1.49 0.13 2.19 0.41 0.65 0.26 1.56-0.34 2.17-0.51-3.58-1.99-5.25-6.78-5.06-10.7 0.04-0.89 0.5-1.6 0.59-2.45 0.09-0.88-0.14-1.77-0.16-2.65-0.02-0.67 0.12-1.76-0.27-2.35-0.3-0.46-1.15-0.12-1.1-0.9 0.07-1.02-0.34-2.4-0.55-3.42-0.16-0.72-1.19-0.84-1.71-1.16-1.66-1.03 0.45-2.58-2.83-3.07-0.79-0.12-0.56 0.5-1.4-0.15a36.98 36.98 0 0 1-3.14-4.83c-1.1-2-0.93-4.46-1.36-6.63"/>
  <path id="guinea" class="scored land gn" d="m1156.9 664.63c1-1.24 0.9-3.28 2.16-4.34 0.85-0.71 2.51-0.86 3.54-1.4 1.02-0.53 2.07 0.12 3.12-0.44 0.69-0.36 1.27-1.02 1.17-1.84-0.15-1.21-2.3-1.7-1.95-2.64 0.31-0.85 2.03-0.6 2.26-1.45 0.26-0.96-0.46-2.34-0.2-2.63l3.61-0.01c0.52 0.13 1.11 0.53 1.49 0.56 0.28 0.08-0.36 1.72 0.75 1.05 0.76-0.46 2.33 0.6 2.74 0.93 0.06 0.04 1.68 0.54 1.64 0.54 1.05-0.1 1.8-0.9 2.94-0.78 1.66 0.18 3.32-0.54 4.52 0-0.58 1.16-1.45 2.02 0.12 3.33 0.89 0.75 2.21-2.1 3.25-1.71 2.5 0.95 0.88 3.94 3.07 1.45 2.81-3.2 4.52 0.46 5.59 0.2 0.63-0.17 1.05-0.77 1.63-1.25 0.47-0.4 1.62-0.5 1.85-0.88 0.43-0.73-1.34-2.44 1.1-1.81 0.53 0.13 1.8 0.73 1.7 1.71-0.04 0.33 0.4 2 0.64 2.22 1.16 1.1-0.22 3.99 1.2 3.21 0.2 1.44 2.86 1.5 2.58 3.22-0.64 0.03-0.9-0.01-1.3 0.48-0.57 0.68-0.9 1.58-1.13 2.42 0.74-0.12 1.18-0.73 2.03-0.83 1.4-0.14 0.97 1.63 0.94 2.62-0.02 0.73-0.34 1.92 1 2.67 0.25 0.14 1.37 0.87 1.54 1.53 0.24 0.88-0.6 1.31-1.3 1.82-0.43 0.32-0.44 1.82-0.43 2.5 0.01 1.25 0.45 4.06 2.2 2.94-0.4 1.98-0.18 1.7 0.94 3.03-1.35 0.2-1.36 1.32-1.73 2.37 2.05 0.34 1.85 2.1 2.37 3.67-1.06-0.36-4.15-1.57-4.53-0.54-0.5 1.34 1.52 2.69 2.16 3.64-0.77-0.4-1.3 1.07-1.3 1.12 0.17 0.8 0.45 0.54 0.3 1.03-0.17 0.5-1.04 1.78-1.03 1.88-0.21-0.18-1.3-0.72-1.9-0.19-0.33 0.29 0.08-0.56-0.89-1.04-0.94-0.33-1.25 1.67-1.48 2.13-0.66 1.33-1.16 1.6-2.63 2.2-0.08-1.68-1.45-1.95-2.81-1.44 0.38-1.1 0.61-2.23 0.65-3.4 0.02-0.44-0.13-2.87-0.27-2.65-0.09 0.17-0.27 0.61-0.3-0.84 0-0.22-0.51-1.02-0.03-1.66-2.31-2.65-2.48-1.22-2.85-1.4-0.78 0.62-1.02 0.22-2.1 0.1a3.6 3.6 0 0 0-2.15 0.49c-0.38 0.23-2 1.08-2.16 1.44-0.16-1.45 1.83-3.33 1.5-3.77-1.26-1.72 0.68-2.24-1.3-3.5-0.59-0.38 0.21-1.03-0.08-1.57-2.1-3.87-2.9-6.87-7.64-6.16-1.28 0.2-1.59 0.6-2.71 0.85-1.98 0.45-2.6-0.56-3.44 1.37-0.68 1.55-1.23 3.35-2.2 3.79-0.89 0.39-0.95 0.71-1.36 1.58-0.48 1.04-1.72 0.2-2.43 0.86-0.08-0.68 0.35-1.16 1.01-1.23a2.36 2.36 0 0 0-0.58-0.72c-0.18 0.23-0.34 0.47-0.5 0.72a9 9 0 0 1-0.07-1.44l-0.79 0.07c0.23-0.89-1.07-1.06-0.5-1.94-1.33 1.33-0.69-2.12-1.16-2.45 0.07 0.58-0.25 0.8-0.79 0.65 0.23-0.5 0.4-1.04 0.5-1.58-0.3 1.06-1 0.69-1.66 0.21-0.93-0.67-0.44-1.15-0.79-2.09-0.5 0.18-0.83 0.52-1 1.01-0.1-1.81-3.95-1.66-2.88-3.96a3.8 3.8 0 0 1-1 0.22c0.56-1.06 0.95-2.24 1.28-3.39-0.44 0.44-0.77 0.94-1 1.52-0.12-1.17-0.58-0.57-0.94 0-0.17-0.8-0.28-2.47 0.72-2.81-0.8 0.44-1.64 0.42-2.52 0.43"/>
  <path id="nigeria" class="scored land ng" d="m1291.2 691.27c0.9-3.12-0.4-6.83 0.97-9.78 0.34-0.72 1.6-0.08 2.2-0.78 1.04-1.18 0.1-2.62 1.16-3.81 0.69-0.78 0.65-2 1.5-2.5 0.88-0.52 2.2-1.62 1.76-2.87-0.33-0.98-0.78-1.79 0.52-2.05 1.83-0.38 0.36-2.99 0.17-3.77-0.2-0.8 0.08-1.5-0.34-2.27-0.36-0.67-0.91-1.2-1.26-1.86-0.7-1.38 0.32-2.55 0.73-3.83 0.5-1.54 0.15-3.19 0.26-4.79 0.13-1.93 0.65-2.33 2-3.66a6.1 6.1 0 0 0 1.63-4.47c-0.03-1.35 0.9-2.15 1.86-2.95 1.14-0.94 2.53-1.2 3.97-1.26 1.88-0.08 2.89-0.75 4.61-1.19 1.01-0.26 2.33 0.9 3.16 1.32 1.44 0.72 2.93 0.3 4.18 1.5 1.1 1.07 1.62 2.35 2.37 3.63 0.28 0.5 0.67 1.01 1.23 1.2 1.19 0.38 1.36-0.95 2.3-1.05 3.16-0.35 4.2-3.18 7.5-0.84 0.45 0.32 0.96 0.7 1.26 1.19 0.14 0.23 1 0.12 1.26 0.25 1.37 0.74 1.92 1.76 3.7 1.83 1.04 0.04 3.21 0.61 4.12 0.21 1.28-0.57 1.71-2.23 2.8-3.05 2.65-2 6.63-2.17 9.79-1.87 1.65 0.16 3.13 0.6 4.6 1.38 1.23 0.65 2.77 1.6 4.21 1.07 1.39-0.5 2.1-2.1 3.25-2.95 0.62-0.47 1.23-0.91 2.04-0.96 1.23-0.06 0.38-0.32 1.06-0.77 2.62-1.75 3.46 0.73 4.41 2.5 0.82 1.52 2.45 1.64 2.06 5.83-0.05 0.47 0.67 2.31 1.08 2.64 0.51 0.41 0.9 0.03 1.52 0.26 3.24 1.17 0.3 4.37 1.27 5.9 1.26 1.94-2.76 3.43-4.22 3.28-2.2-0.23-2.98 4.56-3.55 6.29-0.33 0.98-0.51 2.02-0.81 3-0.33 1.1-1.57 0.93-1.6 2.17-0.02 1.11 0.25 2.52-0.6 3.5-0.72 0.84-1.76 1.21-2.73 1.7 1.08 0.22 0 2.98-0.07 3.6-0.23 1.8-1.38 2.82-3.17 2.89 0.16 0.93-0.56 1.14-1.06 1.74-0.62 0.74-0.11 1.84-0.28 2.72-0.4 2.05-1.43 4.21-2.71 5.9-1.11 1.45 0.94 2.34-1.62 4.01-1.08 0.7-0.43 1.47-0.81 2.48-0.25 0.66-1.13 1.3-1.47 1.92-0.32 0.6-1.41 0.24-1.87 0.06-0.56-0.22-0.43-1.89-0.47-2.39-0.04-0.58-2.02-1.1-2.3-1.77-0.43-1.06-0.96-0.7-1.24-1.93-0.22 0.76-0.28 2.1-1.24 2.3-1.22 0.27-1.74-1.03-2.72-0.72-1.77 0.58-2.15 3.34-3.3 4.1-1.5 0.97-6.26 5.85-5.63 6.5 1.02 1.04-0.81 3.7-0.82 4.45 0 1.27-0.48 2.32-2.03 4.78-0.6-0.16-1.18-1.03-0.9-1.6-0.65 0.42-1.16-0.23-1.43-0.73 0.63 2.37 1.22 2.9-1.52 3.3-1.1 0.16-4.67 0.88-3.67-1.36-0.46 0.91-0.49 1.15-1.58 1.08-1.2-0.07-1-0.38-2.17-1.15 0.55 0.4 1.22 2.47-0.09 1.95-0.87-0.35 0.42-2.45-1.13-1.66 0.44 0.87 0.8 1.7 0.43 2.66-0.71-0.3-1.54-2.88-1.29-3.67-0.82 0.72 0.55 2.8 0.12 3.77-0.6 1.36-0.6-1.83-0.56-2.11-0.13 0.4-0.35 2.58-0.43 0.65-0.01 0.57-0.1 1.2-0.5 1.65-0.02-0.52-0.16-1-0.43-1.44 0.31 0.62 0.29 1.62-0.66 1.53-1.71-0.15-1.24 0.24-1.72-1.38 0.02 1.53-1.17 2.87-1.44 0.64 0.02 1.45-0.35 0.5-1.4-0.01a5.55 5.55 0 0 1-2.27-2.5c-0.5-0.93-1.11-1.94-0.85-3.02 0.18-0.72 0.27-1.38-0.74-1.1-0.18-0.77-0.1-1.21 0.7-1.37 1.55-0.32 0.1-0.87 1.25-1.57-0.82 0.06-1.54 1.18-2.35 1-2.58-0.59 0.95-1.5 1.56-1.58-0.41-0.5-0.9-0.58-1.44-0.21l0.07-0.94c-0.15 0.9-1.29 1.55-1.73 0.43-0.4-1 0.82-1.46 1.37-2.02a5.2 5.2 0 0 0-1.73 1.23c-0.98-2.25-3.17-4.73-5.62-5.36a13.2 13.2 0 0 0-3.86-0.38c-0.96 0.06-2.36 0.47-3.19-0.24 1.05 0.2 2.59-0.49 3.17-1.36-1.07-0.05-1.82 1.2-2.88 0.36a1.5 1.5 0 0 0-0.29 1.5c-1.72 0.23-3.48-0.1-5.19 0.3-0.05-1.08 0.56-2.04 0.58-3.1 0.03-1.1-0.46-1.91-0.18-3.05 0.44-1.86 0.48-5.42-0.6-7.1"/>
  <path id="tunisia" class="scored land tn" d="m1329 464.9c0.17-0.85 0.96-1.17 1.58-1.64 0.96-0.73 1.04-1.38 2.1-2.19a6.02 6.02 0 0 0 1.81-2.91c0.66-2.14 0.48-3.8 0.58-5.86 0.07-1.3-0.75-2.42-0.57-3.71 0.2-1.48 1.83-4.28-0.53-4.78 0.85-0.98 2.23-1.49 2.88-2.65 0.24-0.43 0.09-1.16 0.68-1.33 0.65-0.19 1.05 0 1.56-0.55a7.7 7.7 0 0 1 3.86-2.15c0.73-0.21 1.73-0.76 2.5-0.45 0.92 0.37 0 0.81 0.1 1.5 0.77 0 0.96-0.37 0.5-1 1.41 0.3 1.82 0.1 2.39 1.37 0.25 0.56-0.53 0.61 0.22 1.15 0.58 0.4 0.68 1.12 0.14 1.58 0.04-0.04 0.64 0.67 1.26 0.41 0.84-0.34 1.54-1.02 2.22-1.6 0.27-0.22 1.2-1.21 1.62-1.02 1.03 0.47 0.9 1.49 0.43 2.33-0.9 1.63-3.96 3.18-4.06 5.03a4.25 4.25 0 0 0 2 3.73c1.89 1.02 1.82 1.07 2.27 3.25 0.57 2.73-1.34 5.58-3.44 7.24-2.1 1.65-5.3 2.58-3.22 5.79 0.46 0.7 1.06 1.37 1.84 1.72 0.87 0.4 1.22-0.15 2.02-0.04 0.26 0.04 0.42 1.32 0.58 1.6 0.4 0.65 1.49-1.3 2.09-1.08 0.81 0.3 0.26 0.96 0.5 1.51 0.35 0.77 1.52 1.47 0.3 1.59 0.64 0.69 2.05-0.07 2.65 0.72 0.5 0.66-0.33 3.24-0.15 4.21 0.27 1.45 1.33 2.07-0.26 3.02-1.57 0.94-4.79 1.99-5.72 3.28-0.54 0.43-0.35 1.66-1.1 1.96-1.59 0.64-3.1 1.17-2.47 3.6 0.5 1.93 1.25 3.45 0.13 5.35-1.31 2.21-2.46 3.06-4.75 4.07-0.55-3.62-1.59-7.1-2.3-10.67-0.73-3.7-1.1-5.84-4.23-7.58a4.62 4.62 0 0 1-2.48-3.4 4.56 4.56 0 0 0-2.26-3.2c-0.65-0.38-1.27-0.7-1.7-1.37-0.44-0.7-0.3-1.64-0.73-2.35-0.92-1.46-1.42-3.02-0.84-4.48"/>
  <path id="namibia" class="scored land na" d="m1360.1 908.85c1.05-0.17 1.89-1.1 3.02-0.9 0.96 0.17 1.84 0.9 2.86 0.71 2.12-0.4 3.58-2.88 6-2.22 1.92 0.52 2.95 2.69 4.88 3.33 1.1 0.36 4.48 0.22 6.28 0.24 8.21 0.07 16.44 0.23 24.64-0.1 2.17-0.08 2.9-0.24 3.93 1.67 1.3 2.44 3.26 1.9 5.6 2.16 3.08 0.34 6.35 0.2 9.23 1.2 1.1 0.4 2.1 0.54 3.08-0.06 0.86-0.52 1.69-0.33 2.93-0.03 1.27 0.31 2.01 0.1 2.85-0.1 5.13-1.18 10.93-2.39 16.36-3.41 1.06-0.2 2.12-0.69 3.22-0.52 0.64 0.1 1.62 0.72 2.26 0.4 2.04-1.02 2.99 1.14 4.34 2.07-0.99-0.26-2.13 0.31-3.06 0.68-1.16 0.45-1.5 2.18-2.62 1.16-1.79-1.65-5.28 3.74-6.6 4.38-0.64-1.24-1.34-3.99-3.17-4.16-2.35-0.23-5.29 0.96-7.59 1.45-2.7 0.57-5.9 0.68-8.59 1.19l-0.99 31.9-7.22-0.1-1.06 54.38c0.17 2.48-1.95 1.44-3.13 2.56-0.59 0.56-0.55 1.1-1.71 1.5-0.8 0.28-1.17 0.61-0.52 1.35-1.8 0.53-1.71-0.14-3.38-0.4-1.75-0.25-3.25 0.7-5.33 0.25-3.28-0.7-5.23-1.92-5.38-2.52-0.42-1.68-0.03-0.99 0.04-2.32-0.07-0.53-0.64-0.39-1.04-0.8-0.57-0.6-1.07-1.86-1.67-1.48-1.9 1.2-1.38 3-2.04 3.52-0.94 0.73-2.13 1.7-3.11 0.46-1.3-1.64-3.04-2.94-4.2-4.7-1.04-1.55-1.86-3.22-2.7-4.89-0.43-0.89-0.47-1.84-0.63-2.8-0.16-0.98-0.83-1.5-1.02-2.39-0.36-1.65 0.38-2.25-0.84-3.77-0.49-0.6-0.32-1-0.3-1.77 0.02-1.25-0.41-2.34-0.55-3.56-0.1-0.86-0.02-1.74-0.27-2.6-0.35-1.2 0.25-2.36 0.02-3.56-0.4-2.07-1.39-3.96-2.14-5.92-0.85-2.2-0.22-4.07-0.44-6.3-0.15-1.52-0.37-3.42-0.23-4.2 0.06-0.37 0.98-4.05 0.58-3.96-0.1-1.98-1.1-3.93-2.22-5.52-0.64-0.9-1.36-1.73-1.9-2.69-0.48-0.89-0.58-1.97-1.22-2.78-2.94-3.72-3.58-8.23-5.75-12.26-2-3.7-2.67-8.77-5.9-11.67-3.5-3.13-3.9-7.7-3.6-12.1"/>
  <path id="south-africa" class="scored land za" d="m1394.8 1006.8c0.75-0.7 1.89-0.56 2.03-1.68 0.12-0.94 0.78-2.58 1.78-2.9 1.32-0.42 1.15 1.42 2.05 1.68 1.55 0.45-0.03 2 0.73 2.94 1.32 1.66 3.36 1.81 5.3 2.43 1.78 0.56 3.2-0.23 4.94-0.19 1.55 0.04 2.15 0.92 3.76 0.45-0.97-1.1 0.23-1.26 0.87-1.52 0.9-0.35 0.96-1.5 2.08-1.83 0.73-0.2 2.23-0.31 2.32-1.32l0.7-31.11c0.85 1.2 2.31 1.77 3.1 3.02 0.91 1.42 1.47 3.32 2.06 4.9 0.6 1.6 1.12 3.33 0.34 4.98-0.99 2.1-1.72 3.25-0.75 5.6 1.72-1.98 5.97 1.03 7.83-0.78 0.31-0.3 0.07-1.07 0.53-1.2 0.5-0.15 0.95-0.04 1.44-0.33 1.3-0.73 1.57-2.43 2.91-3.23 1.48-0.88 2.42-1.84 2.76-3.6 0.3-1.54 0.25-2.81 1.51-3.96 1.1-1 2.53-1.2 3.87-0.6 1.1 0.5 2.7 2.86 3.76 2.83 2.37-0.06 5.15 2.8 7.39 1.02 1-0.8 2.5 0.3 3.75-0.62 1.34-1 1.83-2.66 2.4-4.16 0.3-0.8 0.57-1.62 0.7-2.46 0.22-1.37-0.44-1.27 0.95-1.67 0.81-0.22 3.17-0.63 3.62-1.38 0.8-1.36 2.36-1.97 3.02-3.4 0.72-1.56 0.42-3.17 1.48-4.65 0.92-1.25 1.94-1.37 3.12-2.19a19.08 19.08 0 0 0 3.68-3.31c0.79-1 1.31-2.52 2.5-3.12 1.18-0.6 2.58-0.66 3.82-1.1 1.19-0.44 1.16-0.97 1.74-1.89 0.49-0.78 1.83-1.03 2.65-1.2 3.34-0.7 5.38 1.5 8.63 1.52 2.9 0.02 5.52-1.1 6.48 2.46 0.53 1.98 0.98 4 1.03 6.06 0.05 1.87 1.2 3.48 1.88 5.16 1.45 3.6 1.1 7.03 0.9 10.84-0.07 1.46 0.01 3.25-0.51 4.8-0.26 0.75-0.37 0.7-0.1 2.88 0.12 0.05-0.88-1.08-1.88-1.42-0.95-0.33-1.79-0.2-2.56-0.2-0.64 1.25-1.6 1-2.33 2.57-0.88 1.9-1.66 4.82-1.93 4.6 1.4 1.28 1.89 2.3 2.76 3.3 1.42 1.62 3.47 2.49 5.02 0.95 0.43-0.42-0.2-0.65 1.34-2.81l1.29 0.03 4.53 0.16c-0.86 3.8-1.94 7.14-2.95 10.9-0.53 1.93-1.55 5.88-4.23 5.69 0.43 0.95-0.82 0.92-1.39 1.03-0.72 0.15-1.33 1.05-1.78 1.55-1.61 1.8-3.25 3.93-4 6.2-0.4 1.3-1.54 2.1-2.19 3.25a61.9 61.9 0 0 1-3.2 5.18c-2.08 2.99-4.32 5-7.11 7.3-2.33 1.92-3.7 4.7-6.02 6.62-2.96 2.43-5.85 4.94-8.9 7.25-2.4 1.82-5.14 4-8.22 4.41-1.48 0.2-2.95-0.6-4.42-0.16-1.06 0.32-2.54 1.6-1.08 2.52-1.73 0.77-3.66-1.44-5.28-0.33-1.9 1.3-2.3 2.07-4.9 1.08-1.96-0.74-4.46-1.54-6.53-0.75-0.92 0.35-0.46 0.95-1.86 0.45-0.82-0.3-2.26 0.21-2.68-0.74a0.81 0.81 0 0 0 0 0.36c-2.11-0.34-5.5 0.63-6.58 2.6-0.94 1.72-5.67-0.06-7.17 0.59-0.9 0.39-1.86 0.13-2.7 0.53-1.03 0.48-2.16 1.47-3.06 2.17-1.14 0.88-0.7 0.7-2 0.37-0.58-0.15-1.22 0.18-1.73-0.24-0.58-0.48-1.13-1.05-1.88-1.27 1.31-1.8-2.7-1.87-3.6-2.02 0.55-1.4-0.02-2.65-1.69-2.34-1.13 0.2-0.71 1.54-0.69 2.34-2.05-0.8-0.43-3.24-0.23-4.49 0.18-1.08-0.42-2.2-0.96-3.1-0.31-0.5-2.87-4.05-1.18-2.41-0.72-0.73-0.4-1.53-1.48-1.52-0.92 0 0.09-2.27 0.18-2.59 2.33 1.37 2.93-1.3 2.97-3.1 0.08-3.07-0.77-5.66-2.36-8.3-2.36-3.9-4.45-7.78-5.81-12.18-0.63-2.06-1.04-4.17-1.8-6.19s-2.6-3.81-2.78-6.01"/>
  <path id="egypt-arab-rep" class="scored land eg" d="m1455.4 499.97c-1.43-2.29 1.5-4.68 1.15-7.01-0.4-2.52-2.68-4.27 0.94-7.25 0.07 1.83 2.2 1.17 3.31 0.85 2.02-0.6 3.68 0.06 5.69 0.27 2.2 0.22 4.3 0.7 6.43 1.27 0.9 0.24 1.04 1.22 1.95 1.5 0.81 0.25 1.43 0.15 2.23 0.07 0.54-0.06 0.8 0.78 1.4 0.9 0.67 0.15 1.35 0.15 2.02 0.22 2.17 0.21 3.61 1.57 5.64 1.9 1.96 0.33 3.84-0.99 5.25-2.19 0.73-0.62 1.4-1.3 2.07-1.98 0.58 0.45 1 0.9 1.73 0.8-0.41-0.22-0.32-0.34-0.87-0.3 0.71-0.37 1.42-1.06 1.6-1.87 1.22 0.73 2.37-0.58 3.6-0.57-0.83 0.37-1.62 0.84-2.24 1.5 0.21-0.12 5.17-1.62 2.8-1.8 1.76-0.57 2.9 1.43 4.58 1.2 0.8-0.12 1.56-0.91 2.42-0.62 0.79 0.28 1.16 1.43 1.87 1.88-0.72-0.5-1.45-1.6-2.38-1.66 0.27 0.75-0.75 2.16 0.46 2.45 1.32 0.31 0.7 0.64 1.56 1.44 0-0.3 2.35-1.29 0.65-2.09 1.8 0.42 2.41 2.1 4.54 1.91 0.69-0.06 2.73-1.33 2.37 0.18 1.31-0.84 2.8-0.35 4.21-0.78a9.3 9.3 0 0 0 3.5-1.73l6.08 16.05c-1.54 1.95-1.2 5.57-2.17 7.88-0.57 1.36-0.55 2.2-0.54 3.63 0.02 1.23-1.54 2.41-1.16 3.6-0.74-0.68-1.73-1-2.55-1.57-1.04-0.73-1.77-1.79-2.48-2.81-0.9-1.3-3.55-2.16-3.17-4.11 0.39-1.97-1.51-3.34-2.48-4.73a18.92 18.92 0 0 1-2.85-6.43c-0.9 0.97-1.86 3.08-0.92 4.19 1.61 1.9 1.45 4.22 2.8 6.18 1.16 1.7 2.35 3.77 3.8 5.22 0.65 0.64 1.39 1.19 1.98 1.88 0.3 0.37 1.58 2.46 0.05 1.32 1.23 0.97 0.2 2.2 1 3a10.15 10.15 0 0 1 2.16 3.54c0.27 0.66 0.72 1.23 1.1 1.82 0.3 0.46-0.29 1.04-0.31 1.48-0.04 0.6 0.93 1.48 1.2 2 0.6 1.17 1.27 2.31 1.89 3.48 2.02 3.85 4.05 7.64 5.96 11.55 0.75 1.52 1.85 2.62 2.79 4 0.87 1.27 2.4 1.67 3.22 2.97a4.5 4.5 0 0 1-2.23-0.43c-0.5 2.09-0.26 5.28 0.8 6.5 1.02 1.18-1.33 3.53-2.75 3.6-0.71 0.04-0.98-0.48-1.7 0.32-0.56 0.63-0.85 1.7-1.11 2.5-0.3 0.93-0.73 1.75-1.76 2-0.83 0.19-2.32 0.02-2.76 0.97-0.8 1.74-0.32 3.78-2.77 3.58-2.87-0.23-4.32-2.55-5.83-2.48-4.97 0.2-7.82 0.66-11.71 0 0.1-0.4 0.56-1.22 0.28-1.62-0.7-1.02-1.24 0.83-1.47 1.16-0.94 1.33-5.6 0.53-7.1 0.53l-40.08-0.09-1.43-54.18c-0.15-2.53-0.09-5.19-0.44-7.7-0.3-2.16-0.85-5.35-1.82-7.3"/>
  <path id="tanzania" class="scored land tz" d="m1497.7 806.27c0.58-4.23 0.74-1.29-1.05-5.09-0.34-0.72 0.45-2.02 0.06-3.23 1.75-0.18 2.04-0.33 3.17-1.63 0.91-1.04 2.39-2.46 3.3-3.58 0.67-0.82-0.74-1.61-0.45-2.2 0.34-0.73 1.78-0.15 1.53-1-0.17-0.56 1.25-1.37 1.55-1.66 0.86-0.83-0.37-1.8 0.38-2.58-2.3 0.65-3.74-0.74-2.45-2.8-1.25 0.12-0.38-0.8 0.08-1.53 0.58-0.92 1.71-0.55 2.2-1.5 0.9-1.75-0.49-4.9-1.28-6.59-0.55-1.18-2.47-3.88-0.64-4.48 2.25-0.74 7.27-0.17 9.7-0.1 1 3.79-0.75 3.86-0.62 4.3 0.46 1.52-0.86 3.32-0.81 3.69 0.79 1.06-0.08 2.08 0.09 2.62 0.55 1.84 1 0.38 1.22 4.86 0.12-0.95 0.81-1.46 1.38-0.43-0.22-1.84 0.02-2.01 1.16-1.87-0.86-0.46-0.3-1.52 1.05-2.27 0.27 0.26 1.58 3.07 2.96 1.28-0.18 0.43 0.83 0.58 1 1.15 0.34 1.12 0.33 3.15-0.66 2.7l0.58 0.76c0.5-0.57-0.38-0.77 1.56-0.93-1.17 0.21-2.93-6.39 3.13-2.6 0.27-1.63 4.37-3.46 3.13-3.59-1.5-0.15-1.32 0.48-2.15 0.37-2.5-0.33-2.39-0.82-2.53-0.71 0.6-0.68 0.04-0.68 2.66-0.87-0.23-0.95-2.59-0.43-2.03-0.59 0.26-0.23-0.8-0.63 2.09-1.02 0.31-0.04 0.75-0.55 0.62-1.13-0.08-0.36 0.35-0.07 0.49-0.25-1.14-1.2-0.34-1.34-0.07-1.5 0.27-0.15 0.55 0.16 1.83 0.4-0.25 0.04-0.97-1.07-0.4-1.71 0.36-0.47 0 0.5 0.34 0.07-0.4-0.28-0.26-0.95 0.04-1.3 0.3-0.38 0.71-0.8 1-1.17l22.85 14.32c1.93 1.23 4.34 2.11 4.92 4.47 0.24 1-0.55 0.97-0.76 1.84-0.16 0.63 0.95 1.36 1.31 1.89 1.25 1.83 3.73 3.06 5.36 4.53 0.97 0.88 5.58 3.85 5.4 5.13a23.86 23.86 0 0 1-1.86 6.25c-0.44 0.96-0.9 1.92-1.21 2.93-0.15 0.48-0.25 0.97-0.29 1.47-0.04 0.68 0.59 1.3 0.48 1.91-0.46 2.6 3.73 2.8 3.2 5.56 2.27-0.72 1.97 1.96 1.12 3.03-1.35 1.71-0.56 3.73-1.48 5.39 1.57-1.43 1.47 1.53 1.1 2.29a6.87 6.87 0 0 0-0.8 3.71c0.15 1.16 1.85 3.1 0.57 3.36 0.97 0.18 0.4 1.98 1.15 1.9 1.22-0.12 0.6 1.23 0.33 1.82-0.49 1.08 0.78 1.48 1 2.47 0.13 0.56-0.3 0.88 0 1.44 0.4 0.73 0.57 1.17-0.18 1.8 1.27-0.24 1.77 0.84 2.01 1.87-0.1-1.8 4.29 0.79 2.88 2.77-3.02 2.34-5.68 3.71-8.48 5.43-1.01 0.36-1.16-0.28-2.18 0.07-1.08 0.37-2.7 1.66-3.8 2.02-1.08 0.35-2.38-1.76-3.6-1.15-1.42 0.71-2.02 2.86-3.53 3.52-2.5 1.11-3 0.26-3.8-0.42-1.55-1.34-2.12 1.12-3.84 0.92-1.97-0.23-2.64 0.04-3.72-1.33-0.84-1.06-1.81-1.55-3.04-0.41-0.87 0.8-3.89 0.66-5.44 0.34-0.14-0.14-0.22-0.95-0.41-1.24-0.55-0.82-1.1-1.63-1.56-2.53-0.63-1.26-0.2-2.62-0.46-3.95-0.35-1.77-0.05-3.41-0.5-5.16a8.73 8.73 0 0 0-3.04-4.63c-1.4-1.1-1.68 1.03-1.55 1.36-1.43-1.55-2.78-0.1-4.13-1.58-0.42-0.46-2.02-0.58-2.64-0.94a9.01 9.01 0 0 0-3.56-1.34c-0.24-0.03-0.46-0.42-0.58-0.64-0.5-0.62-0.9-0.47-1.54-0.79-0.6-0.3-1.39-0.2-1.98-0.5-0.54-0.3-0.67-0.97-1.17-1.22-0.4-0.2-0.88 0.29-1.31 0.16-0.7-0.2-0.8-0.95-1.18-1.47-0.73-1.03-1.66-1.21-2.66-1.14-0.47-1.06-2.95-6.12-4.1-9.17-1.05-2.8-0.26-8.04-4.2-9.53-0.6-0.22-0.1 0.46-0.8 0.14-1.44-0.67-2.88-2.3-0.32-4.82 0.99-0.97-0.69-2.82-1.14-4.47"/>
  <g id="equatorial-guinea" class="scored ">
   <path d="m1337 731.88c0.53-0.63 2.99-5.29 0.8-4.84-0.83 0.18-1.2 0.69-1.48 1.45-0.33 0.91-0.91 1.03-1.46 1.7-0.64 0.78 1.74 1.47 2.14 1.69"/>
   <path d="m1344.1 745.85c0.28 0.06 0.54 0.01 0.79-0.15-1.58 0.77-0.15-1.55 0.13-2 0.8-1.28 0.16-3.14 0.74-4.68 1.05 2.08 1.75 1.56 3.12 1.86l8.21-0.1 0.05 10.02-9.06-0.2c-0.59 0.08-3.37 0.92-2.32-0.36-0.93-0.48-3.12 0.53-3.68-0.65-0.53-1.09 1.55-2.89 2.02-3.74"/>
  </g>
  <path id="lesotho" class="scored land ls" d="m1471.9 1016.1c0.95 0.94 0.87 2.3 1.64 3.27 0.67 0.85 0.44 1.96 1.14 2.66 0.88 0.87 3.18 3.8 4.7 2.57 0.66-0.54 1.23-2.34 1.7-3.12 0.73-1.24 1.99-1 3.2-1.33 0.87-0.24 2.74-0.98 3.11-1.9 0.48-1.18 0.53-1.85 1.37-2.9 0.31-0.38 1.32-1.45 1.15-2.03-0.53-1.82-1.28-1.93-2.5-3.2-0.93-0.98-1.94-1.9-2.87-2.9-0.8-0.85-2.19 0.5-2.92 0.82-0.82 0.35-1.2 0.73-2 1.17-0.94 0.51-1.9 0.33-2.65 1.28-0.8 1.03-1.2 2.31-1.92 3.4-0.82 1.24-2.02 1.38-3.15 2.2"/>
  <path id="burundi" class="scored land bi" d="m1492.2 783.29c0.94-3.04 2.58 0.28 2.82 0.31 3.36 0.39 4.03-0.7 4.3-4.06 1.85 1.58 1.26-0.71 5.43 0.73-0.7 0.35-2.5 2.29-1.1 2.23-1.18 3.07 1.15 3.19 2.45 2.8-0.8 1.2 0.98 1.71-0.71 2.92-1.04 0.74-1.01 0.32-1.25 1.67-0.06 0.33-1.27 0.16-1.47 0.59-0.23 0.47 0.73 1.56 0.61 1.86-0.07 0.2-0.59 1.24-1.47 1.88-1.37 1-1.56 2.2-3.03 3.14-0.72 0.46-1.45 0.6-2.1 0.6-0.26-0.87-1.81-4.16-2.11-5.24-0.44-1.56 0.18-3.17-0.86-4.52 0.12-0.77 0.5-1.7-0.12-2.54-0.54-0.75-1.15-1.46-1.4-2.37"/>
  <path id="djibouti" class="scored land dj" d="m1588.7 664.13c0-2.33-0.9-4.63 0.5-6.73 1.06-1.58 2.03-3.01 2.95-4.67 1.07-1.93 1.61-0.9 3.15-0.48 0.78 0.2 0.73-1.02 1.04-1.42 0.47-0.62 1.29-0.87 1.94-1.25 0.67 1.47 3.47 4.2 2.12 5.92-0.7 0.88-2.86 1.89-3.9 2.3-1.05 0.41-1.2 1.67-2.4 1.86 0.8 1.03 3.16-0.66 4.32-0.21 2.08 0.8 0 2.84-0.55 3.99-0.84 1.72-2.17-0.08-3.47 0.26-1.33 0.35-4.82 2.1-5.7 0.43"/>
  <path id="congo-rep" class="scored land cg" d="m1355.6 793.58c0.58-1.76 0.93-2.29 2.39-3.4 1.28-0.97 1.74 2.28 3.43 1.25 0.24-0.15-0.07-1.6 0.19-2.15 0.56-1.17-0.65-1.43-1.34-1.87-0.61-0.39 1.12-4.22-1.57-3.47 0.94-1.29 0.67-2.83 0.28-4.25 1.09 0.25 1.54 0.14 2.59 0.16 0.46 0 0.68 0.7 1.12 0.6 1.3-0.31 3.58 0.02 3.29-1.93-0.2-1.33-0.65-4.17 1.9-2.8 0.93 0.5 2.58 3.29 1.98 4.33 1.18-0.68 2.3 0.8 3.52 0.5 1.04-0.25 2.03-1.93 2.3-2.88 0.33 0.58 0.9 3.84 1.63 3.78 0.54-0.04 1.96-1.46 1.87-2.07-0.1-0.63 0.05-2.78 0.69-3.15 0.84-0.5 1.64-2.1 0.57-2.81 1.45-0.51 0.74-3.3 0.42-4.31-0.47-1.55 1.13-3.27 0.39-4.64-0.44-0.81-1.57-1.05-2.4-1.05-0.44-0.34-0.04-1.46-1-1.56-2.5-0.24-0.56-1.55-0.86-3.09-0.21-1.06 0.16-3.14 1.14-3.85 1.03-0.74 1.92-0.37 2.59-1.77 0.5-1.09-0.3-1.9-0.71-2.85-0.73-1.71-0.97-3.32-3.2-2.97-1.91 0.31-3.62 1.36-5.52 1.68 0.54-1.42-0.06-2.96-0.19-4.4-0.14-1.57 0.86-3.06 0.9-3.86 0-0.65 7.7 0.2 8.37 0.13 1.29-0.14 1.74 0.2 2.97 0.3 1.03 0.07 1.18 1.46 2.56 1.08 2.72-0.75 5.57 1.18 7.43 3.01 0.88-1.25 0-2.18 0.06-3.5 0.04-1.09 1.13-1.74 1.52-2.7 0.55-1.33 1.23-2.64 1.56-4.06 0.26-1.14-0.16-2.2 0.1-3.3 0.18-0.83 0.41-2.07 1.25-2.53 1.07-0.59 2.41 0 3.56-0.5 1.24-0.53 2.2-1.38 3.58-0.73 1.36 0.63 2.29 1.2 3.82 0.95 1.89-0.3 4.35-1 4.1 1.64-0.23 2.26-1.83 5.4-2.9 7.33-1.28 2.28-1.26 3.78-1.28 6.41a15.02 15.02 0 0 1-0.71 4.36c-0.49 1.53-0.86 2.37-0.88 4.05a54.52 54.52 0 0 1-0.15 3.24c-0.08 1.09-0.39 2.47-0.66 3.53-0.68 2.7 0.61 4.44-1.63 6.9-2.02 2.22-4.14 2.84-5.5 5.32a34.89 34.89 0 0 0-1.7 3.73c-0.96 2.4-3.27 2.76-3.13 4.22 0.24 2.4 0.04 4.75 0.03 7.4 0 2.6-1.14 6.58-3.6 7.01-0.9 0.16-1.84 1.1-2.12 2.05-0.15 0.51-1.78 1.2-2.25 1.78-0.86 1.04-1.49 2.26-2.48 3.28-1.27 1.3-2.52-0.25-3.26 0.71 0-0.93-0.84-2.6-0.2-3.36 0.51-0.61 0.77-1.16-0.28-1.48-1.3-0.4-3.08 2.3-4.2 0.81-0.56 0.59-0.46 1.32-0.76 2.02-0.38 0.92-1.61 1.26-2.27 1.94-0.07-1.2-1.75-1.37-2.02-2.52-0.9 1.65-1.82-3.27-3.36-0.86-0.53 0.83-1.4 0.76-2.06 1.32s-1.77 1.87-2.45 2.61c-1.58 1.76-2.06-1.51-2.32-2.46-0.66-2.46-3.33-4.6-5.14-6.3"/>
  <path id="rwanda" class="scored land rw" d="m1491.2 781.13c-0.53-1.1 2.22-2.96 2.19-4.41-0.05-2.56 1.1-3.67 3.28-4.93 0.27-0.16 1.57-0.99 1.91-0.72 0.46 0.36 0.64 1.59 1.38 0.77 0.58-0.64 2.48-3.47 3.55-3.1-0.5 1.46 0.76 3.31 1.43 4.4 0.83 1.36 1.68 3.69 1.46 5.25-0.28 1.96-1.4 2.21-3.06 1.58-1.87-0.71-2.33 1-3.94-0.43-0.24 1.77-0.09 3.7-2.23 4.14-1.09 0.23-2.1 0.37-2.64-0.72-0.58-1.2-2.14-1.1-2.26 0.33-0.68-0.64-1.01-1.22-1.07-2.16"/>
  <path id="senegal" class="scored land sn" d="m1140 632.09c-0.44-0.02-0.83 0.13-1.15 0.43-0.13-1.23 2.17-1.61 2.88-2.32a19.55 19.55 0 0 0 3.69-5.59c0.43-0.94 2.52-9.94 4.72-7.87 1 0.93 6.25 0 7.1-0.99 1.3-1.52 6.4 0.18 7.48 1.47 1.45 1.74 1.63 2.44 4.02 2.69 1.3 0.13 2.74 2.67 2.46 3.92-0.13 0.58 1.76 1.6 2.1 2.22 0.41 0.77 0.62 1.66 1.22 2.32 0.59 0.64 1.79 0.72 2.18 1.5 0.57 1.16 2.3 1.8 2.47 3.15 0.07 0.6-0.93 1.32-0.24 1.93 0.58 0.52 0.99 0.85 1.07 1.74 0.1 0.93 0.91 3.2 0.15 3.9-0.79 0.17-0.86 0.55-0.2 1.15 0.15 0.44 0.4 0.81 0.75 1.1 0.69 0.4 0.02 1.14 0.99 1.42 0.52-2.05 2.16 1.5 2.45 2.06 0.42 0.84 0.65 1.47 0.41 2.44-0.26 1.1 0.47 2.51 0.09 3.41-1.25-0.53-2.6 0.3-3.92 0.08-1.37-0.24-2.16 0.56-3.46 0.74-1.32 0.18-3.45-2.18-4.56-1.44-0.86 0.58-0.55-1.05-0.73-1.1-1.18-0.35-0.78-0.56-1.77-0.56l-12.64-0.02c-1.65 0-2.35 0.1-3.6 1.08-1.09 0.86-2.59 0.78-4.21 0.73-1.41-0.05-2.4 0.79-3.71 1-0.66 0.1-1.35-0.12-1.93 0.29-0.14-0.33-0.83-1.04-0.47-1.43 0.9-1 1.43-1.5 2.63-0.73 0.9 0.57 2.03-0.32 2.99-0.34 0.7-0.01 1.05 0.53 1.77 0.3 0.56-0.17 0.82-0.06 1.33 0.11 0.92 0.3 0.86-2.02 1.9-2.38-1.55 0.11-0.65 1.42-1.6 2.1-0.8 0.57-2.97-0.2-3.23-1.16-0.57 2.42-5.39 0.66-4.32-0.58-0.46 0.65-0.42 1.74-1.36 1.95-0.17-0.6 0-1.07 0.5-1.44-1.29 0.28-0.58-1.65-0.3-2.51 0.43-1.29 1.89-1.37 3.04-1.37l4.12-0.01c0.76 0.42-0.88-0.27 0.47-1.15 1.17-0.77 2.38-0.25 3.53-0.57 1.28-0.37 0.6-2.19 2.3-1.13 2.36 1.47 4.74 3.02 7.49 2.1 1.05-0.35 2.22-1.37 0.87-2.09-1.68-0.9-2.02 0.39-3.33 0.33-1.34-0.07-1-2.06-2.53-1.45-0.58 0.23-1.11-0.57-1.3-0.96-0.4-0.8-1.63-0.53-2.38-0.06-1.07 0.65-1.3-0.38-1.86 0.2-0.41 0.42-0.27 0.97-0.79 1.26l-7.5-0.04c0.3-0.62-0.3-1.04-1.04-1.12 0.12-0.6 0.5-0.84 1.08-0.57a3.08 3.08 0 0 1 0.14-1.8c-0.44 0.82-0.97 1.44-1.94 1.58-0.26-0.8 2.07-2.86 2.88-2.95-0.89-0.37-3.25 1.76-3.24 2.6 0-2.38-1.45-6.66-3.96-7.57"/>
  <path id="togo" class="scored land tg" d="m1269.8 663.19c1.48 0.39 3 0.54 4.4 1.17 1.15 0.5 2.94 0.2 3.79-0.2-0.59 1.66-1.84 4.48-0.5 6.08 0.75 0.91 3.52 1.94 3.64 3.17 0.18 1.84-0.23 3.98 0.7 5.66 1.06 1.89 1.57 3.17 1.53 5.41-0.07 3.9-0.05 7.77 0.05 11.67 0.02 0.61 0.2 2.93-0.87 2.9 0.36 1.12 0.16 2.4 0.7 3.48 0.43 0.88 1.08 1.7 1.17 2.7-1.59 0.15-3.18 0.87-4.61 1.52-0.01-0.74-1.86-1.67-2.35-2.11-1.05-0.95-1.87-1.6-2.54-2.82-0.9-1.66 0.86-3.29 0.8-4.98-0.03-1.13-1.28-1.24-1.06-2.33 0.28-1.31 1.02-2.05 0.85-3.49-0.1-0.76-0.25-1.55-0.01-2.31 0.15-0.48 0.82-0.91 0.66-1.44-0.44-1.48-1.94-2.13-2.47-3.49 1.67-0.16 0.56-2.53 1.06-3.6 0.28-0.6 0.34-1.6 0.04-2.19-0.57-1.14-1.42 0.1-2.25-0.04 0.46-0.63 0.01-1.39 1.08-1.22-0.23-1.2 0.61-3.23 0.21-4.22-0.69-1.71 0.54-1.9-1.22-2.9-0.92-0.52-2.2-2.3-2.1-3.4 0.1-0.85 0.9-1.4 0.56-2.32-0.14-0.37-0.97-0.39-1.26-0.7"/>
  <path id="gabon" class="scored land ga" d="m1338 767.23c-0.47-0.64-0.83-1.46-0.43-2.23 0.02 0.59 0.24 1.09 0.65 1.51 0.16-1.63 1.13-0.28 1.08 0.65 0.16-2 2.19-3.13 2.4-5.08 0.16-1.35-0.7-3.97 0.48-5 0.05 0.66 0.54 1.13 0.86 1.66 0.22-1.08 1.8-0.48 2.3 0.43-0.13-0.92 0.86-1.26 1.59-1.23-1.83 0-3.23-0.38-4.27-1.99-0.41-0.64-1.76-1.46-0.27-1.75 0.63-0.13 1.48 0.2 1.5 0.94 0.54-1.2-0.36-2.78-0.02-4.06 0.2-0.7 1.05-0.63 1.57-0.35 0.93 0.51 1.59-0.11 2.61-0.11l8.97 0.14-0.02-9.89c0.4-2.3 1.35-1.41 3.07-1.34 1.46 0.07 3.26 0.27 4.8 0.18 1.47-0.08 2.97 0.42 3.95 0.37 2.34-0.12 4.2-1.35 2.61 2.36-0.98 2.31 0.62 4.5-0.18 6.58 1.73-0.3 3.28-1.22 5-1.59 3.19-0.7 2.8 1.2 3.76 2.8 0.9 1.52 1.67 3.72-1.37 4.43-1.67 0.39-1.76 3.24-1.6 4.56 0.07 0.63-1.26 2.36 0.23 2.44 0.73 0.04 1.45 0.6 1.37 1.13-0.12 0.76 1.6 0.62 2.24 1.25 1.4 1.4-0.3 3.17-0.05 4.68 0.16 0.96 1.3 3.82-0.42 4.7 1.08 0.73 0.33 2.61-0.68 3.02-0.28 0.12-0.68 2.52-0.6 2.61 0.63 0.74-1.08 2.53-1.91 2.44-0.87-0.09-1.17-3.1-1.56-3.82-0.27 0.93-1.37 2.84-2.44 2.97s-2.33-1.2-3.4-0.59c0.73-2.83-4.68-7.3-3.91-2.58 0.45 2.76-0.63 2.8-3.21 3.04-0.83 0.08-0.6-0.62-1.4-0.56-1.07 0.08-1.3-0.02-2.35-0.26 0.39 1.42 0.66 2.96-0.28 4.25 1.04-0.37 1.75 0.21 1.7 1.25-0.04 0.9-0.22 1.66-0.1 2.12 0.44 0.43 0.98 0.43 1.26 0.85 0.62 0.95-0.1 1.08-0.02 1.89 0.07 0.66 0.48 1.57-0.7 1.63-1.23 0.07-1.26-0.99-2.16-1.54s-2.86 2.81-3.08 3.44c-1.66-1.3-3.1-4.01-4.25-5.76-1.69-2.57-4.23-4.63-6.42-6.76 1.22-0.75 1.62 2.02 2.74 0.64-0.8 0.08-1.97-0.93-2.84-1.15-1.42-0.34-2.44-3.6-3.35-4.75 0.91 0.08 1.24 1.08 2.1 1.3-0.78-1.25-0.92-0.95-2.03-1.6-0.5-0.3-0.35-1.18-0.47-1.63-0.3-1.08-1.08-1.94-1.62-2.9 0.7 0.58 2.1 1.85 1.87 2.89a5.72 5.72 0 0 1 2.24-0.36c-0.41-0.32-0.75-0.7-1-1.16-0.17 0.57-0.6 0.87-1.17 0.58 0.1-0.75 0.7-1.44 0.37-2.23-1.13 3.3-3.2-3.06-3.74-3.46"/>
  <path id="malawi" class="scored land mw" d="m1518.9 878.13c0.25-0.5 1.6-2.66 2.07-4.1 0.48-1.43 0.38-1.82 0.09-3.7-0.27-1.73 3.62-2.82 4.42-3.67-2.82-0.86-1.64-5.49-1.65-7.53 0-1.7 1.1-2.42 0.17-4.13-1.08-2 0.52-1.56 1.6-2.35 1.26-0.94 1.56-2.88-0.54-5.33-1.7-1.96 0.42-2.56-1.18-3.63-1.32-0.87-1.84-0.84-2.15-1.16-0.17-0.18 0.32-1.27-0.15-1.83 0.23 0.17 1.89 0.8 2.68 0.9 1 0.14 0.73 0.9 1.56 1 0.81 0.12 2.61-0.03 3.12 0.95 0.02 1.3 0.08 2.85 1.68 4.78 1.44 1.74 0.07 2.09 0.28 3.48 0.18 1.18 0.62 6.73 0.64 7.37 0.08 2.55-3.23 5.1-2.35 6.6 3.38 5.86 2.3 5.77 2.11 6.95-0.78 4.89 2.54 3.78 2.03 6-1.24 5.45 2.05 4.56 1.9 1.97l2.71 3.49c0.64 0.32 0.26-4.48-1.56-5.91-1.64 0.25-0.93-1.3-1.14-1.74 1.3 0.63 1.44 0.72 2.98 3.04 1.01 1.54 1.91 3.15 3.29 4.75 1.52 1.78 1.56 3.48 0.99 5.73-0.5 1.97 0.24 3.9-0.09 5.96-0.14 0.88-0.4 1.94-1.16 2.5-0.85 0.63-2.05 0.43-2.85 1.12-0.8 0.68-0.54 2.14-1.7 3.07a8.23 8.23 0 0 1 1.17 2.97c0.03 0.4 0.02 1.6-0.35 2s-1.79 0.3-1.58-0.43c0.43-1.57 1.17-1.14-0.48-2.72-1.12-1.07-4.19-4.09-4.34-5.29-0.27-2.1-0.83-1.61-0.4-3.25 0.18-0.75 0.64-2.35 1.18-3.06 0.85-1.13 0.7-1.44 0.84-2.86 0.16-1.67 0.17-3.88-0.97-5.54-0.45-0.65-1.8 0.24-3.01 0.39-0.99 0.11-2.45-0.17-2.5 0.75-0.57-0.62-4.37-5.06-4.6-4.97-0.98 0.4-3.02-1.78-2.76-2.57z"/>
  <path id="liberia" class="scored land lr" d="m1183.1 699.62c1.04-0.38 1.07-2.03 1.81-2.78 1.36-1.38 3-2.56 4.29-4 0.84-0.95 0.25-2.22 0.9-3.06 0.99-1.25 1.6-0.54 2.26-2.38 0.26-0.74 0-0.85 0.18-1.01-1.37-0.45 1.37-0.43 2.06-0.19 0.67 0.23 1.06-0.55 1.71-0.5 0.9 0.05 1.56 1.1 2.19 1.61-0.42 0.54-0.2 1.06 0.02 1.61 0.16 0.41-0.1 1.36 0.35 0.91 0.48 2.11 0.25 4.01-0.44 6.05 1.35-0.5 2.72-0.24 2.8 1.44 1.64-0.66 2.32-1.14 2.84-2.83 0.16-0.5 0.3-1.47 0.96-1.57 0.74-0.1 1.4 1.47 1.65 2.03 0.94 2.05 0.94 3.15 0.6 5.35-0.15 0.97-0.76 1.8-1.2 1.93-0.58 0.2-0.92 0.82-1.01 0.9 0.07 0.24 0.47 0.64 1.64 0.67-0.58 2.1 3.65 0.39 4.09 1.96 0.15 0.56-0.14 1.33 1.02 2.1 0.92 0.6 1.83 1.37 2.16 2.33 0.8 2.22 0.02 3.48-0.3 4.64-0.7 2.57-1.66 4.36-0.49 6.79-1.19 0.22-2.12-0.26-3.09-0.81-1.26-0.72-2.8-0.82-3.96-1.77-2.1-1.73-4.83-2.51-6.77-4.44-2.17-2.16-3.9-4.73-6.11-6.85-0.7-0.66-5.83-2.44-4.62-3.6-0.93 0.1-2.08-1.34-2.88-1.72-1.6-0.77-1.46-1.66-2.66-2.8"/>
  <path id="central-african-republic" class="scored land cf" d="m1380.6 707.25c0.49-0.8 1.22-1.32 1.93-1.9 1.1-0.9 1.2-1.95 1.91-3.08 1.2-1.94 2.03-4.83 3.38-6.67 1.68-2.28 1.95-0.72 4.1-1.35 1.13-0.32 2-0.56 3.1-0.9 1.08-0.35 0.79-1.53 1.93-1.94 0.3 1.21 1.25 1.9 1.94 2.88 0.6-1.2 2.45-1.78 3.01-2.2 1.79-1.36 4.59-1.91 6.72-1.91 1.87 0 3.7 0.52 4.62-1.2 0.64-1.22 3.26-3.38 3.12-4.55-0.08-0.72-1.69-0.53-1.76-1.46-0.1-1.42 4.25-1.45 5.39-1.44 3.56 0.06 7.47-1.33 9.8-4.22 1.21-1.51 1.97-3.14 3.55-4.31 0.8-0.6 3.03-2.62 2.58-3.55-0.56-1.16 0.36-2.33 1.77-2.67 1.6-0.39 2.83-2.39 4.68-2.43 2.25-0.05 2.76 1.4 3.76 2.6 1.55 1.9 3.25 3.3 4.17 5.32 0.9 1.96 0.96 3.74 0.84 5.8-0.12 2.05-1.9 2.33-1.63 3.84l0.79-0.29c0.21 0.8-0.23 1.52-0.5 2.23 1.6 0.3 3.48-0.12 4.96 0.7 1.6 0.88-1.02 3.16 1.98 3.67 1 0.17 2.39 0.06 3.25 0.7 1 0.76 1.5 1.6 2.59 2.4 1.68 1.26 0.39 2.23 0.37 2.86-0.03 1.06 1.47 1.82 2.28 2.3 0.88 0.53 1.85 1.1 2.76 1.57 1.78 0.9 1.24 1.4 1.89 2.44 0.46 0.73 2.44 1.1 1.9 2.18-0.73 1.45-0.14 1.7 0.75 2.53 0.82 0.76-0.1 1.4 1.3 2.31 0.88 0.59 1.77 0.88 2.75 1.38 1.57 0.8 2.16 1.76 2.09 3.47-0.07 1.6 1.02 2.47 1.51 3.82-1.26-1.37-2.94-1.92-4.06-0.76-0.47 0.5-1.45 0.37-2.03 0.31-0.29-0.1-0.56-0.07-0.82 0.06-0.65 0.33-0.89-0.29-1.38-0.48-1-0.39-1.82-1.2-2.89-0.9-2.12 0.6-2.2-0.8-3.55-1.01-0.86-0.14-1.46 0.42-1.3 1.28 0.28 1.4-1.38 1.61-2.35 1.92-0.98 0.3-2.32 0.75-3.23 0.1-0.48-0.36-1.55-1.9-1.83-0.94-0.4 1.31-3.08 2.18-4.2 2.39-2.08 0.38-3.41 2.32-4.3 1.37-0.98-1.09-2.1-2.65-3.74-0.73-0.5 0.59-0.45 1.47-0.84 2.1-0.52 0.88-0.63 2.07-1.57 2.71-1.3 0.9-4.38-1.06-6-1-0.96 0.04-1.14 0.32-2.25-0.05-1.14-0.38-1.53 0.17-2.32-0.8-0.8-0.99-2.46-0.16-3.57-0.36-1.4-0.25-1.42-2.17-2.2-2.93-1.36-1.31-3.4-2.23-4.7-3.02-1.83-1.11-4.44 1.2-5.37 2.8-0.53 0.9-1.29 1.81-1.65 2.8-0.28 0.77-1.39 0.64-1.68 1.07-0.46 0.7 0.71 2.15 0.62 2.97-0.12 1.18-0.24 1.7-0.18 4.35-1-1.65-3.52-0.22-5.22-0.48-0.76-0.1-2.07-0.73-2.77-1.05-1.36-0.63-2.48 0.65-3.86 0.92-2.04 0.4-3.66-0.3-4.1 2.22-0.25 1.36-0.11 2.84-0.36 4.16-0.33 1.77-1.53 3.48-2.13 5.18a36.32 36.32 0 0 1-0.96-5.76c-0.14-2.02-2.28-1.92-3.34-3.1-0.52-0.58-5.95-6.92-3.47-6.98-1.28-0.91-1.02-2.9-2.34-3.93-1.7-1.34-1.46-3.26-1.53-5.26-0.03-0.75-1-1.27-0.98-1.77 0.04-0.74 0.47-1.5 0.52-2.28 0.06-0.86 0.06-1.78-0.18-2.6-0.23-0.79-1.18-0.43-1.47-1.45"/>
  <path id="zimbabwe" class="scored land zw" d="m1461.9 913.68c0.97 0.22 1.92 0.43 2.9 0.07 0.94-0.34 1.4 1.07 2 1.46 0.67 0.43 1.82-0.63 2.47-0.73 0.84-0.13 2.09 0.81 2.8 1.12 2.1 0.9 3.37-1.01 4.5-2.54 1.51-2.04 3-3.94 4.08-5.76 0.52-0.87 1.24-1.22 2.02-1.83a14.28 14.28 0 0 1 3.48-1.88c2.46-1.02 2.9-1.32 3.05-4.11 0.07-1.37 2.37-3.07 3.61-3.56 1.17-0.46 2.59-1.1 3.84-1.14 1.52-0.06 3.05 0.42 4.56 0.04 0 2.86-0.25 3.14 2.93 3.14 1.98 0 3.08 0.48 5.03 1.27 1.08 0.43 3.59 1.9 4.6 2.44 1.48 0.79 3.96 0.45 4.55 1.7 0.43 0.92 1.18 0.99 2.05 0.73-0.22 1.33-1 2.1-0.38 3.46 0.73 1.61-0.18 2.8 0.32 4.3 0.48 1.47-0.61 3.1-0.3 4.7 0.21 1.1 0.88 2.01-0.1 2.89-0.71 0.64-0.06 2.14-0.48 2.38-1.03 0.58-1.3 0.5-1.7 1.78-0.17 0.58 0.78 0.79 1.07 1.04 0.23 0.22 0.03 1.07 0 1.31-0.1 0.6-0.58 0.91-0.74 1.45-0.13 0.42 0.52 2 0.65 2.47l0.72-0.3c-0.08 1.58 0.55 2.2-0.4 3.8-0.77 1.28-1.26 3.4-2.68 4.08-1.56 0.73-0.37 1.72-0.66 2.93-0.36 1.48-1.51 2.34-0.36 3.82-1.2-0.87-6.6 7.13-7.6 7.76-0.95 0.6-1.43 1.94-1.82 1.93-0.85-1.76-4.2-1.03-5.89-1.02-1.47 0-2.83-0.57-4.2-1.04-3.12-1.08-4.08-0.31-4.25-0.52-0.83-0.99-0.93-0.5-1.88-1.02-1.05-0.57 0-1.5-0.33-1.94-1.5-1.95-7.1-0.7-7.94-2.75-0.82-2.01-2.42-3.93-1.73-5.93 0.94-2.75-0.42-3.38-3.17-2.82 0.5-2.6-0.19-3.66-2.6-4.38-1.9-0.57-4.46-2.7-5.53-4.36-1.63-2.54-1.66-5.72-3.61-8.18-0.85-1.07-3.58-4.83-2.88-6.26"/>
  <path id="benin" class="scored land bj" d="m1277 666.86c0.34-0.78 0.42-1.97 0.97-2.57 0.51-0.56 0.68-0.47 1.16-0.96 0.98-1.02 2.56-3.9 3.87-2.54 0.41 0.42 4.49-0.6 5.28-1.98 0.5-0.89 1.19-2.08 1.17-3.14-0.01-0.65-0.83-2.13 0.21-2.35 0.65-0.14 1.57 0.04 1.85-0.38 1.04-1.53 2.36 0.15 3.13 1.02 0.55 0.62 0.88 1.14 1.42 1.78 0.64 0.74 1.51 1.49 2.15 2.37 0.35 0.5-0.43 1.72-0.54 2.21-0.26 1.13 0.8 2.06 1.35 2.9 0.65 0.99 0.13 2.01 0.55 2.92 0.5 1.1 1.14 1.92 0.44 3.1-0.37 0.62-1.19 0.04-1.44 0.75-0.37 1.09 1.15 1.86-0.18 3.35-0.6 0.67-1.43 0.86-1.87 1.64-0.4 0.72-0.55 1.45-1.14 2.2-1.15 1.41 0.6 3.37-1.84 3.97-0.82 0.2-1.32-0.17-1.47 0.78-0.13 0.89-0.61 1.73-0.56 2.62 0.11 2.19 0.08 4.37-0.08 6.54-0.07 0.95 0.9 2.86 0.74 4.22-0.14 1.2-0.17 2.24-0.34 3.28-0.27 1.55 0.31 2.18 0.2 3-0.13 0.92-0.71 2.29-0.6 2.92-1 0.02-2.72 0.24-3.7 0.44-1.53 0.3-3.06 0.58-4.6 0.79 0.36-0.33 0.79-0.5 1.29-0.5-0.07-0.78-0.6-1.61-0.99-2.27-0.6-1.02-0.75-2.73-0.91-3.87 0.15-0.02 0.97-0.26 0.86-2.35-0.2-3.82-0.03-7.7-0.04-11.55-0.01-2.18-0.1-3.83-1.32-5.68-1.15-1.75-0.78-3.8-0.84-5.75-0.05-1.53-2.35-2.26-3.48-3.32-1.06-0.99-0.78-2.35-0.7-3.59"/>
  <path id="eritrea" class="scored land er" d="m1547 628.49c1.2-1.09 1.13-2.78 1.57-4.22 0.47-1.55 1.12-3.06 1.68-4.6 0.51-1.4-0.94-7.23 1.3-7.54 0.46-0.06 2.13 0.27 2.4-0.17 0.73-1.22 0.17-2.15 1.6-2.6 1.17-0.38 2.5-1.29 3.72-1.76 1.78-0.71 1.85-2.55 3.13-3.74a58.03 58.03 0 0 1 4.97 13.65c0.27 1.16 0.25 2.3 0.78 3.4 0.57 1.2 1.12 2.13 1.35 3.44 0.16 0.88 1.28 0.96 1.52 1.9 0.23 0.87 0.4 2.36 1.18 2.96 0.96-0.68-0.61-3.27 0.39-3.43 0.98-0.17 1.56 1.07 1.63 1.8 0.07 0.85 0.68 2.31 1.5 2.69 1.16 0.53 1.9-1.04 3.08 0.28 0.98 1.1 1.1 1.9 2.67 2.12 1.83 0.25 2.52 1.65 3.5 3.1 0.93 1.4 1.75 2.81 3.2 3.73 0.7 0.44 1.3 0.97 1.89 1.54 0.29 0.29 1.7 2.22 1 0.48 0.96 0.62 0.96 1.98 1.26 2.95 0.27 0.84 1.2 0.6 1.75 1.18 0.52 0.55 2.61 4.44 3.4 2.5 0.78 0.73 1.17 1.07 0.72 1.61-1.15 0.54-2.07 1.29-2.1 1.93-0.06 2.22-1.81-0.96-3.79 0.6 0.24-0.56-0.33-2.33-2.49-3.8-1.9-2.86-3.11-4.85-4.27-5.15-2.06-0.56-2.73-3.1-3.96-4.8-1.34-1.84-3.33-1.93-5.03-3.24-1.6-1.23-2.54-0.2-4.01-0.65-1.16-0.34-3.16-1.43-4.3 0.03-0.03-0.9-1.83-2.68-1.44-2.06 0.19 0.3-1.28 1.9-2.36 1.97-0.7 0.04-2.2 0.25-2.94-0.85-1.34-2.02-1.78-0.37-3.35-2.95a55.2 55.2 0 0 1-2.37 6.77c-0.48-0.69-1.74-3.25-2.92-2.62-0.73 0.4-0.64 1.14-1.68 1.06-2.85-0.22-2.8-0.34-3.55 1.45a50.53 50.53 0 0 1-0.68-8.78"/>
  <path id="eswatini" class="scored land sz" d="m1501 990.66h0.18c0.96 0.94 0.85 0.77 1.63 1.74 0.66 0.84 0.74 1.22 1.45 1.92 0.88 0.87 2.8 2.08 4.33 0.85 0.67-0.54 0.35-0.57 0.77-1.38l0.9-1.76h1.28l-0.03-0.5c-1.55-6.18 0.36-2-1.1-6.01-0.8-0.86-1.83-1.81-2.56-2.14l-2.4-0.1c-0.8 1.03-1.44 1.15-2.15 2.24-0.41 0.62-0.57 1.1-0.77 1.53s-0.96 3.2-1.53 3.61z"/>
  <path id="gambia-the" class="scored land gm" d="m1143.6 643.9c1.41-1.12 1.21-1.05 1.92 0.5 0.54 1.2 2.21-0.4 3.05 0.21-1.8-0.92 3.7-1.46 4.03-1.65a10 10 0 0 0-4.44 0.55c-1.14 0.5-1.79 0.82-2.5-0.49-0.64-1.17 0.64-1.19 1.45-1.13 2.14 0.16 4.3 0.06 6.45 0.06 0.55 0 0.32-1.73 1.59-1.37 1.02 0.3 2.01-0.96 3.06-0.4 0.53 0.27 0.66 0.96 1.18 1.27 0.5 0.3 0.98-0.25 1.51 0 0.56 0.27 0.39 1.12 1 1.38 0.67 0.28 1.5-0.25 2.11-0.43 0.73-0.22 2.48-0.07 2.37 1.05-0.1 1.03-1.76 1.4-2.57 1.51-3.41 0.5-7.03-3.44-7.52-2.5-0.58 1.09-0.72 1.45-2.84 1.42-0.75-0.01-2.81 0.44-2.36 1.58 0.1 0.22-6.68-0.54-6.96 1.06a4.3 4.3 0 0 1-0.53-2.63"/>
  <g id="included-islands" stroke-width="0">
   <g id="seychelles" class="scored land coast sc" transform="matrix(7.5938 0 0 7.5938 -11170 -5277)">
    <path id="seychelles-outline-origin" d="m1695.2 799.51v2.011h-2.1066v-0.56444l1.5395-3e-3v-1.444z" fill-opacity="0" stroke="#b9b9b9" stroke-linecap="square" stroke-width=".05947"/>
    <rect id="seychelles-outline" x="1691" y="797.22" width="3.5648" height="3.7346" fill-opacity="0" stroke="#b9b9b9" stroke-linecap="square" stroke-width=".16519"/>
    <path d="m1693.5 800.08c0.104-0.91-0.26-2.041-1.404-1.781 0.689 0.364 1.235 1.001 1.404 1.781" stroke-width="0"/>
   </g>
   <g id="cabo-verde" class="scored land coast cv" transform="translate(-29.9,-45.07)">
    <path id="cabo-verde-outline-origin" d="m1132.5 633.93h18.705v19.595h-5.2499l-0.023-14.32-13.432 0.0231z" fill-opacity="0" stroke="#b9b9b9" stroke-linecap="square" stroke-width=".45599"/>
    <rect id="cabo-verde-outline" x="1094.4" y="639.21" width="51.486" height="53.938" fill-opacity="0" stroke="#b9b9b9" stroke-linecap="square" stroke-width="1.2544"/>
    <g stroke-width="0">
     <path d="m1104.2 656.67c2.4637 0.2025 8.1-3.4762 6.9187-6.48-1.9575-4.9612-10.868 1.5188-6.9187 6.48"/>
     <path d="m1108.5 658.38c7.0875-0.6075-2.7-6.4462 0 0"/>
     <path d="m1114.7 683.54c1.89-0.675 3.78-4.7925 1.5525-6.1425-3.8475-2.3625-5.2313 4.05-1.5188 6.1425"/>
     <path d="m1115.1 661.51c0.675-5.5688 5.805-0.10125 7.5263-3.1725-2.9025-1.3162-6.7163-3.105-9.9563-1.9238 0.9788 1.62 1.7888 3.3075 2.43 5.0962"/>
     <path d="m1126 683.88c3.8812-4.1512-2.565-8.775-4.3875-12.15-1.9238 4.9612-2.9363 11.948 4.3875 12.15"/>
     <path d="m1128.8 678.92c7.02-7.1888-6.885-4.3875 0 0"/>
     <path d="m1133.5 668.56c6.885-2.7338 0.9112-6.3112-2.43-7.5262 0.135 3.0375-2.8013 7.5938 2.43 7.5262"/>
     <path d="m1132.3 660.67c1.5863-2.3288 1.08-4.9612 0.5063-7.5262-2.7 2.1938-0.54 4.86-0.5063 7.5262"/>
    </g>
   </g>
   <g id="mauritius" class="scored land coast mu" transform="matrix(2.25 0 0 2.25 -2129.7 -1168.6)">
    <rect id="mauritius-outline" x="1690.7" y="934.4" width="11.744" height="12.303" fill-opacity="0" stroke="#b9b9b9" stroke-linecap="square" stroke-width=".55753"/>
    <path id="mauritius-outline-origin" d="m1697.6 932.61h6.625v6.9404h-1.8595l-0.01-5.0721-4.7573 8e-3z" fill-opacity="0" stroke="#b9b9b9" stroke-linecap="square" stroke-width=".20071"/>
    <path d="m1697.4 937.7c-0.53 0.55-3.04 4.26-1.3 4.47 2.79 0.34 3.14-4.87 1.3-4.47" stroke-width="0"/>
   </g>
   <g id="sao-tome-and-principe" class="scored land coast st" transform="translate(-39.146 -39.869)">
    <path d="m1342.2 807.75c2.295-1.2488 4.725-3.2062 5.535-5.805 0.405-1.35 0.2025-5.8388-2.3625-5.13-5.805 1.62-3.8475 6.75-3.1725 10.935" stroke-width="0"/>
    <path d="m1350.7 792.62c1.08-1.62 1.1813-3.3412 0.3038-5.0625-2.025 1.3838-2.1263 3.4425-0.27 5.0625" stroke-width="0"/>
    <path id="sao-tome-and-principe-outline-origin" d="m1348.9 774.83h18.705v19.595h-5.2499l-0.023-14.32-13.432 0.0231z" fill-opacity="0" stroke="#b9b9b9" stroke-linecap="square" stroke-width=".45573"/>
    <rect id="sao-tome-and-principe-outline" x="1329.4" y="779.88" width="33.158" height="34.737" fill-opacity="0" stroke="#b9b9b9" stroke-linecap="square" stroke-width="1.2544"/>
   </g>
   <g id="comoros" class="scored land coast km" transform="translate(-29.9,-45.07)">
    <path id="comoros-outline-origin" d="m1642.1 917.36h-18.705v-19.595h5.2499l0.023 14.32 13.432-0.0231z" fill-opacity="0" stroke="#b9b9b9" stroke-linecap="square" stroke-width=".45573"/>
    <rect id="comoros-outline" x="1628.7" y="877.35" width="33.158" height="34.737" fill-opacity="0" stroke="#b9b9b9" stroke-linecap="square" stroke-width="1.2544"/>
    <g stroke-width="0">
     <path d="m1639.1 901.35c1.485-1.35 0.5737-3.9488-0.034-5.4675-1.5188-3.78-0.5738-7.3238-1.6875-11.07-4.6575-0.135-2.6325 6.0075-3.6788 8.6738-1.62 4.185 3.375 5.2988 5.4 7.8638"/>
     <path d="m1646.6 906.91c-0.81-2.3625-2.97-4.185-5.6025-3.6788 0 3.375 3.2062 3.1725 5.6025 3.7125"/>
     <path d="m1654.4 907.38c2.8688-7.425-2.835-4.6238-7.29-5.8388 2.4975 1.8562 5.2313 3.4425 7.29 5.8388"/>
    </g>
   </g>
  </g>
  <g id="excluded-islands" opacity="0">
   <path id="mayotte" class="no-score land coast yt" d="m1613.4 871.99c0.47-0.64 1.08-2.02 0-2.45-0.28 0.56-0.41 1.92 0 2.45"/>
   <path id="madeira" class="no-score land coast pt-30" d="m1151 477.14a3.52 3.52 0 0 1-1.83-1.04c-0.4-0.4 0.36-1.03 0.79-0.58 0.56 0.6 1.36-0.35 2 0.37 0.7 0.8-0.14 1.45-0.96 1.25"/>
   <path id="reunion" class="no-score land coast re" d="m1689.5 941.26c-0.11-1.99-3.99-0.81-3.55 1.09 0.67 2.86 6.03 3.1 3.55-1.1"/>
   <path id="st-helena" class="no-score land coast sh" d="m1220.3 908.36c0.31-0.49 0.34-1 0.08-1.51-0.6 0.41-0.63 1.03-0.08 1.5"/>
   <g id="canarias" class="no-score land coast es-cn" transform="translate(-29.9,-45.07)">
    <path d="m1170.1 565.49c-1.08-0.72-0.22-1.85 0.86-1.51-0.2 0.55-0.5 1.05-0.86 1.5"/>
    <path d="m1172.1 557.78-0.65 0.44c-0.1-0.74-1.45-2.75-0.07-3.03 1.54-0.3 1.26 1.82 0.72 2.6"/>
    <path d="m1175.8 562.32c-0.73-0.45-0.77-1.8 0.36-1.58 1.18 0.23 0.45 1.47-0.36 1.58"/>
    <path d="m1179.9 562.54c-0.6-1.02-0.91-2.16-1.51-3.17 2.17-0.51 3.82-1.19 5.9-2.02-0.75 1.6-2.66 4.54-4.4 5.19"/>
    <path d="m1187.9 564.7c-1.78-0.26-2.08-3.15-0.25-3.56 2.82-0.62 1.96 2.76 0.25 3.56"/>
    <path d="m1197.3 561.96-0.65-0.43c2.13-0.7 2.4-3.97 3.94-5.44 0.98-0.93 0.46 2.7 0.32 3.07-0.66 1.68-2.46 1.65-3.61 2.8"/>
    <path d="m1201.8 555.12-0.72-0.29c0.3-0.65 2.62-3.68 3.16-2.19 0.45 1.25-1.81 1.83-2.44 2.48"/>
   </g>
  </g>
  <path id="sudan" class="scored " d="m1533 665.86c0.86-1.09 1.86 1.32 1.83 2.53 0.6-0.66 2.53-3.2 2.24-4.25a5.6 5.6 0 0 1-0.16-2.87c0.46-1.7 0-4.07 1.54-5.04 1.46-0.91 2.1-4.15 3-5.59 0.93-1.46 2.12-0.42 3.55-0.62 0.95-0.13 0.53-3.3 0.54-3.97 0.05-1.89 1.42-3.33 1.73-5.14 0.39-2.2 0.62-4.72 0.37-6.93-0.2-1.76-0.99-4.23-0.28-5.94 0.91-2.2 1.16-4.47 2.1-6.67 0.36-0.87 0.8-1.86 1-2.8 0.22-1-0.55-1.7-0.37-2.7 0.19-1 0.74-2.77 1.67-3.32 0.68-0.4 2.6-0.06 2.86-0.98 0.5-1.77 0.29-1.92 2.26-2.66 1.08-0.4 3.15-1.42 3.85-2.31 0.5-0.65 1.65-2.39 1.54-3.24-0.16-1.35-2.39-0.93-2.45-2.16-0.94 0.83-3.5-3.55-4.91-3.79-2.43-0.4-3.17-5.08-3.27-7.11-0.15-2.9-1.02-5.53-0.64-8.38a7.4 7.4 0 0 0-0.73-3.78c-0.7-1.58 0.66-2.37 1-0.81-0.09-2.05-2.43-3.32-3-5.22-0.68-2.3 0.3-3.2-1.82-4.69-1.6-1.11-2.6-3.18-4.27-4.05-1.87-0.98-3.4-1.75-3.9-3.96-0.68 0.68-2.48 3.35-3.55 2.79-1.42-0.74-1.88 1.12-2.19 1.98-0.58 1.65-1.1 2.57-2.9 2.88-1.8 0.3-2.18 0.73-2.55 2.52-0.81 3.92-4.69 0.92-6.55-0.09-1.61-0.87-4.42-0.25-6.18-0.18-2.3 0.1-4.2 0.21-6.47-0.18 0.18-0.6-0.29-3.4-1.17-1.66-0.93 1.85-2.6 1.66-4.45 1.66h-43.18c0.19 5.75 0.27 11.55 0.36 17.3h-7.79c0.6 12.37 0.51 24.72 0.51 37.1-1.24-0.38-2.03-0.82-3.27-0.18-1.02 0.54-1.96-0.06-3 0.45-2.42 1.2 0.15 3.03-1.36 4.96-1.22 1.54-1.43 3.2-3.18 4.14-1.11 0.58-0.05 3.31 0.63 3.96-2.52 2.01-4.08 2.64-2.27 6.04 0.69 1.29-0.22 1.86-1.27 2.6-1.13 0.8-1.32 1.85-1.82 3.07 0.98 2.64 2.8 0.13 4.45 1.08 0.98 0.57-0.44 1.49 0 2.25 0.55 0.94 0.08 3.28-0.22 4.35 0.26-0.13 1.23-1.36 1.5-1.46 0.78 1.25-0.65 2.69 0 3.96 0.63 1.27 2.26 1.42 2.81 2.34 0.81 1.35-0.87 2.56-0.27 3.87 0.62 1.36 1.68 2.39 2.73 3.43 1.86 1.85 2.88 3.2 2.9 5.86l-0.62 2.98 5.97-2.45 5.71-9.81 5.68-0.77 3.35 6.9 1.8 1.02 3.36-1.02 6.2-0.26 2.05 1.54 4.13 0.5 1.8-3.06h2.85l0.51-2.81 3.36-1.79 6.19 4.35 2.83-0.26 5.94-7.41 3.1-3.32-2.33-6.9 7.74-2.05v11.25l6.2 4.85v4.86l4.56 3.98c1.82-2.64 0.95-7.27 2.09-8.7z"/>
  <path id="south-sudan" class="scored " d="m1531 674.33c-0.58 1.8-0.6 3.68-0.45 5.55 0.17 2.29 1.2 6.53-2.3 6.9-1.06 0.12-2.25-0.31-3.38-0.27-1.73 0.08-1.04 0.86-1.28 2.28-0.2 1.15-2.36 2.17-0.46 3.27 1.24 0.72 2.87-0.1 4.14 0.63 1.3 0.75 2.19 1.77 2.82 3.2a8.43 8.43 0 0 0 2.65 3.27c1.04 0.79 1.46 1.87 2.57 2.54 1.3 0.78 0.94 2.63 1.55 3.82 0.73 1.41 0.82 3.03 1.56 4.46 0.28 0.53 0.64 1.32 1.19 1.63 0.66 0.37 0.37 1.2 0.92 1.73 0.85-1.09 1.56-0.84 2.56-0.73 1.13 0.13 0.8 0.97 1.1 1.73 0.34 0.87-0.28 1.94-0.28 2.82 0 1.11 0.64 1.74 1.28 2.55-3.56 0-7.97-0.63-11.44 0.18-2.2 0.51-4.05 4.02-5.5 5.73-0.26 0.31-1.3 1.77-1.83 1.64-0.74-0.2-1.7 0.15-2.38-0.28-0.6-0.39-0.86-0.7-1.64-0.54-1.23 0.23-6.36 0.95-5.86 2.9-1.35-0.48-1.54-0.96-2.3-2-0.56-0.77-1.7 0.2-2.28 0.46-1 0.45-1.6-0.71-2.47-0.9-1.43-0.33-2.85 1.53-3.3 2.63-0.16-1.28-1.27-1.33-2.29-1.1 1.13-2.45-2.67-3.16-3.94-4.54a24.9 24.9 0 0 1-1.55-1.9c-0.54-0.73-0.44-1.54-1.2-2.19-2.29-1.98-2.1 2.17-4.02 2-1.91-0.17-2.25-2.28-4.03-0.55-1.24 1.2-2.02 1.7-3.57 0.73a4.25 4.25 0 0 1-1.28-1.27c-0.42-0.83-1.46-0.48-1.93-1.64a4.25 4.25 0 0 0-1.92-2.36c-0.71-0.42-1.1-1.62-1.65-2.28-0.74-0.9-0.36-2.04-0.45-3.09-0.14-1.6-1.94-1.94-3.03-2.73-1.24-0.9-2.84-1.16-2.84-2.72 0-0.67-0.85-0.98-1.19-1.46-0.6-0.86 0.5-1.54 0.18-2.36-0.28-0.73-1.45-1-1.92-1.64-0.64-0.88-0.32-1.4-1.37-2-2.04-1.17-4-2.05-5.59-3.82-0.55-0.62 0.46-1.34 0.46-2 0-1.02-0.66-1.21-1.46-1.55-0.9-0.37-0.86-1.21-1.47-1.82-0.57-0.56-1.43-0.7-2.2-0.81-1.11-0.18-3.57-0.08-3.57-1.73 0-0.47 0.73-1.71 0.37-2.1-0.99-1.05-4.08-0.66-5.4-0.9 0.27-0.72 0.76-1.47 0.55-2.28-0.27 0.1-0.56 0.27-0.83 0.37-0.23-1.2 0.4-1.44 1.01-2.28l-0.1-1.83 5.57-2.8 5.75-9.91 5.72-0.78 3.38 6.97 1.82 1.03 3.37-1.03 6.24-0.26 2.08 1.55 4.15 0.51 1.82-3.1h2.86l0.52-2.83 3.38-1.8 6.23 4.38 2.86-0.26 5.98-7.48 3.11-3.36-2.33-6.96 7.79-2.07v11.36l6.24 4.9v4.9l1.81 1.03z"/>
 </g>
</svg>
