<svg xmlns="http://www.w3.org/2000/svg" style="width:75%" id="Layer_1" width="850" viewBox="0 0 1200 1230">
  <style id="style_css_sheet">
    .circle,.land{fill:#f9db8e;fill-opacity:1;stroke-opacity:1;stroke-width:.5;stroke-miterlimit:3.97446823;stroke-dasharray:none}.circle{opacity:0;stroke:#000}.land{stroke:#fff}.coast{stroke-width:.3}
  </style>
  <g id="g22346" transform="matrix(1.59434 0 0 1.59434 -1721.78 -693.26)">
    <path id="bf" stroke-miterlimit="3.97" stroke-width="1.25" d="M1228.88 669.24c.53-1.39 1.01-2.99.7-4.47-.36-1.61.62-.65 1.23-1.86.38-.75 1.23-3.03.34-3.72-.6-.46.59-1.5-1.2-1.98.84.05 1.36-.6 2-1 1.03-.62 2.5-.1 3.58-.76 1.3-.8 2.88-3.89 1.73-5.25-.55-.65.25-1.08.96-1 1.1.13 1-.86.85-1.72-.11-.56-1.22-1.4-.26-1.73.75-.26 1.77-2.36 2.24-3-.06 1.26 2.92 2.77 3.96 2.87-.25-1.2.53-1.04 1.5-1-.12-1.1.42-2.6-.14-3.6.8.15 1.65.2 2.38.64 1.09-1.64.96-5.23 3.79-5.53 1.4-.14 3.13 2.08 3.4-.4.15-1.33 1.62-1.16 2.53-1.63 1.17-.61 2.08-1.5 3.3-2.09 1.48-.7 4.17-4.33 6.23-2.47.39.35 1.35-.47 1.98-.27.86.26 1.73.56 2.54.95 1.24.6-1.05 3.77.86 4.81 1.18.64.26 2.64 1.14 3.54.5.5 1.51 1.54 1.35 2.2.94.38 3.4 2.04 4.99 3.27-.72.35-1.36.33-2.01-.15-.98 2.5 2.3 5.38 4.28 6.32 1.59.75 2.48-1.14 3.61-.81.93.27 1.1 1.74 1.47 2.48-2.53.87-.42 2.32.51 4.06 1 1.86-1.4 4.55-3.22 4.67-.45.02-2.2.53-2.52.27-.9-.71-1.1-.35-1.84.32-1.47 1.32-2.3 3.06-4.19 3.33-2.9.41-3.41-.5-5.13-.83-.82-.15-1.6-.42-2.45-.43-.76-.01-2.72 1.94-3.28 1.7-1.36-.6 1.63-.65-8.57-.62-3.39.01-5.4.24-8.12 0 .33 1.55-1.17 2.36-.75 3.3.58 1.29.86 2.3 1.09 3.65.2 1.14.3 2.57.17 3.85-.12 1.13.76 2.48-.02 3.09-1.26-.94-2.45-3.2-3.3-4.54-.73 1.07-3.63-.21-4.76.22-1.22.47-3.8.84-3.82 2.59-.77-.13-3.5-1.27-3.97-1.86-.45-.55-.91-.84-1-1.28-.16-.86-.96-2.5-1.58-2.84-1.04-.57-2.2.27-2.58-1.3" class="land bf" data-abre="BF" data-code="BFA" data-country="Burkina Faso"/>
    <path id="ly" stroke-miterlimit="3.97" stroke-width="1.25" d="M1342.42 499.68c-.97-.83 1.1-1.8 1.63-2.05 1.6-.75 2.47-1.18 3.44-2.75.78-1.27 1.56-1.89 1.26-3.52-.26-1.4-.93-2.82-.79-4.3.2-2 2.64-1.49 3.03-2.93.42-1.56 1.7-2.36 3-2.98.99-.47 4.23-1.36 4.25-2.73.02-.7-.66-1.12-.59-1.85.13-1.35.18-2.7.32-4.04 1.29.9 3.03 1.36 4.41 2.21 1.46.9 3.12 1.2 4.81 1.02 1.72-.19 2.98-1.28 4.75-.64 1.57.57 3.23.63 4.76 1.28 1.37.58 2.47 1.63 3.84 2.17 1.2.47 2.82-.02 3.9.72 1.26.87 1.5 2.37 1.74 3.77a7.1 7.1 0 0 0 2.41 4.43c2.53 2.18 5.65 1.67 8.68 2.22 3.05.55 7.4 1.94 9.83 3.91 1.96 1.59 3.76 4.26 6.55 4 3.23-.29 6.68-3.13 7.4-6.37.33-1.5-.68-2.65-1.14-4-.5-1.49-.87-3.2-.37-4.73.94-2.82 5.58-6.32 8.53-6.42 1.52-.05 2.4-1.15 3.82-1.26 1.44-.1 2.97-.14 4.38.2 1.64.41 3.07 1.2 4.63 1.81 1.84.73 1.35.98 1.44 2.6.08 1.3 2.19 1.58 3.13 1.65 1.83.14 3.02.97 4.7 1.46 1.69.48 3.45-.08 5.15.23.97.18 2.43 2.1 2.08 3.12-.36 1.06-1.66 1.34-1.84 2.54-.26 1.66.8 2.89 1.1 4.43.32 1.74-.8 3.28-1.39 4.79-.62 1.6 1.02 3.5 1.3 5.16.46 2.83.96 5.5 1.14 8.4l1.78 75.28H1452c.07 1.44.01 2.88.14 4.32l-59.65-33.76-13.53 6.48c-1.15.31-2.55-1.56-3.22-2.22-2.79-2.79-5.82-3.35-9.54-4.2-1.33-.3-3.06-.46-4.25-1.19-.93-.58-1.38-2.22-1.77-3.17-1.13-2.8-2.52-3.55-5.25-4.58-.91-.34-1.78-1.11-2.77-1.09-.97.03-2.02 1.1-2.93.12-.74-.8-2.02-2.85-2.04-3.96-.04-2.32-.27-3.16-1.54-5.14-.98-1.52-4.24-4.22-2.84-6.24 1.62-2.33 4.1-1.44 3.04-5.27-.54-1.91-.92-3.38-.26-5.33.56-1.66.9-3.04.28-4.76-.65-1.8-.15-3.62.02-5.46a15.4 15.4 0 0 0-.86-6.44 19.73 19.73 0 0 0-2.62-4.94" class="land ly" data-abre="LY" data-code="LBY" data-country="Libya"/>
    <path id="path2622" fill="#f9db8e" stroke="#fff" stroke-miterlimit="3.97" stroke-width=".3" d="M1595.5 950.54c.57 2.4-.65 5.33 1.06 7.43.83 1.03.82 2.18 1.25 3.37.39 1.1 1.49 1.26.4 2.5-1.06 1.22-.9 5.18-.2 6.62.63 1.31 1.27 2.29 1.62 3.74.45 1.89 1.68 2.42 3.07 3.56-1.76-1.02-.24.34.2.48.64.2 1.32.13 1.97.3 1.57.4 2.42 2.13 3.99 2.48 2.71.6 5.53-2.86 8.03-3.6.92-.26 1.88.28 2.72-.03.67-.24 1.25-.69 1.96-.82 1-.2 1.6-1.38 1.98-2.2.51-1.1.87-2.29 1.18-3.47.44-1.63 1.45-2.95 1.95-4.51.93-2.9 1.93-5.69 2.73-8.65 1.13-4.22 2.83-8 4.29-12.08 1.18-3.32 1.86-6.7 3.32-9.92.43-.93 1.24-2.42.82-3.48.5 0 1.07-2.03 1.2-2.37.84-2.24 1.3-4.61 2.21-6.83 1.34-3.23 2.56-5.98 3.26-9.44.52-2.59-1.25-6.36 1.9-8.06.6-.33 1.29-2.28 1.36-3.05.07-.72-.09-1.43.04-2.15.17-.97-1.02-.86-1-1.79 0-.7-.72-6.18 1.03-5.43 1.5.64 1 3.76 2.45 4.27 1.62.57 2.69-3.83 2.87-4.79.26-1.4-.67-2.09-1.05-3.32-.7-2.27-.63-4.47-.72-6.8a34.74 34.74 0 0 0-2.9-12.67 9.6 9.6 0 0 0-.72.5c.2-.58-.05-.7-.4-1.05-.59-.58.32-.95-.2-1.58-.5-.6-.82-2.88-2.07-2.12a2 2 0 0 1-.06-.8c2.17.21-1-3.07-.64-.32.14 1.09-2.09 3.09-3.11 3.07 1.93.96.67 3.82.29 5.1-.58 1.9-.55 3.11-2.89 3.18.29 1.37-.15.28-.8 1.07-.47.58-.5 1.4-.7 2.09-.59-.02-2.74-4.4-3.05-1.3-.1 1.1.28 1.82.67 2.82.36.89-.27 3.33-.43 1.58-.17.85-2.83.96-1.78 2.93.56 1.05 2.69.64 1.85 2.33.29-1.31-1.07-1.43-1.88-.8-1.13.87-1.03 2.83-2.58 3.31-.2-1.1.86-1.96.65-3.1-1.12.25-.86 1.01-1.3 1.8-.44.77-1.7 1.19-1.87 2.1-.13.62.53 1.33.8 1.84.5 1-1.3 1.21-1.88 1.69.11-.7 1.38-2.7-.4-2.66-1.02.02-1.84 1.3-2.62 1.83-.52.35-1.91 1.09-1.77 1.9.07.4-.26.91-.11 1.3.2.53.92.43 1.09 1.08-.8-.06-1.63.1-1.77-1.02-.19-1.41-1.57-1.39-1.62.09-.34-.56-1.93-.72-2.5-.44-.7.34-.43 1.52-.95 2.02 0-1.5-1.72-.32-1.81.58-.25-.47-.53-.9-.86-1.3-.87.6-1.53 1.62-2.53 2-.94.35-2.6-.41-3.37.3-.37.35-.05 3.2-.36 2.89.27 1.15-.55 2.48-1.11 3.41-.94 1.57-3.93 4.49-2.78 6.37.8 1.3.1 3.66.23 5.18.14 1.72 1.38 3.16 1.37 4.85 0 1.58-.1 2.58.75 3.99.92 1.5.4 2.18-.05 3.64-.33 1.05 1 1.38.37 2.51-.66 1.2-1.53 2.35-2.26 3.53-.77 1.27-1.73 2.54-2.29 3.92-.43 1.07-.08 2.86-1.44 3.33-1.63.57-2.01.6-2.17 2.48-.13 1.56-1.55 2.99-1.93 4.59" data-abre="MG" data-code="MDG" data-country="Madagascar"/>
    <path id="path2624" fill="#f9db8e" stroke="#fff" stroke-miterlimit="3.97" stroke-width=".3" d="M1637.55 875.66c.35-.63-.08-1.3-.5-1.73-.71.58-.55 1.74.5 1.73"/>
    <path id="path2628" fill="#f9db8e" stroke="#fff" stroke-miterlimit="3.97" stroke-width=".3" d="M1648.86 904.53v-.43c-.44.8-1.54 1.7-1.08 2.74.45-.73.65-1.57 1.08-2.31"/>
    <path id="ci" stroke-miterlimit="3.97" stroke-width="1.25" d="M1205.05 703.22c.42-.92 1.54-1.13 1.93-2.12.25-.66.45-1.71.5-2.41.08-1.28-.43-3.6-1.35-4.54.59-.62 1.4-.3 2 .07.14-.75 1.35-1.58.87-2.41-.39-.67.25-2.1 1.16-1.62-.7-1.02-1.9-1.66-2.2-2.92-.59-2.37 3.85-.5 4.57-.18-.52-1.57-.33-3.33-2.37-3.67.37-1.05.37-2.17 1.73-2.37-1.13-1.34-1.34-1.05-.94-3.03-2.45 1.57-2.34-3.84-2.02-5.04.3-1.15 1.12-1.45 2.14-1.75.56-.16.6-1.2 1.03-1.56.63-.54 1.38-.19 2.09-.5-.16 1.4 2.68 2.8 3.82 2.3-.77-1.27.53-1.34 1.46-1.32 1.23.01.8-2.04.84-2.86.48.27.99 1.2 1.66 1.01.64-.17.76-1.38 1.44-1.65.55 1-.24 4.35 1.2 4.71 1.3.32.25-2.5 4.2-2.39.37.01-.84 1.14 2.3 1.34 1.5.09 1.8 3.02 2 3.26a9.4 9.4 0 0 0 4.9 2.94c.02-1.75 2.6-2.12 3.83-2.6 1.12-.42 4.02.86 4.75-.2 1.2 1.42 1.69 2.98 3.3 4.53.19-.23.36-.47.52-.72.47 1.43-.64 2.8-.43 3.51.34 1.2 1.05 1.78 1.21 3.17.14 1.15.85 3.1.42 4.18-.47 1.22-1.09 1.87-1.68 2.98-.8 1.47-2.15 2.33-2.1 3.96.06 2.13-1 3.68-1.43 5.26-.46 1.66-.24 4.35.79 5.7a5.56 5.56 0 0 1 1.09 4.57c2.56-.7 1.06 3.18 1.48 4.4-.52-.01-1.02.06-1.51.21.14-.27.31-.54.5-.79-1.2 1.8-2.2-.47-2.45-1.37-.65.72-.9 1.72-2.01 1.8a3.09 3.09 0 0 1-2.16-.79c-.4.73-1.31.04-1.66-.29.62-.14 1.32.48 1.8-.21-.21-.24-.45-.43-.72-.58.3 1.44-.3.1-1.3.36.21.43-2.36.18-2.99.25-.32.04-3.52.6-3.26.75 1.6.86 4.75-1.9 6.04-.28-2 .1-3.9.44-5.86.78-.44.08-1.35.27-1.63-.25-.4-.73-2.33-.4-3.02.26 1.13-.45 1.76-.33 2.88.07-2.45.28-5.07.15-7.38 1.15-2 .86-3.79 2.48-6.02 2.7-1.13.12-3.56 1.4-4.4 2.21-1.87 1.8-2.2-1.53-1.9-2.9.34-1.64.9-3.45 1.36-4.8.6-1.8.09-3.75-1.33-4.95-.87-.72-2.12-1.04-1.98-2.56.16-1.74-5.14-.22-4.06-2.22-.64.14-1.21-.14-1.65-.58" class="land ci" data-abre="CI" data-code="CIV" data-country="Côte d'Ivoire"/>
    <path id="dz" stroke-miterlimit="3.97" stroke-width="1.25" d="M1208.86 523.44l.5-10.87c-.46-2.93 4.02-3.9 5.63-5.36.8-.73 2.11-2.22 3.34-2.14 1.07.06 1.32-1.55 2.73-1.82 2.3-.45 3.47 1.77 4.85-1.26.43-.95 1.85-.55 2.68-.66 1.47-.2 2.96-.4 4.36-.91 2.8-1.04 2.92-4.05 5.3-5.31.99-.52 2.28-.58 3.32-.96 1.28-.48 2.12-1.91 3.44-2.18.48-.1 3.08-.3 2.01-1.67-.68-.89-1.77-1.21-.36-2.5-2.02-.55-.2-2.67 1.28-2.54 1.96.16 3.76-.54 4.46-2.37 1.33-3.51 10.39-.4 12.98-1.07-2.97-1.33 2.16-2.97.55-4.2-.76-.6-1.61-1.11-2.23-1.86-.72-.87-.34-2.11-1.05-3.18-.73-1.1-.32-2.02-.11-3.12.2-1.04-.6-1.05-.5-2.06.11-.94.1-2.07.11-3 .02-1.26-.82-2.27.43-3.24-1.3-.53-.77-1.25-.96-2.22-.25-1.28-2.48-1.7-2.97-3.03 2.4 0 3.42-.58 5.45-1.62.89-.46 1.45-.46 1.98-1.4.47-.82.83-1.51 1.7-1.98.5-.27 1.47-1.04 1.99-.63.68.54 1.54-.4 1.99-.8 1.17-1.08 2.79 1.62 3.99-.85 1.6-3.3 7.15-4.73 10.4-5.1 2.31-.27 4.65-.91 6.98-.75 1.73.11 2.93-2.1 4.44-1.25.66.37.5.16.76-.25.05-.09 2.66-.05 3.05-.2 2.25-.9 4.52-.56 6.89-.63 1.97-.05 2.44.36 3.94 1.49 1.92 1.45 2.59-.7 4.25-.9.54-.06 3.86-.2 3.68-1.19-.33-1.77 2.08-.68 2.66-.3 1.2.81 3 1.22 4.24.23.67-.54.23-1.24 1.52-.92.91.23 1.63.9 2.63.85-.85 1.39 1.24.9 1.9.73 1.32-.34 2.74-.02 4-.45.1 1.8-2.17 2.68-3.16 3.82 2.7.58.1 4.38.65 6.12.95 3.02.55 5.3-.08 8.28-.53 2.45-3.26 4.36-5.08 5.97-1.06.94-.55 3.39.07 4.43 1 1.68.55 3.51 2.62 4.3 2.83 1.07 2 4.65 4.27 6.35 1.06.8 2.3 1.37 3.2 2.36 1.2 1.34 1.38 3.54 1.67 5.25.58 3.52 2.25 7.43 2.25 10.98 0 .95-2.02.59-.72 2.32a14.6 14.6 0 0 1 2.71 5.72c1.43 7.1-.67 7.06.4 10.71a6.44 6.44 0 0 1-.13 4.7c-.77 1.92-.07 3.7.34 5.6.63 2.9-.65 2.94-2.7 4.49-2.34 1.76 1.55 5.2 2.56 6.75 1.9 2.91.75 6.37 3.27 9.09.97 1.04 2.08-.21 3.11-.13 1.3.1 2.73 1.08 3.95 1.53 2.8 1.01 3.74 3.36 4.77 6.02.5 1.26.99 1.41-.38 2.18-14.2 9.06-28.5 18.11-40.6 29.89-.7 1.01-2.95 3.54-4.7 4.5-1.32.74-3.28.8-4.74 1.11-1.98.41-3.98.8-5.96 1.22-1 .21-9.73 3.21-9.35.12.13-1.08.9-1.5.8-2.71-.04-.47.1-2.9-.38-3.14-1.47-.73-3.3-1.07-4.92-1.38-.8-.15-1.87-2.18-2.48-2.03-3.5.86-4.05-2.63-4.68-3.15-.74-.62-2.02-.67-2.7-1.19-.76-.58-.1-2.02-.57-2.8a7.33 7.33 0 0 0-2.52-2.4 44.78 44.78 0 0 1-4.6-3.23c-3.67-2.85-7.27-5.78-10.93-8.65-14.08-11.08-28.15-22.12-42.9-32.32a896.1 896.1 0 0 0-10.6-7.23" class="land dz" data-abre="DZ" data-code="DZA" data-country="Algeria"/>
    <path id="cm" stroke-miterlimit="3.97" stroke-width="1.25" d="M1336.16 717.9c.94-.8 1.52-1.98 1.57-3.18.04-1.12 1.5-3.28 1.08-4.05-.42-.78-.59-1.1.57-2.4 1.15-1.29 2.28-2.6 3.56-3.78.72-.68 1.64-.97 2.02-1.91.33-.81 1.6-2.97 2.5-3.22 1-.28 1.57 1.03 2.79.77.96-.21 1.02-1.55 1.24-2.3.18.76 2.25 2.86 2.98 3.06.73.2.93 1.23.65 2.02-.21.57.82 1.42 1.95 1.15.33-.58 2.2-2.3 1.74-3.34-.32-.72 1.19-1.68 1.71-2.1.87-.7 0-1.75.47-2.69.92-1.83 2.22-3.5 2.84-5.8.27-.97-.08-2 .2-2.92.21-.71 1.34-.96 1.28-2.14-.33-.1 2.52.28 3.1-2.51.12-.63 1.22-3.75.15-3.96 1.23-.63 3.04-1.43 3.24-2.83.14-.91.09-1.67.09-2.59 0-.95.95-.87 1.38-1.52.53-.8.47-1.92.8-2.92.33-1.05.64-2.05.77-2.68.26-1.23.96-3.53 2.24-4.05.67-.27 4.68-.24 5.2-2.51.14-.64-.52-1.14-.43-1.88.17-1.3.25-2.03.47-3 .26-1.15-1.84-2.14-2.52-1.93-.55.2-1.27-.97-1.53-2.45-.22-2.34-.09-3.22-.42-3.9.87 0 2.22-.07 2.9.68 1 1.12-.04 2.24 2.18 2.85 1.14.32 1.27 2.98 1.35 3.9.07.92-.11.15.84 1.06 1.9 1.81-.15 7.18.12 9.56.36 3.3 1.93 7.08 4.92 8.74-1.2 1.03-2.73.54-3.72.05-1 .1-1.23.26-2.29.3-2.23.08-4.5-1.36-5.62.47-1.37 2.23-1.2 2.62.62 4.7 1.82 2.1 3.83 3.91 5.84 5.82.6.57 1.4 1.46 1.8 2.21.8 1.46 1.45 4.46 2.31 5.88.88 1.45-.88 2.47-1.32 3.06-.7.93-1.66 3.1-2.3 4.62-.2.5-.7 1.28-.9 1.8-.39.94-.97 1.69-1.4 2.6-.61 1.29-3.74 2.54-1.94 3.26 1.32.53 1.2 1.87 1.02 3.62-.08.79-.12 1.5-.56 2.17.05-.07.96 1.17.97 1.26.22 1.48-.13 3.73.85 4.91.6.73 1.41 1 1.69 2.14.2.85.56 1.98 1.35 2.53-2.47.07 3.08 6.61 3.55 7 1.2.95 2.88 1.52 3.1 2.38.16.66.29 1.01.32 1.65.07 1.6.44 3.26.8 4.81-1.88.88.2 4-1 4.9a9.57 9.57 0 0 0-3.71-2.47c-.63-.2-2.51-.96-3.02-.62-.66.44-1.97.37-2.38-.62-.02-.05-2.2-.46-2.4-.55-.69-.26-2.6-.06-3.5-.11-1.6-.1-3.25-.07-4.85-.3-.28-.04-1.07.21-1.38.06-.61-.3.27-.9-.86-.8-1.48.15-2.78.4-4.3.07-1.77-.38-3.23-.08-5.01-.14-1.17-.03-3.25-.7-4.36-.09-.31.18-.2 1.1-.53 1.1h-3.3c-1.54 0-3.07.06-4.6.1-3.3.07-4-1.74-3.31-4.8.4-1.73 1-3.62.06-5.3-.45-.8-1.97-2.14-.36-2.67-.91.52-2.66-.33-1.61-1.38.55-.55 1.79-1.51.17-1.57.31-.35.48-.75.5-1.22-.51 1.23-1.05.25-1.87.29.3.4.52.7 0 .43.03.4-.02.78-.14 1.15-.67-.02-.99-.54-.8-1.15-.57 1.04-2.2-.27-2.41-1.03-.33-1.21-.4-3.28-1.27-4.23-.98 1.22-.8-.21-1.44-.21.12.47.2.95.22 1.43-2.04.26-.93-1.66-.71-2.73" class="land cm" data-abre="CM" data-code="CMR" data-country="Cameroon"/>
    <path id="bw" d="M1421.33 973.8l.85-23.98h6.81l.96-31.84c2.42-.58 8.56-.94 12.06-2.15 1.09-.38 3.75-.95 4.84-.32 1.48.85 1.77 2.61 2.49 4 1.92-1.52 3.43-4.62 5.7-4.68.85-.02.76.48 1.38.57.8.1 1.28-1 1.88-1.36 1.95-1.16 3.98-1 3.63-.29-.1.2 0 1.31.1 1.55a15.47 15.47 0 0 0 2.1 3.68c.85 1.1 1.52 1.68 2.15 3.56.45 1.35.62 1.63 1 2.91a10.57 10.57 0 0 0 5.21 6.23c2.58 1.34 4.95 1.06 4.07 5.18 2.35-.55 4.2-.28 3.18 2.85a2.97 2.97 0 0 0 .39 2.84c.67 1.02 1.14 3.44 2.21 3.77 2.16.67 4.03.56 6.34 1.35 1.7.58.23 1.39.75 2.26.41.68 1.93.47 2.17 1.44-2.69.33-2.26.9-3.25 2.3-1.11 1.55-4.15.77-5.46 2.19-1.18 1.28-2.18 3.41-3.78 4.67-.17.14-.8.72-1.44 1.17-1.08.76-2.28 1.04-3.1 1.97-1.1 1.25-1.3 1.61-1.5 3.48-.23 2.3-1.57 2.81-3.2 4.75-.96 1.14-2.53 1.46-4.14 1.72-1.15.19-.47.63-.69 1.75-.29 1.48-1 2.81-1.48 4.22-.7 2.1-1.83 2.83-3.97 2.64-1.94-.16-1.71 1.23-4.22.68-.99-.22-3.37-1.33-4.21-1.38-1.24-.09-2.05-.86-2.77-1.75-1.06-1.33-3.95-2.3-5.45-.38-1.37 1.77-.77 3.74-2.03 5.56-.62.9-1.5 1.5-2.35 2.08-1.04.72-1.35 1.87-2.23 2.7-.66.61-1.23.34-1.96.64-.25.21-.27.46-.21.8-.3.8-1.5 1.02-2.2.98-1.1-.07-1.72-.35-2.8-.43-.96-.08-1.83-.46-3.07.57-1.81-3.46 1.97-5.02.65-9.72a24.8 24.8 0 0 0-2.13-5.37c-.8-1.4-2.36-2.1-3.28-3.41" class="land bw" data-abre="BW" data-code="BWA" data-country="Botswana"/>
    <path id="ke" stroke-miterlimit="3.97" stroke-width="1.25" d="M1530.76 768.6c1.52-1.1-2.29-5.71 2.98-4.63.01-.29.3-.88-.02-1.43l3.13-.4c-2.08-3.15-2.97-.68-3.96.18-.84.74-2.9-2.52-2.8-4.51.8-1.45.27-2.1 1.76-3.46 1.1-1 1.99-4.31 3.79-5.12.85-.39.72-.52.68-1.27-.08-1.17 1.28-1.73 1.58-2.76.35-1.23.45-2.44.57-3.67.11-1.12-1-1.9-1.24-3.15-.52-2.8-2.24-3.4-2.5-4.63-.2-.98-.74-1.8-1.07-2.74-.22-.4-.34-.84-.37-1.3 0-.63.7-.98.5-1.65-.16-.59-.8-.74-1.3-.93-1.13-.42-.3-1.28-1.5-1.16.49-1.12-.9-2.2-.77-2.98.13-.78 1.09-1.4 1.62-1.96 1.86-1.95 4.15-1.4 6.59-1.4 1.4 0 2.8-.1 4.2-.12.7-.01 1.41-.05 2.1.06.58.1.76 1.13 1.47 1.4 2.18.85 4.62-.18 6.84.85a26.18 26.18 0 0 1 6.64 4.85c.92.9 1.66 1.54 2.99 1.69.87.1 2.84-.45 3.52-.01 1.9 1.22 4.83.13 6.49 1.73.22-1.14 1.78-2.78 2.49-3.76 1.24-1.74 3.91-2.43 5.76-3.3 1.96-.9 2.3 1.25 3.78 2.11 1 .59 2.1.2 3.15.01.85-.15 1.87.41 2.66-.03-1.22 2.1-2.35 4.4-3.84 6.32-1.58 2.03-2.99 3.16-2.98 5.9 0 6.44.06 12.9.06 19.34 0 4.83-.97 9.42 2.27 13.37 1.1 1.34 2.76 3.06 1.58 4.82-.7 1.03-2.77 2.92-4.06 1.73l-.3.79c-.2-.25-.4-.51-.56-.79.34.79 1.2 2.23.43 3.03-.14-1.96-.95.28-1.15.73-.4.93-1.17 1.1-2.06 1.23-1.96.28-2.75 2.01-2.13 3.67.29.75-1.1 2.94-1.66 3.4-.98.8-1.8 6.1-2.87 5.65.47 2.06-1.59 3.52-1.94 5.4-.84-.61-.75.45-1.44.29-.89-.2-2.01-1.75-2.7-2.27-3-2.29-6.78-4.78-8.63-7.25-.49-.65-1.39-.76-.36-1.9 1.45-1.6-1.09-3.52-2.4-4.34l-25.07-15.68" class="land ke" data-abre="KE" data-code="KEN" data-country="Kenya"/>
    <path id="path2896" fill="#f9db8e" stroke="#fff" stroke-miterlimit="3.97" stroke-width=".3" d="M1172.5 693.65l-.21.5c.97.3 1.93.72 2.95.86.17-.38.3-.91-.13-1.19-.74-.47-1.8-.12-2.61-.17"/>
    <path id="path2902" fill="#f9db8e" stroke="#fff" stroke-miterlimit="3.97" stroke-width="1.25" d="M1169.55 681.4c.61-.56 1.4-.07 2.09-.5.66-.42.48-1.56 1.29-1.8 1.33-.39 2.23-2.96 2.65-4.13.7-1.94 2.75-.5 4.2-1.48 1.24-.83 4.7-.9 5.95.02 1.19.88 1.77 2.39 2.54 3.6.4.64.85 1.3 1.12 2 .2.52-.39 1.15-.03 1.52.45.46.94.35.99 1.13.04.6-.2 1.65.27 2.13.65.69-1.54 2.9-1.41 4.07.16-.36 1.78-1.21 2.16-1.44 1.48-.9 1.24.33.88 1.44-.41 1.28-2.28.93-2.45 2.78-.16 1.77-.22 1.69-1.2 2.72-.78.82-1.54 1.64-2.65 2.45-1.5 1.1-2.17 3.86-2.83 3.66-.7-.21-6.52-3.34-7.45-4.12 1.62.46.35-.31-.07-.58.7-.48 1.6-.49 2.23-1.08-1.34.17-3.28.37-2.16-1.58-.88 2.01-1.97-.25-2.73-.15-.53.07-1-3.46-1.01-3.89-1.1.26-2.83-.66-2.02-2.08.47.37.98.7 1.5 1-1.25-.63.6-1.7 1.3-1.65-.28-.48-.15-.36-.06-.94-.65 1.3-1.29.64-2.1.15-.1.25-.2.52-.28.79-.94-1.59-.16-2.2 1.22-2.52-.53-.7-1.58-.64-1.94-1.52" class="land sl" data-abre="SL" data-code="SLE" data-country="Sierra Leone"/>
    <path id="ml" stroke-miterlimit="3.97" stroke-width="1.25" d="M1178.55 631.8c1.35-.33 1.95.4 3.05-1 .93-1.2.51-3.75.96-5.24 1.03-3.38 5.73 2.23 6.22 3.29.9-2.47 2.39-3.82 5.22-2.67 1.86.76 5.8.62 6.22-1.94 1.06 2.56 6.28 1.42 8.33 1.26 5-.38 10.13-.11 15.15-.11 1.76 0 3.94-.2 5.68-.03 1.29.13.91-2 1.04-3.1.14-1.24 1.35-3.63.05-4.45-2.24-1.43-1.64-2.69-1.63-4.5l-5.22-70.07h13.24c13.7 10.27 26.55 20.49 39.5 30.67 1.56 1.12 4.49 2.25 4.27 4.6-.07.73-.17 1.38 1.14 1.9.64.26 1.35.44 1.9.8.9.6.75 1.7 1.47 2.42.7.68 1.41.78 2.3.93.64.11.17-.59 1.32-.02.83.41 1.19 1.51 2.13 1.8 1.48.47 3.45.6 4.82 1.4 1 .6.7 3.36.28 4.33-.6 1.34-1.45 2.61.68 2.91 2.26.33 4.82-.87 7.05-1.15-.3 6.14.58 12.67-.21 18.75-.1.7.12 1.18-.4 4.5-.18 1.1.2-.3-1.32 2.9-.47 1-.44 2.18-.87 3.2-.4.97-1.36 1.27-2.14 1.87-.96.74-.3 1.71-1.62 1.5-.3-.06-2.92-.76-3.04-.3-.31 1.18-8.5.78-9.75.88-3.04.24-2.98-.13-5.13 2.22-.68.74-2 1-2.95.8-.55-.1-1.8-.12-2.36-.1-.99-.02-.92-.79-.92.45-.72-.27-1.4-.61-2.12-.9-1.7-.72-2.11.47-2.76 0-.63-.47-1.7-1.08-3.11.18-1.48 1.32-3.61 2.41-4.46 2.98-1.4.94-2.45 1.69-3.9 2.05-1.18.3-.21 2.82-1.97 2.05-1.09-.48-2.07-1.13-3.22-.34-.98.68-1.5 1.92-1.86 3-.2.6-.48 1.58-.77 2.16-.25-.17-1.84-.56-2.47-.66.56 1 .01 2.5.15 3.6-.98-.04-1.76-.2-1.51 1-1.04-.1-4.02-1.6-3.96-2.88-1.9 4.55-3.3 2.4-2.35 4.02.53.9.55 1.58.34 2.35-.09.31-2.36-.09-1.81.87 1.02 1.76.57 3.65-1.4 5.32-.92.77-2.02.46-3.13.66-1.04.19-1.62 1.31-2.74 1.26 2 .5.55 1.54 1.15 1.9 1.03.6.15 3.24-.41 4.18-.2.32-1.26.45-1.2.75.33 1.51.52 3.38-.52 4.74-.42.55-1.64.53-2.23.7-1.24.34-.6 1.98-2.16 1.84-1.73-.16-.6-3.61-1.18-4.68-.68.28-.8 1.48-1.44 1.66-.67.18-1.18-.74-1.66-1.01-.04.82.4 2.87-.84 2.85-.93-.02-2.23.06-1.46 1.32-1.14.5-3.98-.9-3.82-2.3-.59.26-1.53-.04-1.97.5-.7.83-.6 1.83-2 1.95 1.03-1.9-2.35-2.19-2.35-3.8-.01-1.04.26-2.25.01-3.26-.34-1.43-2.25.25-2.91.22.25-.93.98-3.36 2.38-2.88.5-1.4-2.36-1.9-2.52-3.24-.91.51-.83-.5-.75-1.09.19-1.31-.34-1.82-.9-2.92-.43-.86.12-2.09-.9-2.6-.4-.2-1.77-.96-2.18-.57-.46.42 1 1.49.02 1.95-1.1.52-1.98 1.4-3.1 1.96-.77.4-1.64-.72-2.27-.98-1.37-.56-2.43-.46-3.4.7-2.44 2.9-1.1-.56-3.22-1.28-1.38-.46-2.83 3.94-4.18.54-.44-1.08 1.36-2.08.49-3.3-.5-.7-.1-2.4.16-3.13.32-.87-2.33-5.84-2.88-3.68-.63-.18-1.62-2.11-1.9-2.7-.24-.53.56-1.59.53-2.63-.05-1.57.13-2.24-.98-3.47-.39-.43-.79-.95-.53-1.56.44-1.06.13-1.06-.3-2.1" class="land ml" data-abre="ML" data-code="MLI" data-country="Mali"/>
    <path id="cd" stroke-miterlimit="3.97" stroke-width="1.25" d="M1363.8 809.5c.7-.52 1.54-.08 1.81-1.01.22-.76.84-3.72.31-4.33-1.39-1.59 4-3.99 5-4.9.28 1.15 1.96 1.32 2.03 2.53.53-.56 1.25-.9 1.84-1.37.82-.66.48-1.85 1.19-2.6 1.2 1.6 3-1.44 4.41-.74 1.35.68.1.98-.1 1.83-.24.95.37 2 .37 2.95.6-.77 1.92.2 2.73-.36 1.19-.83 1.93-2.4 2.84-3.52.47-.57 2.38-1.5 2.49-2.02.26-1.38 1.41-1.71 2.56-2.2 2.65-1.14 3.13-6.14 3.07-8.53-.05-1.82.11-3.46-.12-5.28-.22-1.74 1.98-2.19 2.71-3.57 1.74-3.24 1.6-5.3 5.13-7.69a13 13 0 0 0 3.36-3.57c.98-1.39.28-3.4.67-4.99.35-1.4 1.04-7.37 1.1-8.93.06-1.78 1.09-3.33 1.38-5.05.28-1.68-.2-3.44.17-5.1.7-3.11 2.57-5.66 3.63-8.62.62-1.72.32-3.53.28-5.29-.03-.8.35-1.65.22-2.44-.11-.7-.53-1.3-.73-1.98-.3-1.07 1.58-1.04 2-2.03.6-1.35 1.23-2.55 2.26-3.64.98-1.06 2.22-1.96 3.72-1.95 1.28.01 1.79 1.12 2.6 1.3 1.9.42 3.65 2.46 4.36 4.2.58 1.42 2.62.36 3.77.71.63.19.94 1.03 1.65 1 .64-.03.77-.15 1.43.2 1 .5 1.19-.01 2.16-.07.65-.05 1.37.3 1.96.52 1.08.4 2.55 1.17 3.72.76 2.1-.74 1.45-5.75 4.25-5.88 1.59-.08 2.01 3.14 4.09 1.18.87-.84 6.93-1.64 6.57-3.63 1.25-.05 1.67 1.67 2.88 1.55 1.45-.15 3.93-.37 4.53-1.9.22-.59-.36-1.16.4-1.54.94-.47 1.7-.19 2.43.53 1.17 1.14 2.25-.2 3.54.4.63.3 1.16.79 1.79 1.1.73.38 1.24.06 2.02.18 1.83.28 2.54-1.76 4.47-.66.73.41 3.28 2.02 3.28 2.97 0 .46.6 1.61 1.05 1.8 1.9.77 3.7 3.56 5.73 1.65 1.15-1.08 2-1.3 3.52-.55 1.56.76 2.18.45 3.1-1.36 1.22-2.4 4.33 3.6 4.49 4 .7 1.75 5.45 1.98 4 4.72.92-.22 2.03-.27 2.26.9.12.31.28.6.48.87.13.6-.69 1.72-.6 2.35.29 2.01-.05 4.02-.34 5.93-.15 1.01.6.88 1.73.68.52-.09 2.51 1.3 2.15 2.4-.87 2.63-4.13 5.23-6 7.18-.63.65-1.88 2.36-2.63 3-.75.63-.82.09-1.25.91-.54 1.04.12 2.3-.54 3.36a11.78 11.78 0 0 0-1.6 4.32c-.14 1.24-.12 2.49-.2 3.73-.1 1.45-.3 2.72-.45 4.1-.11 1.01.15 2.43-.32 3.35-.52 1.05-1.38 1.45-2.15 2.3-1.19 1.32-1.09 1.74-1.13 3.29-.03 1.01-1.12 2.16-1.67 2.89-1.21 1.6.48 3.27 1.42 4.8.7 1.15 1.22 1.96.7 3.55-1.92 1.67.4 6.93-1.4 8.65 1.31.76 1.07-2.63 1.53-2.06.45 2.67-1.22 4.61-1.24 7.23-.01 3.4 2.85 4.97 1.65 7.32-.7 1.36-1.43 1.66-.84 2.54.9 1.33 1.28 3.54 3.06 7.03 1.19 2.33 4.58 1.89 4.8 7.5.07 2.2 1.79.99 2.45 4.37-4.7 1.07-8.18 1.2-12.9 2.2 1.95 3.23-3.11 4.57-4.03 6.98 2.72.84 1.82 5.04 1.63 7.09-.13 1.5.44 2.9.35 4.38a6.03 6.03 0 0 1-.53 2.18c-.44.97-.76 1.7-1 2.72-.5 2-1.17 3.15.1 5.1a27.55 27.55 0 0 0 3.69 4.15c.52.5 3.3 2.2 3.52 1.16.39-1.83.87-1.49 2.67-2 0 2.89-.1 5.8-.17 8.7-.01.44.32 2.35-.43 2.42-.88.1-1.07-.92-.47-1.4-1.3-1.6-4.2 3.37-5.58.38-.45-1-.88-2.25-1.55-3.15-.38-.51-1.4-1.17-1.52-1.78-.23-1.18-.47-2.55-1.96-2.6-1.25-.03-1.78-1.34-2.98-1.48-1-.12-1.61.64-2.3-.47-.54-.85-.56-2.1-1.34-2.8-1.12-1-1.91-4.47-2.88-1.35-1 3.21-2.76 1.52-5.27 1.61-1.69.06-2.09-.48-3.52-1.12-.1-.05-1.6-.4-1.63-.4-2.28.4-2.96-3.06-2.16-4.64-1.4.08-2.8.38-4.1.87-1.61.61-1.95 1.4-3.75.65.7-1.24.74-2.87.14-2.84-.78.04-1.1-.63-1.65-1.14-1.26-1.2-1.08.21-1.38.32-1.11.38-1.6.33-2.6.07-1.21-.32-1.96.53-3.03.9-1.37.49-2.24-.43-3.13-.28-.32.06-1.6-.08-1.63-.06-.86.46-1.3 1.76-2.48 1.73.26-.89-.27-1.59-.43-2.42-.21-1.15.58-1.35.83-2.24.59-2.04-.21-5.59-1.45-7.24-1.52-2-2.17-3.26-1.98-5.86.2-2.68 1.14-5.5.44-8.17-.27-1.02-1-1.9-.98-2.99.02-1.22.7-2.37.79-3.59.15-2-1.15-1.78-2.77-1.79-1.54-.01-3.08-.04-4.62.02-3.16.14-2.68-.55-1.79-3.23-.7 0-1.4-.18-2.1.1-.46.17-.11.38-.38.6-.83.72-4.68.1-5.8.1.38.94-.32 2.04-.15 3.05.13.82.16 2.12-1.15 1.84.43 1.25-.33 2.48-.07 3.74-.52 0-3.97.12-4.52-.2-1.65-.96-4.55.82-5.11.87-1.31-.21-2.54-.15-3.98-.14-1.82-.38-2.6-4.17-3.52-5.5l-.9-1.28c-.61-.86-.33-1.48-.46-2.4-.23-1.64-1.94-2.72-1.7-4.46.23-1.56 0-2.87-.73-3.78-1.03-1.28-1-1.75-2.6-1.67-4.39.2-8.73.38-13.11.13-3.54-.2-7.68.38-11.15-.28-2.78-.54-5.08 3.6-6.72-.58" class="land cd" data-abre="CD" data-code="COD" data-country="Democratic Republic of Congo"/>
    <path id="so" stroke-miterlimit="3.97" stroke-width="1.25" d="M1583.7 739.51c0-1.4-.37-3.35.24-4.67.58-1.25 1.76-2.22 2.55-3.35 1.59-2.26 2.97-6.3 5.37-7.76 2.2-1.32 4.77-.46 6.7-2.53 2.18-2.34 4.25-3.88 7.55-4.35 2.47-.36 6.82 1.4 8.53-.87l21.69-25.65c-2.63 0-5.35.45-7.92-.21-2.93-.75-5.72-2.16-8.54-3.21-2.91-1.09-5.8-2.21-8.71-3.31-2.7-1.02-5.05-1.73-7.12-3.8-.69-.7-.91-1.06-1.87-1.3-.97-.27-1.35-1.78-1.8-2.58-.78-1.35-1.3-2.45-2.38-3.65-1.3-1.42-2.84-3.25-2.25-5.38.65-2.33 2.7-4.37 3.6-6.67 2.4 1.34 3.73 4.54 5.37 6.62 2.05 2.58 5.18 3.3 8.35 2.26 1.22-.4 2.8-1.49 3.83-2.25 1.83-1.36 2.35-1.13 4.6-.76 2.34.38 3.39.87 5.56-.49 1.1-.68 3.63-3.24 5.04-2.74 1.56.56 2.64.63 4.31.05 1.02-.35 1.97-.86 3.02-1.1 1.2-.26 2 .26 3.16.38 1.87.18 3.31-.93 4.94-1.59 1.69-.69 3.61-.38 5.32-1.25 1.42-.72 1.57-2.58 2.77-3.17 1.18-.58 4.96.42 4.5 2.11-.61 2.2-1.02 3.53-.61 5.85.28 1.61.7 3.93-.72 5.17.94.36 1.72.14 1.51-.86.47.31.98.53 1.52.65-.3 1.55-3.82-.58-3.84 2.15 0 2.22.18 4.5-.44 6.68-.53 1.86-1.65 3.28-2.7 4.85-1.23 1.82-1.08 4.52-2.59 6.28-.58.68-1.38.85-1.79 1.75-.4.9-.05 1.91-.39 2.86-.76 2.16-2.3 3.87-3.38 5.86-1.44 2.65-1.55 5.56-2.67 8.3-1.14 2.79-2.91 5.24-4.54 7.75-1.58 2.43-2.63 5.25-4.45 7.52a618.33 618.33 0 0 1-6.08 7.52c-4.12 5-8.31 9.07-13.77 12.59-2.3 1.47-4.57 3-6.48 4.96-2.16 2.2-4.62 4.37-6.56 6.75-1.93 2.35-3.96 4.65-5.86 7-.93 1.16-1.74 2.4-2.64 3.57-.56.72-2.23 3.33-2.52 1.81 0 2.48-1.62 4.86-3.11 6.73.12-1.95-1.75-3.55-3.08-5.47-1.53-2.19-1.28-3.7-1.3-6.23-.07-7.67.08-15.16.08-22.82" class="land so" data-abre="SO" data-code="SOM" data-country="Somalia"/>
    <path id="path3430" fill="#f9db8e" stroke="#fff" stroke-miterlimit="3.97" stroke-width=".3" d="M1147 660.24l-.06-.58c-.27.16-.51.35-.72.58h.79"/>
    <path id="path3432" fill="#f9db8e" stroke="#fff" stroke-miterlimit="3.97" stroke-width=".3" d="M1147.45 657.14c.66-.33.56-.57-.3-.72l.3.72"/>
    <path id="path3434" fill="#f9db8e" stroke="#fff" stroke-miterlimit="3.97" stroke-width=".3" d="M1148.1 664.2c.26-.2.55-.38.86-.5-.58-1.22-2.04-.41-.86.5"/>
    <path id="path3436" fill="#f9db8e" stroke="#fff" stroke-miterlimit="3.97" stroke-width=".3" d="M1149.32 656.71c-.37.02-.73.07-1.08.14.06 1.06 1.38.89 1.08-.14"/>
    <path id="path3438" fill="#f9db8e" stroke="#fff" stroke-miterlimit="3.97" stroke-width=".3" d="M1149.25 659.88l-.3.72c.6.3.99-.05 1.09-.65-.27-.01-.53-.04-.8-.07"/>
    <path id="path3440" fill="#f9db8e" stroke="#fff" stroke-miterlimit="3.97" stroke-width=".3" d="M1151.12 662.97c.4-.32.66-.72.79-1.22-.53.2-.88.64-.8 1.22"/>
    <path id="path3442" fill="#f9db8e" stroke="#fff" stroke-miterlimit="3.97" stroke-width=".3" d="M1154.65 663.12c.21-.7-.03-.89-.72-.58l.72.58"/>
    <path id="path3444" fill="#f9db8e" stroke="#fff" stroke-miterlimit="3.97" stroke-width="1.25" d="M1144.14 652.97c.7-.49 1.6-.12 2.35-.46.8-.36 1.55-.82 2.47-.84 1.92-.05 3.67.46 5.29-.94 1.41-1.22 3.2-.86 4.91-.86h7.8c-.22 1.01.9 2.18 0 3.07-.5.48-1.83.37-2.03 1.1-.27 1.05 3.45 1.86 1.6 3.94-.95 1.07-2.35.5-3.55.7-1.12.2-2.46 1.08-3.62 1.43-1.99.6-1.03 4.08-3.06 4.8-.5-1.87-.76-2.11-2.44-2.94.15-.28.31-.54.5-.8-1.45 1.09-.07-3.35 2-1.73-.5-1.4-1.77-.47-2.5.15-.71-1.26-.84-2.11.72-2.66 1.32-.47 1.79.94 3.02.86-.66-.27-1.05-1.1-.43-1.66-.49-.16-.94-.1-1.37.19-.7.38-1.3-.1-2.02.03-.71.12-1.17.66-1.7 1.08-.68.55-1.6.46-2.4.65.05-1.3 1.14-1.73 2.02-2.45-1.25-.12-2.23 1.17-3.46.9-2.4-.52-.86-2.65.29-3.42-.46.05-.92.12-1.37.21-.24.3-.5.56-.8.8-.88.03-1.38-1.02-2.23-1.15" class="land gw" data-abre="GW" data-code="GNB" data-country="Guinea Bissau"/>
    <path id="gh" stroke-miterlimit="3.97" stroke-width="1.25" d="M1246.52 705.45c-.46-2.45-.63-4.41.45-6.73.92-1.99.36-2.68 1.1-4.68.55-1.48 2.53-3.53 3.12-4.81.8-1.74.17-4.33-.36-6.12-.21-.72-.52-1.17-.8-1.84-.32-.72.14-1.47.2-2.2.12-1.69-.7-2.87-.35-4.5.37-1.72-.35-3.58-.67-5.27-.15-.8-1-1.7-.5-2.55.39-.66.93-1.6.69-2.4 4.2.37 8.05-.28 12.52.02.9.06 3.56-.17 3.77.35.4.96 1.97-.58 2.79-1.17.83-.6 3.22-.1 2.7.97-.8 1.63-.99 3.25 1.36 5.02 1.94 1.46.84.86 1.17 2.37.16.73.26.67.19 1.51-.07.85-.1 2.23-.31 3.3-1.07-.16-.62.6-1.08 1.23.64.11 1.1-.62 1.7-.45.88.24.87 1.5.67 2.15-.4 1.24.45 4.44-1.22 4.13.42 1.07 1.55 1.73 2.2 2.64.77 1.1.1 1.42-.35 2.44-.55 1.23.5 2.85-.2 4.01-.82 1.39-.9 2.08.24 3.26.54.56-.07 1.96-.32 2.6-.61 1.55-.77 2.25.12 3.8.56.97 1.74 1.83 2.63 2.52.25.19 1.77 1.09 1.8 1.2.21.82-1.14 1.22-1.35 1.91-.29.94-.94 1.74-2.07 1.62-.63-.08-.83-1.49-1.17-1.9-.74-.92-2-.57-2.97-.99.78.64 2.07.25 2.92.87 1.66 1.22-.89 2-1.71 2.14-3.14.55-5.13 2.33-7.73 3.88-1.5.9-3.16.87-4.75 1.52-.96.4-2.06.61-2.88 1.28-.7.55-1.26 1.28-2.05 1.7-.82.42-1.47.28-2.07-.36-.83-.86-1.73-.97-2.83-1.3-1.14-.34-2.06-.07-2.77-1.24.94-.03.47-.16 1.4-.13-.41-1.22 1-5.07-1.56-4.36.86-1.54-.76-4.17-1.67-5.44" class="land gh" data-abre="GH" data-code="GHA" data-country="Ghana"/>
    <path id="ug" stroke-miterlimit="3.97" stroke-width="1.25" d="M1496.5 769.6c.49-1.35.33-3.17.53-4.6.25-1.81.42-3.6.66-5.42.28-2.22 1.57-3.48 1.78-4.64.13-.7-.14-1.41 0-2.12.21-1.12 1.27-.83 1.78-1.64 1.55-2.46 4.03-4.21 6.14-6.38.81-.85 1.9-2.31 2.25-3.45.28-.94-1.46-1.92-2.13-2.28-.54-.29-1.36.6-1.76-.3-.31-.7-.06-1.66.09-2.37.44-2.19-.37-3.95.73-5.95.32-.59-.47-.74-.27-1.36.2-.65.8-1.2 1.31-1.61.5-.41 1.09-.79 1.77-.67.56.1 1.6 1.26 2.15 1.01.7-.31 1.74-1.61 2.49-.62.8 1.06 1.02 1.44 2.42 1.94-.78-1.3 1.4-1.8 2.41-1.95 1.27-.18 2.71-1.2 3.95-1.05 1.7.2 2.22 1.7 4.07.41 1.32-.92 2.25-2.3 3.26-3.53.58.8 1.21 1.93.86 2.95 1.19-.12.4.75 1.52 1.09 1.16.35 1.6.57 1.12 2.06-.63 1.94 1.3 4.02 2.32 6.32.2.45 1.36 1.97 1.34 2.36-.05.83.93 2.06 1.13 2.87.35 1.43 0 3.38-.62 4.81-.53 1.22-1.55 1.4-1.29 2.82.14.74-1.06 1.2-1.6 1.48-1.07.54-1.11 1.97-1.75 3.04-.48.8-1.27 1.22-1.6 2.04-.45 1.12-.87 1.93-1.38 3.01-.5-.03-2.33.58-2.03-1.02-1.17.44-.8.77-1.28.85-1.42.22-1.44-.64-.37-.57-.28-.57-1.23-1.28-.9-1.7-.8.3-.28.09-1.36.5l.34.57c-.95.25-.22 1.18-1.41 1.12.15 1.86-2.65.9-2.97.96-.06.04.15-1.67-.06-1.38-1.35 3.15-1.85 1.48-2.1 1.64.05.67-.46.72-1.62.83-.55.78-1.85.76-1.74 1.03 1.02 2.62-1.13 3.05-1.46 4.88-.3 1.59.29 1.67.47 2.72-7.2 0 1.56.31-5.61-.22-2.48-.19-5.39.32-6.84 2.11-.5.63-1.2 2.37-2.08 1.8-.24-.16-.37-1-.78-.97-.7.06-1.81.83-2.14 1.07.16-.65 1.08-1.78.26-2.48" class="land ug" data-abre="UG" data-code="UGA" data-country="Uganda"/>
    <path id="path3382" fill="#f9db8e" stroke="#fff" stroke-miterlimit="3.97" stroke-width=".3" d="M1537.4 948.1c.25-.72.4-1.48.36-2.24-.32.68-.66 1.47-.36 2.24"/>
    <path id="path3384" fill="#f9db8e" stroke="#fff" stroke-miterlimit="3.97" stroke-width=".3" d="M1544.96 922.97c.6-.58.46-.82-.43-.72l.43.72"/>
    <path id="path3462" fill="#f9db8e" stroke="#fff" stroke-miterlimit="3.97" stroke-width="1.25" d="M1499.89 889.34c5.53-2.08 11.09-4.12 16.66-6.1 1.25-.45 2.42-1.04 3.65-1.52.42-.16 1.48-.85 1.94-.7l4.17 4.65c.04-.93 2.04-.6 2.98-.87.81-.23 2.03-.99 2.7-.13 1.23 1.6 1.23 5.46.6 7.22-.82 2.24-2.7 4.26-1.5 6.56.28.55.12 1.2.45 1.72.37.59 1.03.9 1.4 1.5a14.9 14.9 0 0 0 2.9 3.1c.98.84.93 1 .25 2.1-.72 1.18 1.62 1.63 1.77.04a6.02 6.02 0 0 0-1.18-4.17c1.4-1.02.67-3.15 2.74-3.58 2.8-.58 3.04-1.8 3.05-4.62 0-1.03-.17-2.08-.11-3.1.1-1.67.97-3.52.26-5.15-.72-1.64-2.22-3.19-3.18-4.72-.9-1.42-1.78-2.95-2.91-4.2-.84-.92-.52-.08-1.27-.92-.22-.72.16-2.13-.3-3.52-.6-1.83.47-2.93.23-3.74-1.38-4.68-.54-3.53-.61-4.12.54-1.23 2.35-1 1.9-5.36 1.5.14 2.87.47 4.63-.04.99-.29 1.92-1.5 3-.8.76.48 1.12 1.41 1.92 1.83.61.33 2.64.44 3.31.27 1.12-.29 1.93-2.17 3.2-.8 2.34 2.55 5.15-.47 6.29-2.34.62-1.03 1.74-1.06 2.72-.44 1.59 1.01 1.97 1 3.48-.06 1.26-.88 2.25-1.5 3.9-1.18.95.19 2.77-1.63 3.66-2.03a24 24 0 0 0 4.7-3.07c1.83-1.41 3.02.96 1.43 1.72.25.11.48.23.72.36-.73.94-.31 2-.72 3.02-.21.55-1.6 1.27-.79 1.85.68.48.53 3.06.62 4.06.07.75.13 1.5.07 2.26-.1 1.14-.46.85-.14 1.86.07.38.05.75-.08 1.1-.15.7.3.92.47 1.52.27.88-.07 2.14-.66 2.83 2 .28-.6 4.68.18 4.93 1.37.44.04 5.02.47 6.09 1.51-.9-.22 2.02.22 2.73.12-1.27 1.4-1.06 1.19.2-.24 1.37.09 2.34-1.34 3.12.26.2.53.4.8.57-1.64-.4-.22.2-.7.77-.3.36-.76.5-.96.96 1.6-.57.22 1.96-.02 2.46-.8 1.68-2.49 2.61-3.3 4.29-.82 1.66-2.15 2.63-3.05 4.2-.7 1.21-5.39 2.84-5.22 4.15.08.61-3.54 1.23-4.25 1.67-.62.38-1.33.69-2.03.9-1.13.33-.94-.1-1.76.65-1.18 1.1-2.84 1.62-4.25 2.35-1.4.73-3.63 4.14-5.2 2.8 2.93 3.22-4.2 4.46-3.54 7.7-.6.1-1.01-.3-1.15-.86.15 1.14-.94 2.6-.79 1-1.37 1.2-3.03 2.01-4.14 3.48-.99 1.3-1.89 2.53-3.07 3.67-.49.46-2.4 2.47-3.08 1.64-.45-.54-1.01-2.38-2.02-1.8 1.73-.1 1.13 2.07 1.47 2.6.32.5.3 1.3.06 1.83-.1.27-.3.43-.6.47.23.41.3.85.23 1.32-.2 2.27.55 1.64 1.72 3.14.66.84.85 1.83.84 2.87-.01.4-.33 3.54.24 1.6-.43 1.7.7 3.52.86 5.25.1 1.04.48 2.12.3 3.16-.14.88-.52 1.86.42 2.46.17-1.1.13-2.1.87-3.03-.01.34 0 2.77.36.73-.2 1.17-.5 2.33-.6 3.52-.09 1.06.67 2 .53 3.04-.37 2.83-2.4 5.56-1.95 8.56-.26-1.64.95.05 1.01-1.37 1.09 1.83-1.01 4.56-2.14 5.84-1.86 2.13-4.68 3.1-7.27 4.02-2.94 1.04-5.9 2.12-8.52 3.82-1.18.77-2.42 1.45-3.07 2.76-.57 1.13-.85 2.45-2.33 2.64.99-.01 2.56 3.49 3.38 1.37-.17 1.8.77 6.44-1.09 6.32l-4.47-.18c.06-1.47-.85-3.13-.62-4.27.2-.96-.26-1.89-.91-2.75-.48-.63-.37-2.15.13-3.36.28-.68.24-3.14.27-3.84.08-1.73.06-3.45.2-5.17.11-1.55-.25-2.59-.5-4.07-.37-2.22-1.88-4.03-2.35-6.2-.22-1.04-.05-2.14-.23-3.21-.26-1.5-.56-2.94-.97-4.4-.26-.94-.68-.66-.15-1.35.53-.42 2.01-2.35 2.64-3 .93-.94 5.26-7.04 6.4-6.2-1.15-1.5 0-2.35.36-3.83.22-.9-.66-2.18.34-2.77 1.4-.83 1.75-1.96 2.52-3.39.33-.61.5-1.13.74-1.79.38-1.04.1-1.84.14-2.85l-.72.3c-.52-1.06-.9-2-.69-2.58.25-.7 1.14-1.29.8-2.23-.28-.81-1.45-.52-1.12-1.83.25-.97 1.95-1.13 1.81-2.31-.24-2.04 1.03-1.27.9-2.6-.1-1.1-.72-2.16-.5-3.27.14-.78.65-1.65.46-2.43-.39-1.55-.26-2.6-.22-4.26 0-.54-.28-.93-.43-1.46-.22-.76.53-2.06.65-2.82-1.05.3-1.59.29-2.15-.75-.53-.98-3.56-1.07-4.35-1.52-2.43-1.4-4.75-2.86-7.36-3.6-.84-.23-3.46-.16-4.37-.37-1.48-.36-.89-2.76-1.02-3.86-.2-1.6-1.4-3.03-1.26-4.66" class="land mz" data-abre="MZ" data-code="MOZ" data-country="Mozambique"/>
    <path id="path3466" fill="#f9db8e" stroke="#fff" stroke-miterlimit="3.97" stroke-width=".3" d="M1572.1 900.86l.72-.5c0 .42-.07.83-.21 1.22l-.51-.72"/>
    <path id="path3878" fill="#f9db8e" stroke="#fff" stroke-miterlimit="3.97" stroke-width=".3" d="M1148.38 589.97c.5-.65.6-1.45.65-2.24-.58.56-1.08 1.42-.65 2.24"/>
    <path id="path3882" fill="#f9db8e" stroke="#fff" stroke-miterlimit="3.97" stroke-width="1.25" d="M1144.14 579.89a6.13 6.13 0 0 1 .46-3.66c.15-.37.67-1.26 1.63-1.31l27.89-.03c1.42-.75.44-6.91.35-9.29-.18-2.38-.42-3.93 1.5-5.74 1.6-1.52 1.54-1.13 6.63-3.2l1.11-21.84 24.88-.3.34-11.06a673.9 673.9 0 0 1 27.9 19.78h-13.21l5.42 72.9c.45 1.2 1.67 1.72 1.78 2 .73 1.85-.23 2.41-.3 3.84-.07 1.67-.24 3.18-.73 3.36l-15.89.02c-9.02.31-12.89 1.55-13.68-1.12-.39 2.42-3.97 2.81-5.73 2.1-2.79-1.1-4.57-.63-5.71 2.5a15.24 15.24 0 0 0-2.56-2.91c-1.15-1.1-2.26-1.7-2.86-1.36-2.3 1.27.9 7.65-4.72 7.25.03.1-1.52-1.1-1.93-1.88-.5-.97-1.09-.66-2.06-1.49-1.05-.9-.97-2.36-1.83-2.93-2.31-1.54-1.4-1.55-1.61-2.6-.27-1.28-1.57-2.9-2.22-2.92-3.4-.05-3.64-2.8-5.85-3.86a8.1 8.1 0 0 0-3.57-.87c-2.34-.08-3.14 2.2-8.5 1.8-1.12-.08-.97-.84-1.93-.56-.94.34-2.03 3.34-2.4 4.13 0-5.2 3.42-9.44 3.91-14.54.3-3.07-.12-5.67-.5-8.68-.15-1.08-.11-2.27-.8-3.19-.6-.8-1.65-1.37-1.76-2.46.8.25 1.68-.35 1.59-1.23a1.7 1.7 0 0 0-1.16 1.08c.2-1.04 1.04-1.77 1.5-2.69.3-.6-.14-1.54.2-1.94 1.57-1.79-.82-4.97-1.41-6.74-.25.43-.41.88-.5 1.37-1.59-1.2-1.21-3.7-2.81-4.9-.26 1.06-.64 2.1-.86 3.17" class="land mr" data-abre="MR" data-code="MRT" data-country="Mauritania"/>
    <path id="path3888" fill="#f9db8e" stroke="#fff" stroke-miterlimit="3.97" stroke-width="1.25" d="M1360.14 908.85c-.11-3.51.84-7.05.44-10.57-.06-.55-.46-1.07-.24-1.63.33-.8 1.2-1.26 1.55-2.08.28-.67.32-1.38.4-2.09.1-.63.93-1.4.72-1.95-.45-1.14 1.12-4.22 1.37-5.51.35-1.84-.04-3.83.99-5.44.69-1.08.25-3.32 1.04-4.02.82-.71 2.13-2.26 2.64-3.22.76-1.42.3-3.66 2.6-3.87 1.6-.15 1.75-1.4 2.55-2.79 1.9-3.31 2.43-8.45 1.56-12.12-.4-1.7-1.07-2.9-2.03-4.33-1-1.5-1.02-2.66-1.57-4.22-.25-.7-.88-1.25-.98-2-.12-.94.02-1.8-.4-2.68-.6-1.3-1.82-2.98 0-3.9-.48.34-.83.89-.78 1.51.38-.73.81-1.48 1.4-2.06.48-.47 1.25-.44 1.33-1.19a9 9 0 0 0-1.11-5.45c-1.05-1.92-1.6-3.93-2.42-5.95-.36-.9-.33-1.9-.6-2.82-.38-1.37-1.65-2.3-2.35-3.49-.58-.97-2.6-4.38-.84-4.92.81-.25 1.65-.26 2.48-.37 1.15-.15 1.72-1.18 3-1.3 5.89-.57 11.84.1 17.76-.03 2.25-.06 4.55-.23 6.8-.15 2.1.07 1.66 1.51 2.64 2.87.4.56.03 2.27.22 3.02.33 1.35 1 2.59 1.5 3.88.39 1-.21 1.88.63 2.78.9.96 1.13 1.65 1.67 2.82.34.72 1.89 4.09 2.9 3.8.62-.16 3.73.08 3.73.07-.16-.4 3.35-1.4 3.99-1.27 1.8.4 3.44.61 5.58.61-.26-1.25.5-2.49.07-3.74 1.06.23 1.16-.79 1.02-1.56-.18-1.07.65-2.4.28-3.34 1.85 0 3.7.04 5.55.02.56 0 .23-.64.68-.8.65-.22 1.39 0 2.05 0-.41 2.06-1.54 3.24 1.08 3.24 2.3 0 4.6-.13 6.9-.07 1.9.04 1.55 1.94 1.1 3.22-.24.72-.57 1.45-.63 2.22-.1 1.21.95 2.44 1.17 3.65.45 2.55-.5 5.37-.7 7.93-.2 2.67.74 3.72 2.28 5.72 1.08 1.41 1.62 5.07 1.3 6.8-.12.6-.7 1-.9 1.57-.4 1.08.68 2.11.35 3.23.93.02 1.76-1.3 2.51-1.72.65-.35 2.62.18 3.34.38 1.28.35 2.8-1.09 4.16-1.03 1.3.05 2.76.86 3.3-.87.62.88.7 3.68.5 4.67-.24 1.38-.22 2.76-.56 4.12-.4 1.64.64 3.14.2 4.75-.42 1.61-1.58 2.93-.2 4.46-2.84 1.2-6.81.62-9.84.6-1.52 0-3.3-.37-4.8-.17-1.33.18-.67 5.11-.73 6.7-.16 4.2.07 7.16-.09 10.38-.16 3.2.01 6.47-.08 9.68-.09 3.28 2.2 4.16 4.08 6.5 2.02 2.5 4.05 5 6.78 6.78-4.46.86-8.94 1.62-13.34 2.76-1.76.46-2.43.01-4.1-.17-.73-.09-1.37.27-2.04.5-1.1.36-2.15-.18-3.2-.47-3.73-1.02-7.72-.6-11.52-1.2-1.63-.25-2.46-1.66-3.23-2.93-.7-1.13-2.9-.66-4.06-.6-9.3.43-18.87.02-28.19.02-1.92 0-2.13-.12-3.78-1.42-1.67-1.3-2.98-2.93-5.23-1.94-1.65.73-3.37 2.73-5.26 1.83-2.31-1.1-2.64.04-4.4.36" data-abre="AG" data-code="AGO" data-country="Angola"/>
    <path id="path3890" fill="#f9db8e" stroke="#fff" stroke-miterlimit="3.97" stroke-width=".5" d="M1362.37 802.94c1.29-1.01 2.74-3.61 4.44-3.95.76-.15.7-1.38 1.53-1.37.93 0 1.53 1.5 2.16 2.01-1.52 1.04-2.88 1.96-4.2 3.27-.63.64-.45.64-.16 1.37.41 1.04.18 2.27.09 3.34-.13 1.46-2.87 2.65-2.89.74 0-1.05.56-1.3.23-2.47-.23-.85-1.54-2.3-.48-3.08l-.72.14"/>
    <path id="ne" stroke-miterlimit="3.97" stroke-width="1.25" d="M1272.94 634.75c-1.06-1.25.17-3.53.07-4.97 1.27.45 2.84.32 4.18.34 1.58.01 1.98-.8 2.91-1.88 1.13-1.3 2.44-.98 4.04-1.1 2.05-.16 4.1-.35 6.15-.39.97-.02 1.92-.02 2.88.1 1.9.22.11-.59 1-.81 1.43-.37 3.3 1.55 3.92-.07.54-1.43 2.21-1.63 2.78-2.92.57-1.33.55-2.75 1.29-4.04 1.52-2.7 1.18-5.68 1.34-8.76.22-4.39.15-8.79.12-13.18-.01-2.73.23-3.44 2.94-4.07 2.4-.56 4.89-.7 7.28-1.28 2.83-.7 4.69-3.48 6.69-5.42 2.91-2.83 5.7-5.91 8.9-8.4 6.54-5.1 13.79-9.7 20.77-14.16 3.29-2.1 6.45-4.39 9.74-6.49 3.07-1.96 7.2.05 10.48.95 2.86.78 5.17 2.64 7.13 4.82.84.94 1.1.99 2.13.28 1.46-1 3.04-1.81 4.56-2.71.73 3.82 1.33 7.55 1.62 11.42.12 1.54 1.02 2.6 1.82 3.85.45.71.86 1.46 1.17 2.25.29.74-.52 1.34.12 2.08.82.94 2.2 1.74 2.55 3.02.42 1.56-1.35 3.17-1.5 4.73-.43 4.66-1.17 9.3-1.17 13.98 0 2.02-.2 4.03-.26 6.05-.05 1.63.17 3.61-.37 5.17-.47 1.34-1.8 2.48-2.67 3.57-1.4 1.78-2.93 3.45-4.35 5.21a35.37 35.37 0 0 0-5.63 9.69 8.1 8.1 0 0 1-1.26 2.35c-.27.33-.84.24-1.05.64-.65 1.27.92 4.87 1.12 6.27-.69 0-1.57-.17-2.2.23-.65.43-.54.9-1.29 1.22a11.54 11.54 0 0 0-4.13 2.74c-1.95 2.05-3.1 1.16-5.47.2-2.77-1.12-5.25-1.27-8.2-1.35-2.53-.06-4.7.4-6.63 2.13-.65.6-1.13 1.27-1.63 1.99-.86 1.24-1.38.45-2.62.56-2.91.27-4.16-1.2-6.6-2.17-1.77-.71-3.8-3.22-5.94-2.08-.81.42-1.42 1.13-2.21 1.6-.61.35-1.57-.19-1.84.4-1.13 2.42-3.08-.58-3.54-1.58-1.08-2.38-2.73-3.3-5.14-3.73-1.38-.24-2.41-1.4-3.82-1.53-1.24-.12-1.73 1.17-3.05 1.15-2.39-.05-4.57-.25-6.31 1.73-.58.65-1.18.97-1.26 1.86-.13 1.49-.17 2.73-1.06 3.98-1.2 1.69-2.66 2.8-2.57 5.04.01.47-.24 5.25-.54 5.09-1.42-.8-4.47-6.2-5.96-6.02-.47.05-.66.62-1.08.78-.55.21-1.78.06-2.14.62-.2.29.63 2.68.07 2.66-.5-.01-1.67-2.14-1.9-2.53-.79-1.28-.18-1.55.88-1.97-.34-.71-.4-1.7-1.08-2.22-1.2-.93-1.95 1-3.21.78-2.34-.41-6.15-4.1-5.07-6.55.66.47 1.3.49 2.01.14-.35-.3-4.88-3.48-5.03-3.17.33-.68-1.35-1.95-1.57-2.7-.38-1.3-.08-2.52-1.31-3.42" class="land ne" data-abre="NE" data-code="NER" data-country="Niger"/>
    <path id="zm" stroke-miterlimit="3.97" stroke-width="1.25" d="M1437.6 899.5c0-8.19.03-16.4.14-24.58.01-.88-.3-2.68.91-2.95 1.07-.23 2.39.07 3.48.1 3.63.1 7.5.73 11.03-.44-1.15-1.26-.57-2.4-.03-3.76.65-1.66-.22-2.96-.14-4.62.17-3.06 1.48-6.57.24-9.62 1.14.02 1.03 1.27 2.22 1.51 1.33.28.74 2.24.23 3.03 1.58.35 1.44.3 2.98-.37 1.5-.65 3.23-1.06 4.86-1.15-.58 1.15-.3 3.26.62 4.18.72.72 1.9.28 2.8.68 1.29.6 2.23 1.17 3.7 1.19 2.39.03 4.6 1.6 5.44-1.43.92-3.3 1.9.39 3.04 1.4.79.68.68 1.78 1.25 2.61.9 1.33 1.9.07 2.7.59 1.2.79 1.66 1.5 2.96 1.48 1.52-.02 1.17 2.48 2.19 3.42 1.49 1.38 1.77 2.55 2.62 4.32 1.07 2.23 4.2-2.1 5.38-.65-.52.41-.54 1.1.12 1.36 1.15.46.76-1.88.77-2.38.08-2.9.18-5.8.18-8.7-.53.2-1.1.25-1.63.42-.92.28-.65 1.07-1.05 1.69-.68 1.08-3.71-1.4-4.4-2.12-2.11-2.2-4.52-4-3.28-7.63.67-1.97 1.24-3.6 1.79-5.27.38-1.16-.39-3.08-.28-4.39.17-2.12 1.22-6.6-1.62-7.47.92-2.42 6.02-3.76 4.07-6.98 4.2-.9 7.94-1.16 12.74-2.23 0 .81-1 1.84-.98 2.05.07.43 1.43-.18.75.95.14.27.66-1.17 2.44.6 1.84 1.83 2.52.62 2.33-.3 2.05.03 2.58.75 3.43 2.26.37.66.78.39 1.35.19.73-.27.98.95 1.58 1.2 1.21.5 3.44.34 3.83 1.77.12.42.93.27 1.43.42.83.26 1.55.53 1.86.88.3.36.29.8.14 1.25-.4 1.2 2.38.75 2.87 2.55.16.6-.32.95-.23 1.51.15.86.8 1.17 1.4 1.7.52.47.71 2.03.93 2.67.41 1.21-1 2.36-2.16 2.71-1.27.4-.54 1.37-.23 2.34.49 1.52-.4 2.32-.45 3.78-.07 2.1-1.04 6.6 1.6 7.4-1.08 1.14-4.35 1.68-4.33 3.61 0 1.26.33 1.73.07 3.16-.37 2.07-1.71 3.3-2.2 4.74-.29.84.65 1.5 1.3 1.96.91.65 1.34.17 1.71.8-7.13 3.33-14.75 5.35-22 8.3-.93.65 1.58 3.96 1.12 5.62-.7.08-2.62.37-3.3.1-1.31-.53-2.88.28-4.12.7-1.77.6-4.05 1.65-4.44 3.7-.16.88.06 1.83-.34 2.66-.56 1.18-2.13 1.33-3.2 1.75-1.88.74-4.4 2.27-5.44 4.04-1.06 1.8-5.18 9.64-8.29 7.78-.67-.4-1.4-.78-2.15-1.02-1.1-.35-2.2 1.1-3.06.63-.68-.38-.95-1.65-1.81-1.45-.2.05-2.4.6-3.5-.43-1.24-1.17-1.8-1.98-2.79-2.25-1.05-.22-1.76.88-3.67-.25-1.52-.24-2.58.57-4.07.68-.77.06-2.25.66-2.74.47-2.6-1-4.33-3.97-6.16-6.02-1-1.12-1.78-2.02-2.86-3.06-1.02-.97-1.3-1.94-1.64-3.4" class="land zm" data-abre="ZM" data-code="ZMB" data-country="Zambia"/>
    <path id="et" stroke-miterlimit="3.97" stroke-width="1.25" d="M1522.13 691.34c.14-1.16 1.25-1.78 1.25-2.97.01-2.02 1.44-2.22 3.15-1.93 1.51.26 2.83.74 3.95-.93.78-1.16.27-3.17.11-4.44-.25-2.12-.56-4.4.23-6.45.31-.8.73-1.56 1.02-2.37.43-1.19-.04-1.98-.06-3.16a5.12 5.12 0 0 1 1.37-3.24c.88-1.02 2.19.2 2.16 1.3.5-.56 2.52-3.64 1.51-4.6-.57-.56.35-1.86.52-2.41.33-1.1-.4-2.47.57-3.36 1.56-1.43 2.18-3.3 3.14-5.22.4-.82.66-1.66 1.65-1.71.4-.02 2.36.2 2.53-.3.55-1.5.42-3.35.65-4.92.14-.9.5-1.59.87-2.4.66-1.48.5-2.85.8-4.38.56-2.9 1.78-1.84 3.97-1.86.84 0 1.02-1.73 2.2-1.04.93.53 1.45 1.77 2.04 2.6.89-2.2 1.77-4.44 2.37-6.76.34.53.73 1.2 1.3 1.51.62.34 1.33.07 1.7.82.75 1.48 1.65 1.66 3.2 1.38.57-.1 1.18-.26 1.63-.65.27-.24.5-1.12.79-1.2.52-.15 1.37 1.64 1.47 2.03 1.47-1.85 3.96.3 5.48-.1 2.07-.56 4.2 1.66 5.98 2.4 2.37 1.01 3.06 4.08 5 5.62 1.15.93 2.68 1.67 3.4 3.04.66 1.25.97 2.3 2.14 3.2 1.96 1.5 2.81 2.66 1.51 4.94-1.53 2.7-3.63 4.23-3.15 7.52.25 1.64-.4 3.63 1.95 3.47 1.37-.1 2.73-.75 4.05-1.08 1.08-.28 1.49.67 2.5.34-.12 1.7-2.09 3.15-1.14 5.14 1.14 2.38 2.18 3 3.67 5.12.49.71 1.37 3.07 1.93 3.72.56.65 1.04.44 1.7.97 1 .82 2.54 2.56 3.81 3.02 5.1 1.84 9.7 3.75 14.79 5.63 2.41.9 4.36 1.95 6.86 2.54 2.32.54 5.29.16 7.63.16l-21.39 25.39c-1.3 1.52-2.34 1.67-4.2 1.42-3.04-.41-7.3-.58-11.28 3.07-1.05.96-1.41 2.16-2.94 2.47-1.41.28-2.9.23-4.2.95-1.42.77-1.32 2.1-3.18 1.67-1.55-.36-3.73.92-5.1-.6-.59-.64-1.06-1.65-2.03-1.76-.93-.11-2.2.57-3 .94-1.28.6-3.4 1.72-4.22 2.92a77.15 77.15 0 0 0-2.11 3.28c-.97-.93-3.15-1.07-4.4-.96-.98.09-1.66-.69-2.53-.87-.9-.2-1.91.23-2.82.14-3.68-.34-.58-.81-10.27-6.64-1.65-1-4.05.13-6.08-.58-.94-.33-2.36-2.18-2.78-3.03-.59-1.19.41-2.75.03-4.05-.34-1.18-2.75-1.89-3.55-.86-.5-.48-1.18-1.88-1.58-2.5-.93-1.45-1.26-3.4-1.89-5-.47-1.2-.7-2.55-1.36-3.68-.3-.52-.65-.7-1.16-.96-.56-.28-.57-.83-.99-1.2-.26-.17-.36-.31-.66-.35-.8-.22-.87-1.07-1.3-1.65-.93-1.28-1.57-2.84-2.83-3.86a6.28 6.28 0 0 0-3.2-1.4c-1.09-.14-2.6-.15-3.18-1.29" class="land et" data-abre="ET" data-code="ETH" data-country="Ethiopia"/>
    <path id="eh" stroke-miterlimit="3.97" stroke-width="0" d="M1144.14 579.89c-1.19-2.09.57-5.63.93-7.8.25-1.47.63-2.86 1.42-4.15.96-1.56 2.71-1.57 3.3-3.52.3-1 .28-2.55 1.28-3.14.57-.34.23-1.48.67-2.12.7-1.04 3.55-4.57 2.76-5.92-.53.35-.98.82-1.3 1.37 1.25-2.73 4.39-4.74 6.45-6.84 2.75-2.81 2.22-5.71 3.56-9.15 1.1-2.82 1.94-5.93 4.68-7.49 3.02-1.71 4.66-3.11 5.9-6.44.8-2.1 2.3-5.1 1.78-4.5l33.5-.26-.48 14.6-24.85.28-1.15 21.83c-1.48 1.07-3.58 1.19-5.12 2.15-2.33 1.44-3.27 2.99-3.08 5.74.1 1.6 1.33 9.9-.37 10.39h-27.65c-2.12 0-2.46 3.46-2.23 4.97" class="land eh ma" data-abre="MA" data-code="MAR" data-country="Morocco"/>
    <path id="td" stroke-miterlimit="3.97" stroke-width="1.25" d="M1373.17 634.82c.26-.67.93-.52 1.28-1.07.3-.48.39-1.16.88-1.52.6-.45.71-2.18.97-2.86 1.41-3.7 4.57-7.08 7.09-10.05 2.3-2.73 4.93-5.04 5.1-8.72.22-4.62.32-9.24.64-13.85.25-3.56.07-8.25 1.84-11.4 1.02-1.83.35-2.68-.88-4.1-.35-.4-.8-.72-1.15-1.11-.61-.7.2-1.31-.09-2.02-.64-1.65-1.98-2.92-2.74-4.49-.64-1.32-.23-2.93-.37-4.35-.24-2.34-.94-4.6-1.3-6.93-.05-.27-.5-1.23-.13-1.41l8.24-3.91 59.57 33.72.6 32.98c-1.96-.6-2.14-.36-4.2-.04-1.37.22-3.13 0-3.57 1.28-.32.93.58 2.7-.1 3.6-.64.85-1.62 3.76-2.97 4.23-1.53.53-.9 3.2.19 4.26-2.5 2-4.12 3.24-2.18 6.03 1.3 1.88-1.74 2.67-2.58 4.26-.58 1.08-.8 1.46.07 2.34.75.74 2.02-.06 2.83-.05 1 0 1.85.47 1.2 1.26-.94 1.15.97 2.5.23 4.52.26-.13.52-.25.79-.36.58.93-.08 1.98-.07 2.95 0 1.11.14 1.13.84 1.9.64.7 2.17.31 2.27 2.21.05.85-.77 2.39-.53 3.35-.43-.73-2.5-1.43-3.42-.96-.54.28-1.3.52-1.65 1.05-.44.65-.53.24-1.03.79-.79.87-2.69.66-2.96 2.03-.11.56.34 1.04.16 1.62-.61 1.96-2.37 2.76-3.8 4.05-1.12 1.03-1.7 2.48-2.71 3.6-1.8 2-3.04 2.45-5.58 3.39-1.45.54-5.04.77-6.56.62-.52-.04-3.7.7-2.57 1.56.5.37 1.81.62 1.52 1.5a9.8 9.8 0 0 1-2.32 3.19c-.62.57-1.16 2-1.94 2.19-1.48.37-3.27.08-4.8.22-2.02.18-3.52.68-5.24 1.74-.95.6-2.73 1.1-3.17 2.24-.68-.98-1.63-1.67-1.94-2.88-.63.22-.93 1.05-1.23 1.58-.21.37-1.45.48-1.86.66-2.07.9-2.78.75-4.98.78 1.16-1.46-.14-1.99-.56-3.35-.57-1.86-1.06-3.94-2.28-5.5-1.04-1.32-2.48-2.24-3.78-3.29-1.28-1.05-2-2.32-3.04-3.56-.7-.84-2.5-2.44-1.65-3.66.87-1.25 1.28-2.13 2.9-2.05 1.8.08 3.57.81 5.35.2.79-.26 1.49.13 2.19.41.65.26 1.56-.34 2.17-.51-3.58-1.99-5.25-6.78-5.06-10.7.04-.89.5-1.6.59-2.45.09-.88-.14-1.77-.16-2.65-.02-.67.12-1.76-.27-2.35-.3-.46-1.15-.12-1.1-.9.07-1.02-.34-2.4-.55-3.42-.16-.72-1.19-.84-1.71-1.16-1.66-1.03.45-2.58-2.83-3.07-.79-.12-.56.5-1.4-.15a36.98 36.98 0 0 1-3.14-4.83c-1.1-2-.93-4.46-1.36-6.63" class="land td" data-abre="TD" data-code="TCD" data-country="Chad"/>
    <path id="path5380" fill="#f9db8e" stroke="#fff" stroke-miterlimit="3.97" stroke-width=".3" d="M1156.74 664.77c-.44.55-.4 1.45.43 1.59-.22-.59-.1-1.09.36-1.51l-.8-.08"/>
    <path id="path5400" fill="#f9db8e" stroke="#fff" stroke-miterlimit="3.97" stroke-width="1.25" d="M1156.88 664.63c1-1.24.9-3.28 2.16-4.34.85-.71 2.51-.86 3.54-1.4 1.02-.53 2.07.12 3.12-.44.69-.36 1.27-1.02 1.17-1.84-.15-1.21-2.3-1.7-1.95-2.64.31-.85 2.03-.6 2.26-1.45.26-.96-.46-2.34-.2-2.63l3.61-.01c.52.13 1.11.53 1.49.56.28.08-.36 1.72.75 1.05.76-.46 2.33.6 2.74.93.06.04 1.68.54 1.64.54 1.05-.1 1.8-.9 2.94-.78 1.66.18 3.32-.54 4.52 0-.58 1.16-1.45 2.02.12 3.33.89.75 2.21-2.1 3.25-1.71 2.5.95.88 3.94 3.07 1.45 2.81-3.2 4.52.46 5.59.2.63-.17 1.05-.77 1.63-1.25.47-.4 1.62-.5 1.85-.88.43-.73-1.34-2.44 1.1-1.81.53.13 1.8.73 1.7 1.71-.04.33.4 2 .64 2.22 1.16 1.1-.22 3.99 1.2 3.21.2 1.44 2.86 1.5 2.58 3.22-.64.03-.9-.01-1.3.48-.57.68-.9 1.58-1.13 2.42.74-.12 1.18-.73 2.03-.83 1.4-.14.97 1.63.94 2.62-.02.73-.34 1.92 1 2.67.25.14 1.37.87 1.54 1.53.24.88-.6 1.31-1.3 1.82-.43.32-.44 1.82-.43 2.5.01 1.25.45 4.06 2.2 2.94-.4 1.98-.18 1.7.94 3.03-1.35.2-1.36 1.32-1.73 2.37 2.05.34 1.85 2.1 2.37 3.67-1.06-.36-4.15-1.57-4.53-.54-.5 1.34 1.52 2.69 2.16 3.64-.77-.4-1.3 1.07-1.3 1.12.17.8.45.54.3 1.03-.17.5-1.04 1.78-1.03 1.88-.21-.18-1.3-.72-1.9-.19-.33.29.08-.56-.89-1.04-.94-.33-1.25 1.67-1.48 2.13-.66 1.33-1.16 1.6-2.63 2.2-.08-1.68-1.45-1.95-2.81-1.44.38-1.1.61-2.23.65-3.4.02-.44-.13-2.87-.27-2.65-.09.17-.27.61-.3-.84 0-.22-.51-1.02-.03-1.66-2.31-2.65-2.48-1.22-2.85-1.4-.78.62-1.02.22-2.1.1a3.6 3.6 0 0 0-2.15.49c-.38.23-2 1.08-2.16 1.44-.16-1.45 1.83-3.33 1.5-3.77-1.26-1.72.68-2.24-1.3-3.5-.59-.38.21-1.03-.08-1.57-2.1-3.87-2.9-6.87-7.64-6.16-1.28.2-1.59.6-2.71.85-1.98.45-2.6-.56-3.44 1.37-.68 1.55-1.23 3.35-2.2 3.79-.89.39-.95.71-1.36 1.58-.48 1.04-1.72.2-2.43.86-.08-.68.35-1.16 1.01-1.23a2.36 2.36 0 0 0-.58-.72c-.18.23-.34.47-.5.72a9 9 0 0 1-.07-1.44l-.79.07c.23-.89-1.07-1.06-.5-1.94-1.33 1.33-.69-2.12-1.16-2.45.07.58-.25.8-.79.65.23-.5.4-1.04.5-1.58-.3 1.06-1 .69-1.66.21-.93-.67-.44-1.15-.79-2.09-.5.18-.83.52-1 1.01-.1-1.81-3.95-1.66-2.88-3.96a3.8 3.8 0 0 1-1 .22c.56-1.06.95-2.24 1.28-3.39-.44.44-.77.94-1 1.52-.12-1.17-.58-.57-.94 0-.17-.8-.28-2.47.72-2.81-.8.44-1.64.42-2.52.43" class="land gn" data-abre="GN" data-code="GIN" data-country="Guinea"/>
    <path id="path5382" fill="#f9db8e" stroke="#fff" stroke-miterlimit="3.97" stroke-width=".3" d="M1325.36 721.65c.91-.06 1.24-.62.5-1.22a1.9 1.9 0 0 0-.5 1.22"/>
    <path id="path5386" fill="#f9db8e" stroke="#fff" stroke-miterlimit="3.97" stroke-width=".3" d="M1327.3 721.22l.72-.43c-.51 0-1 .13-1.44.36l.72.07"/>
    <path id="path5406" fill="#f9db8e" stroke="#fff" stroke-miterlimit="3.97" stroke-width="1.25" d="M1291.16 691.27c.9-3.12-.4-6.83.97-9.78.34-.72 1.6-.08 2.2-.78 1.04-1.18.1-2.62 1.16-3.81.69-.78.65-2 1.5-2.5.88-.52 2.2-1.62 1.76-2.87-.33-.98-.78-1.79.52-2.05 1.83-.38.36-2.99.17-3.77-.2-.8.08-1.5-.34-2.27-.36-.67-.91-1.2-1.26-1.86-.7-1.38.32-2.55.73-3.83.5-1.54.15-3.19.26-4.79.13-1.93.65-2.33 2-3.66a6.1 6.1 0 0 0 1.63-4.47c-.03-1.35.9-2.15 1.86-2.95 1.14-.94 2.53-1.2 3.97-1.26 1.88-.08 2.89-.75 4.61-1.19 1.01-.26 2.33.9 3.16 1.32 1.44.72 2.93.3 4.18 1.5 1.1 1.07 1.62 2.35 2.37 3.63.28.5.67 1.01 1.23 1.2 1.19.38 1.36-.95 2.3-1.05 3.16-.35 4.2-3.18 7.5-.84.45.32.96.7 1.26 1.19.14.23 1 .12 1.26.25 1.37.74 1.92 1.76 3.7 1.83 1.04.04 3.21.61 4.12.21 1.28-.57 1.71-2.23 2.8-3.05 2.65-2 6.63-2.17 9.79-1.87 1.65.16 3.13.6 4.6 1.38 1.23.65 2.77 1.6 4.21 1.07 1.39-.5 2.1-2.1 3.25-2.95.62-.47 1.23-.91 2.04-.96 1.23-.06.38-.32 1.06-.77 2.62-1.75 3.46.73 4.41 2.5.82 1.52 2.45 1.64 2.06 5.83-.05.47.67 2.31 1.08 2.64.51.41.9.03 1.52.26 3.24 1.17.3 4.37 1.27 5.9 1.26 1.94-2.76 3.43-4.22 3.28-2.2-.23-2.98 4.56-3.55 6.29-.33.98-.51 2.02-.81 3-.33 1.1-1.57.93-1.6 2.17-.02 1.11.25 2.52-.6 3.5-.72.84-1.76 1.21-2.73 1.7 1.08.22 0 2.98-.07 3.6-.23 1.8-1.38 2.82-3.17 2.89.16.93-.56 1.14-1.06 1.74-.62.74-.11 1.84-.28 2.72-.4 2.05-1.43 4.21-2.71 5.9-1.11 1.45.94 2.34-1.62 4.01-1.08.7-.43 1.47-.81 2.48-.25.66-1.13 1.3-1.47 1.92-.32.6-1.41.24-1.87.06-.56-.22-.43-1.89-.47-2.39-.04-.58-2.02-1.1-2.3-1.77-.43-1.06-.96-.7-1.24-1.93-.22.76-.28 2.1-1.24 2.3-1.22.27-1.74-1.03-2.72-.72-1.77.58-2.15 3.34-3.3 4.1-1.5.97-6.26 5.85-5.63 6.5 1.02 1.04-.81 3.7-.82 4.45 0 1.27-.48 2.32-2.03 4.78-.6-.16-1.18-1.03-.9-1.6-.65.42-1.16-.23-1.43-.73.63 2.37 1.22 2.9-1.52 3.3-1.1.16-4.67.88-3.67-1.36-.46.91-.49 1.15-1.58 1.08-1.2-.07-1-.38-2.17-1.15.55.4 1.22 2.47-.09 1.95-.87-.35.42-2.45-1.13-1.66.44.87.8 1.7.43 2.66-.71-.3-1.54-2.88-1.29-3.67-.82.72.55 2.8.12 3.77-.6 1.36-.6-1.83-.56-2.11-.13.4-.35 2.58-.43.65-.01.57-.1 1.2-.5 1.65-.02-.52-.16-1-.43-1.44.31.62.29 1.62-.66 1.53-1.71-.15-1.24.24-1.72-1.38.02 1.53-1.17 2.87-1.44.64.02 1.45-.35.5-1.4-.01a5.55 5.55 0 0 1-2.27-2.5c-.5-.93-1.11-1.94-.85-3.02.18-.72.27-1.38-.74-1.1-.18-.77-.1-1.21.7-1.37 1.55-.32.1-.87 1.25-1.57-.82.06-1.54 1.18-2.35 1-2.58-.59.95-1.5 1.56-1.58-.41-.5-.9-.58-1.44-.21l.07-.94c-.15.9-1.29 1.55-1.73.43-.4-1 .82-1.46 1.37-2.02a5.2 5.2 0 0 0-1.73 1.23c-.98-2.25-3.17-4.73-5.62-5.36a13.2 13.2 0 0 0-3.86-.38c-.96.06-2.36.47-3.19-.24 1.05.2 2.59-.49 3.17-1.36-1.07-.05-1.82 1.2-2.88.36a1.5 1.5 0 0 0-.29 1.5c-1.72.23-3.48-.1-5.19.3-.05-1.08.56-2.04.58-3.1.03-1.1-.46-1.91-.18-3.05.44-1.86.48-5.42-.6-7.1" class="land ng" data-abre="NG" data-code="NGA" data-country="Nigeria"/>
    <path id="path5410" fill="#f9db8e" stroke="#fff" stroke-miterlimit="3.97" stroke-width="1.25" d="M1328.96 464.9c.17-.85.96-1.17 1.58-1.64.96-.73 1.04-1.38 2.1-2.19a6.02 6.02 0 0 0 1.81-2.91c.66-2.14.48-3.8.58-5.86.07-1.3-.75-2.42-.57-3.71.2-1.48 1.83-4.28-.53-4.78.85-.98 2.23-1.49 2.88-2.65.24-.43.09-1.16.68-1.33.65-.19 1.05 0 1.56-.55a7.7 7.7 0 0 1 3.86-2.15c.73-.21 1.73-.76 2.5-.45.92.37 0 .81.1 1.5.77 0 .96-.37.5-1 1.41.3 1.82.1 2.39 1.37.25.56-.53.61.22 1.15.58.4.68 1.12.14 1.58.04-.04.64.67 1.26.41.84-.34 1.54-1.02 2.22-1.6.27-.22 1.2-1.21 1.62-1.02 1.03.47.9 1.49.43 2.33-.9 1.63-3.96 3.18-4.06 5.03a4.25 4.25 0 0 0 2 3.73c1.89 1.02 1.82 1.07 2.27 3.25.57 2.73-1.34 5.58-3.44 7.24-2.1 1.65-5.3 2.58-3.22 5.79.46.7 1.06 1.37 1.84 1.72.87.4 1.22-.15 2.02-.04.26.04.42 1.32.58 1.6.4.65 1.49-1.3 2.09-1.08.81.3.26.96.5 1.51.35.77 1.52 1.47.3 1.59.64.69 2.05-.07 2.65.72.5.66-.33 3.24-.15 4.21.27 1.45 1.33 2.07-.26 3.02-1.57.94-4.79 1.99-5.72 3.28-.54.43-.35 1.66-1.1 1.96-1.59.64-3.1 1.17-2.47 3.6.5 1.93 1.25 3.45.13 5.35-1.31 2.21-2.46 3.06-4.75 4.07-.55-3.62-1.59-7.1-2.3-10.67-.73-3.7-1.1-5.84-4.23-7.58a4.62 4.62 0 0 1-2.48-3.4 4.56 4.56 0 0 0-2.26-3.2c-.65-.38-1.27-.7-1.7-1.37-.44-.7-.3-1.64-.73-2.35-.92-1.46-1.42-3.02-.84-4.48" class="land tn" data-abre="TN" data-code="TUN" data-country="Tunisia"/>
    <path id="path5412" fill="#f9db8e" stroke="#fff" stroke-miterlimit="3.97" stroke-width=".3" d="M1353.22 468.5c-.12-.96-.78-.18-1-.65-.54-1.14-.01-1.5.95-1.5 2.12.03.8 1.3.05 2.15"/>
    <path id="na" fill="#f9db8e" stroke="#fff" stroke-miterlimit="3.97" stroke-width="1.25" d="M1360.14 908.85c1.05-.17 1.89-1.1 3.02-.9.96.17 1.84.9 2.86.71 2.12-.4 3.58-2.88 6-2.22 1.92.52 2.95 2.69 4.88 3.33 1.1.36 4.48.22 6.28.24 8.21.07 16.44.23 24.64-.1 2.17-.08 2.9-.24 3.93 1.67 1.3 2.44 3.26 1.9 5.6 2.16 3.08.34 6.35.2 9.23 1.2 1.1.4 2.1.54 3.08-.06.86-.52 1.69-.33 2.93-.03 1.27.31 2.01.1 2.85-.1 5.13-1.18 10.93-2.39 16.36-3.41 1.06-.2 2.12-.69 3.22-.52.64.1 1.62.72 2.26.4 2.04-1.02 2.99 1.14 4.34 2.07-.99-.26-2.13.31-3.06.68-1.16.45-1.5 2.18-2.62 1.16-1.79-1.65-5.28 3.74-6.6 4.38-.64-1.24-1.34-3.99-3.17-4.16-2.35-.23-5.29.96-7.59 1.45-2.7.57-5.9.68-8.59 1.19l-.99 31.9-7.22-.1-1.06 54.38c.17 2.48-1.95 1.44-3.13 2.56-.59.56-.55 1.1-1.71 1.5-.8.28-1.17.61-.52 1.35-1.8.53-1.71-.14-3.38-.4-1.75-.25-3.25.7-5.33.25-3.28-.7-5.23-1.92-5.38-2.52-.42-1.68-.03-.99.04-2.32-.07-.53-.64-.39-1.04-.8-.57-.6-1.07-1.86-1.67-1.48-1.9 1.2-1.38 3-2.04 3.52-.94.73-2.13 1.7-3.11.46-1.3-1.64-3.04-2.94-4.2-4.7-1.04-1.55-1.86-3.22-2.7-4.89-.43-.89-.47-1.84-.63-2.8-.16-.98-.83-1.5-1.02-2.39-.36-1.65.38-2.25-.84-3.77-.49-.6-.32-1-.3-1.77.02-1.25-.41-2.34-.55-3.56-.1-.86-.02-1.74-.27-2.6-.35-1.2.25-2.36.02-3.56-.4-2.07-1.39-3.96-2.14-5.92-.85-2.2-.22-4.07-.44-6.3-.15-1.52-.37-3.42-.23-4.2.06-.37.98-4.05.58-3.96-.1-1.98-1.1-3.93-2.22-5.52-.64-.9-1.36-1.73-1.9-2.69-.48-.89-.58-1.97-1.22-2.78-2.94-3.72-3.58-8.23-5.75-12.26-2-3.7-2.67-8.77-5.9-11.67-3.5-3.13-3.9-7.7-3.6-12.1" class="land na" data-abre="NA" data-code="NAM" data-country="Namibia"/>
    <path id="za" stroke-miterlimit="3.97" stroke-width="1.25" d="M1394.77 1006.85c.75-.7 1.89-.56 2.03-1.68.12-.94.78-2.58 1.78-2.9 1.32-.42 1.15 1.42 2.05 1.68 1.55.45-.03 2 .73 2.94 1.32 1.66 3.36 1.81 5.3 2.43 1.78.56 3.2-.23 4.94-.19 1.55.04 2.15.92 3.76.45-.97-1.1.23-1.26.87-1.52.9-.35.96-1.5 2.08-1.83.73-.2 2.23-.31 2.32-1.32l.7-31.11c.85 1.2 2.31 1.77 3.1 3.02.91 1.42 1.47 3.32 2.06 4.9.6 1.6 1.12 3.33.34 4.98-.99 2.1-1.72 3.25-.75 5.6 1.72-1.98 5.97 1.03 7.83-.78.31-.3.07-1.07.53-1.2.5-.15.95-.04 1.44-.33 1.3-.73 1.57-2.43 2.91-3.23 1.48-.88 2.42-1.84 2.76-3.6.3-1.54.25-2.81 1.51-3.96 1.1-1 2.53-1.2 3.87-.6 1.1.5 2.7 2.86 3.76 2.83 2.37-.06 5.15 2.8 7.39 1.02 1-.8 2.5.3 3.75-.62 1.34-1 1.83-2.66 2.4-4.16.3-.8.57-1.62.7-2.46.22-1.37-.44-1.27.95-1.67.81-.22 3.17-.63 3.62-1.38.8-1.36 2.36-1.97 3.02-3.4.72-1.56.42-3.17 1.48-4.65.92-1.25 1.94-1.37 3.12-2.19a19.08 19.08 0 0 0 3.68-3.31c.79-1 1.31-2.52 2.5-3.12 1.18-.6 2.58-.66 3.82-1.1 1.19-.44 1.16-.97 1.74-1.89.49-.78 1.83-1.03 2.65-1.2 3.34-.7 5.38 1.5 8.63 1.52 2.9.02 5.52-1.1 6.48 2.46.53 1.98.98 4 1.03 6.06.05 1.87 1.2 3.48 1.88 5.16 1.45 3.6 1.1 7.03.9 10.84-.07 1.46.01 3.25-.51 4.8-.26.75-.37.7-.1 2.88.12.05-.88-1.08-1.88-1.42-.95-.33-1.79-.2-2.56-.2-.64 1.25-1.6 1-2.33 2.57-.88 1.9-1.66 4.82-1.93 4.6 1.4 1.28 1.89 2.3 2.76 3.3 1.42 1.62 3.47 2.49 5.02.95.43-.42-.2-.65 1.34-2.81l1.29.03 4.53.16c-.86 3.8-1.94 7.14-2.95 10.9-.53 1.93-1.55 5.88-4.23 5.69.43.95-.82.92-1.39 1.03-.72.15-1.33 1.05-1.78 1.55-1.61 1.8-3.25 3.93-4 6.2-.4 1.3-1.54 2.1-2.19 3.25a61.9 61.9 0 0 1-3.2 5.18c-2.08 2.99-4.32 5-7.11 7.3-2.33 1.92-3.7 4.7-6.02 6.62-2.96 2.43-5.85 4.94-8.9 7.25-2.4 1.82-5.14 4-8.22 4.41-1.48.2-2.95-.6-4.42-.16-1.06.32-2.54 1.6-1.08 2.52-1.73.77-3.66-1.44-5.28-.33-1.9 1.3-2.3 2.07-4.9 1.08-1.96-.74-4.46-1.54-6.53-.75-.92.35-.46.95-1.86.45-.82-.3-2.26.21-2.68-.74a.81.81 0 0 0 0 .36c-2.11-.34-5.5.63-6.58 2.6-.94 1.72-5.67-.06-7.17.59-.9.39-1.86.13-2.7.53-1.03.48-2.16 1.47-3.06 2.17-1.14.88-.7.7-2 .37-.58-.15-1.22.18-1.73-.24-.58-.48-1.13-1.05-1.88-1.27 1.31-1.8-2.7-1.87-3.6-2.02.55-1.4-.02-2.65-1.69-2.34-1.13.2-.71 1.54-.69 2.34-2.05-.8-.43-3.24-.23-4.49.18-1.08-.42-2.2-.96-3.1-.31-.5-2.87-4.05-1.18-2.41-.72-.73-.4-1.53-1.48-1.52-.92 0 .09-2.27.18-2.59 2.33 1.37 2.93-1.3 2.97-3.1.08-3.07-.77-5.66-2.36-8.3-2.36-3.9-4.45-7.78-5.81-12.18-.63-2.06-1.04-4.17-1.8-6.19-.76-2.02-2.6-3.81-2.78-6.01" class="land za" data-abre="ZA" data-code="ZAF" data-country="South Africa"/>
    <path id="eg" stroke-miterlimit="3.97" stroke-width="1.25" d="M1455.39 499.97c-1.43-2.29 1.5-4.68 1.15-7.01-.4-2.52-2.68-4.27.94-7.25.07 1.83 2.2 1.17 3.31.85 2.02-.6 3.68.06 5.69.27 2.2.22 4.3.7 6.43 1.27.9.24 1.04 1.22 1.95 1.5.81.25 1.43.15 2.23.07.54-.06.8.78 1.4.9.67.15 1.35.15 2.02.22 2.17.21 3.61 1.57 5.64 1.9 1.96.33 3.84-.99 5.25-2.19.73-.62 1.4-1.3 2.07-1.98.58.45 1 .9 1.73.8-.41-.22-.32-.34-.87-.3.71-.37 1.42-1.06 1.6-1.87 1.22.73 2.37-.58 3.6-.57-.83.37-1.62.84-2.24 1.5.21-.12 5.17-1.62 2.8-1.8 1.76-.57 2.9 1.43 4.58 1.2.8-.12 1.56-.91 2.42-.62.79.28 1.16 1.43 1.87 1.88-.72-.5-1.45-1.6-2.38-1.66.27.75-.75 2.16.46 2.45 1.32.31.7.64 1.56 1.44 0-.3 2.35-1.29.65-2.09 1.8.42 2.41 2.1 4.54 1.91.69-.06 2.73-1.33 2.37.18 1.31-.84 2.8-.35 4.21-.78a9.3 9.3 0 0 0 3.5-1.73l6.08 16.05c-1.54 1.95-1.2 5.57-2.17 7.88-.57 1.36-.55 2.2-.54 3.63.02 1.23-1.54 2.41-1.16 3.6-.74-.68-1.73-1-2.55-1.57-1.04-.73-1.77-1.79-2.48-2.81-.9-1.3-3.55-2.16-3.17-4.11.39-1.97-1.51-3.34-2.48-4.73a18.92 18.92 0 0 1-2.85-6.43c-.9.97-1.86 3.08-.92 4.19 1.61 1.9 1.45 4.22 2.8 6.18 1.16 1.7 2.35 3.77 3.8 5.22.65.64 1.39 1.19 1.98 1.88.3.37 1.58 2.46.05 1.32 1.23.97.2 2.2 1 3a10.15 10.15 0 0 1 2.16 3.54c.27.66.72 1.23 1.1 1.82.3.46-.29 1.04-.31 1.48-.04.6.93 1.48 1.2 2 .6 1.17 1.27 2.31 1.89 3.48 2.02 3.85 4.05 7.64 5.96 11.55.75 1.52 1.85 2.62 2.79 4 .87 1.27 2.4 1.67 3.22 2.97a4.5 4.5 0 0 1-2.23-.43c-.5 2.09-.26 5.28.8 6.5 1.02 1.18-1.33 3.53-2.75 3.6-.71.04-.98-.48-1.7.32-.56.63-.85 1.7-1.11 2.5-.3.93-.73 1.75-1.76 2-.83.19-2.32.02-2.76.97-.8 1.74-.32 3.78-2.77 3.58-2.87-.23-4.32-2.55-5.83-2.48-4.97.2-7.82.66-11.71 0 .1-.4.56-1.22.28-1.62-.7-1.02-1.24.83-1.47 1.16-.94 1.33-5.6.53-7.1.53l-40.08-.09-1.43-54.18c-.15-2.53-.09-5.19-.44-7.7-.3-2.16-.85-5.35-1.82-7.3" class="land eg" data-abre="EG" data-code="EGY" data-country="Egypt, Arab Rep"/>
    <path id="path4894" fill="#f9db8e" stroke="#fff" stroke-miterlimit="3.97" stroke-width=".3" d="M1569.66 811.66c.28 1.8.54 2.44 1.96 3.68.99.85 1.27-3.5-.31-2.17a6.32 6.32 0 0 0-.65-3.9c-.24.78-1.24 1.5-1 2.39"/>
    <path id="path4896" fill="#f9db8e" stroke="#fff" stroke-miterlimit="3.97" stroke-width=".3" d="M1572.9 828.72c.77-.7 2.05-1.15 1.58-2.45-.44 1.04-1.75 1.1-1.58 2.45"/>
    <path id="path4898" fill="#f9db8e" stroke="#fff" stroke-miterlimit="3.97" stroke-width=".3" d="M1573.4 802.8c.11.92.9 1.68-.15 1.8.25.15.5.32.73.5-1.5.84-.16 2.13.47.77.73-1.61.53-3.18-.98-3.79l-.07.72"/>
    <path id="path5432" fill="#f9db8e" stroke="#fff" stroke-miterlimit="3.97" stroke-width="1.25" d="M1497.66 806.27c.58-4.23.74-1.29-1.05-5.09-.34-.72.45-2.02.06-3.23 1.75-.18 2.04-.33 3.17-1.63.91-1.04 2.39-2.46 3.3-3.58.67-.82-.74-1.61-.45-2.2.34-.73 1.78-.15 1.53-1-.17-.56 1.25-1.37 1.55-1.66.86-.83-.37-1.8.38-2.58-2.3.65-3.74-.74-2.45-2.8-1.25.12-.38-.8.08-1.53.58-.92 1.71-.55 2.2-1.5.9-1.75-.49-4.9-1.28-6.59-.55-1.18-2.47-3.88-.64-4.48 2.25-.74 7.27-.17 9.7-.1 1 3.79-.75 3.86-.62 4.3.46 1.52-.86 3.32-.81 3.69.79 1.06-.08 2.08.09 2.62.55 1.84 1 .38 1.22 4.86.12-.95.81-1.46 1.38-.43-.22-1.84.02-2.01 1.16-1.87-.86-.46-.3-1.52 1.05-2.27.27.26 1.58 3.07 2.96 1.28-.18.43.83.58 1 1.15.34 1.12.33 3.15-.66 2.7l.58.76c.5-.57-.38-.77 1.56-.93-1.17.21-2.93-6.39 3.13-2.6.27-1.63 4.37-3.46 3.13-3.59-1.5-.15-1.32.48-2.15.37-2.5-.33-2.39-.82-2.53-.71.6-.68.04-.68 2.66-.87-.23-.95-2.59-.43-2.03-.59.26-.23-.8-.63 2.09-1.02.31-.04.75-.55.62-1.13-.08-.36.35-.07.49-.25-1.14-1.2-.34-1.34-.07-1.5.27-.15.55.16 1.83.4-.25.04-.97-1.07-.4-1.71.36-.47 0 .5.34.07-.4-.28-.26-.95.04-1.3.3-.38.71-.8 1-1.17l22.85 14.32c1.93 1.23 4.34 2.11 4.92 4.47.24 1-.55.97-.76 1.84-.16.63.95 1.36 1.31 1.89 1.25 1.83 3.73 3.06 5.36 4.53.97.88 5.58 3.85 5.4 5.13a23.86 23.86 0 0 1-1.86 6.25c-.44.96-.9 1.92-1.21 2.93-.15.48-.25.97-.29 1.47-.04.68.59 1.3.48 1.91-.46 2.6 3.73 2.8 3.2 5.56 2.27-.72 1.97 1.96 1.12 3.03-1.35 1.71-.56 3.73-1.48 5.39 1.57-1.43 1.47 1.53 1.1 2.29a6.87 6.87 0 0 0-.8 3.71c.15 1.16 1.85 3.1.57 3.36.97.18.4 1.98 1.15 1.9 1.22-.12.6 1.23.33 1.82-.49 1.08.78 1.48 1 2.47.13.56-.3.88 0 1.44.4.73.57 1.17-.18 1.8 1.27-.24 1.77.84 2.01 1.87-.1-1.8 4.29.79 2.88 2.77-3.02 2.34-5.68 3.71-8.48 5.43-1.01.36-1.16-.28-2.18.07-1.08.37-2.7 1.66-3.8 2.02-1.08.35-2.38-1.76-3.6-1.15-1.42.71-2.02 2.86-3.53 3.52-2.5 1.11-3 .26-3.8-.42-1.55-1.34-2.12 1.12-3.84.92-1.97-.23-2.64.04-3.72-1.33-.84-1.06-1.81-1.55-3.04-.41-.87.8-3.89.66-5.44.34-.14-.14-.22-.95-.41-1.24-.55-.82-1.1-1.63-1.56-2.53-.63-1.26-.2-2.62-.46-3.95-.35-1.77-.05-3.41-.5-5.16a8.73 8.73 0 0 0-3.04-4.63c-1.4-1.1-1.68 1.03-1.55 1.36-1.43-1.55-2.78-.1-4.13-1.58-.42-.46-2.02-.58-2.64-.94a9.01 9.01 0 0 0-3.56-1.34c-.24-.03-.46-.42-.58-.64-.5-.62-.9-.47-1.54-.79-.6-.3-1.39-.2-1.98-.5-.54-.3-.67-.97-1.17-1.22-.4-.2-.88.29-1.31.16-.7-.2-.8-.95-1.18-1.47-.73-1.03-1.66-1.21-2.66-1.14-.47-1.06-2.95-6.12-4.1-9.17-1.05-2.8-.26-8.04-4.2-9.53-.6-.22-.1.46-.8.14-1.44-.67-2.88-2.3-.32-4.82.99-.97-.69-2.82-1.14-4.47" class="land tz" data-abre="TZ" data-code="TZA" data-country="Tanzania"/>
    <path id="path5778" fill="#f9db8e" stroke="#fff" stroke-miterlimit="3.97" stroke-width=".3" d="M1336.95 731.88c.53-.63 2.99-5.29.8-4.84-.83.18-1.2.69-1.48 1.45-.33.91-.91 1.03-1.46 1.7-.64.78 1.74 1.47 2.14 1.69" data-abre="GQ" data-code="GNQ" data-country="Equatorial Guinea"/>
    <path id="path5784" fill="#f9db8e" stroke="#fff" stroke-miterlimit="3.97" stroke-width="1.25" d="M1344.08 745.85c.28.06.54.01.79-.15-1.58.77-.15-1.55.13-2 .8-1.28.16-3.14.74-4.68 1.05 2.08 1.75 1.56 3.12 1.86l8.21-.1.05 10.02-9.06-.2c-.59.08-3.37.92-2.32-.36-.93-.48-3.12.53-3.68-.65-.53-1.09 1.55-2.89 2.02-3.74" class="land gq" data-abre="GQ" data-code="GNQ" data-country="Equatorial Guinea"/>
    <path id="ls" stroke-miterlimit="3.97" stroke-width="1.25" d="M1471.88 1016.06c.95.94.87 2.3 1.64 3.27.67.85.44 1.96 1.14 2.66.88.87 3.18 3.8 4.7 2.57.66-.54 1.23-2.34 1.7-3.12.73-1.24 1.99-1 3.2-1.33.87-.24 2.74-.98 3.11-1.9.48-1.18.53-1.85 1.37-2.9.31-.38 1.32-1.45 1.15-2.03-.53-1.82-1.28-1.93-2.5-3.2-.93-.98-1.94-1.9-2.87-2.9-.8-.85-2.19.5-2.92.82-.82.35-1.2.73-2 1.17-.94.51-1.9.33-2.65 1.28-.8 1.03-1.2 2.31-1.92 3.4-.82 1.24-2.02 1.38-3.15 2.2" class="land ls" data-abre="LS" data-code="LSO" data-country="Lesotho"/>
    <path id="bi" stroke-miterlimit="3.97" stroke-width="1.25" d="M1492.25 783.29c.94-3.04 2.58.28 2.82.31 3.36.39 4.03-.7 4.3-4.06 1.85 1.58 1.26-.71 5.43.73-.7.35-2.5 2.29-1.1 2.23-1.18 3.07 1.15 3.19 2.45 2.8-.8 1.2.98 1.71-.71 2.92-1.04.74-1.01.32-1.25 1.67-.06.33-1.27.16-1.47.59-.23.47.73 1.56.61 1.86-.07.2-.59 1.24-1.47 1.88-1.37 1-1.56 2.2-3.03 3.14-.72.46-1.45.6-2.1.6-.26-.87-1.81-4.16-2.11-5.24-.44-1.56.18-3.17-.86-4.52.12-.77.5-1.7-.12-2.54-.54-.75-1.15-1.46-1.4-2.37" class="land bi" data-abre="BI" data-code="BDI" data-country="Burundi"/>
    <path id="dj" d="M1588.66 664.13c0-2.33-.9-4.63.5-6.73 1.06-1.58 2.03-3.01 2.95-4.67 1.07-1.93 1.61-.9 3.15-.48.78.2.73-1.02 1.04-1.42.47-.62 1.29-.87 1.94-1.25.67 1.47 3.47 4.2 2.12 5.92-.7.88-2.86 1.89-3.9 2.3-1.05.41-1.2 1.67-2.4 1.86.8 1.03 3.16-.66 4.32-.21 2.08.8 0 2.84-.55 3.99-.84 1.72-2.17-.08-3.47.26-1.33.35-4.82 2.1-5.7.43" class="land dj" data-abre="DJ" data-code="DJI" data-country="Djibouti"/>
    <path id="cg" stroke-miterlimit="3.97" stroke-width="1.25" d="M1355.6 793.58c.58-1.76.93-2.29 2.39-3.4 1.28-.97 1.74 2.28 3.43 1.25.24-.15-.07-1.6.19-2.15.56-1.17-.65-1.43-1.34-1.87-.61-.39 1.12-4.22-1.57-3.47.94-1.29.67-2.83.28-4.25 1.09.25 1.54.14 2.59.16.46 0 .68.7 1.12.6 1.3-.31 3.58.02 3.29-1.93-.2-1.33-.65-4.17 1.9-2.8.93.5 2.58 3.29 1.98 4.33 1.18-.68 2.3.8 3.52.5 1.04-.25 2.03-1.93 2.3-2.88.33.58.9 3.84 1.63 3.78.54-.04 1.96-1.46 1.87-2.07-.1-.63.05-2.78.69-3.15.84-.5 1.64-2.1.57-2.81 1.45-.51.74-3.3.42-4.31-.47-1.55 1.13-3.27.39-4.64-.44-.81-1.57-1.05-2.4-1.05-.44-.34-.04-1.46-1-1.56-2.5-.24-.56-1.55-.86-3.09-.21-1.06.16-3.14 1.14-3.85 1.03-.74 1.92-.37 2.59-1.77.5-1.09-.3-1.9-.71-2.85-.73-1.71-.97-3.32-3.2-2.97-1.91.31-3.62 1.36-5.52 1.68.54-1.42-.06-2.96-.19-4.4-.14-1.57.86-3.06.9-3.86 0-.65 7.7.2 8.37.13 1.29-.14 1.74.2 2.97.3 1.03.07 1.18 1.46 2.56 1.08 2.72-.75 5.57 1.18 7.43 3.01.88-1.25 0-2.18.06-3.5.04-1.09 1.13-1.74 1.52-2.7.55-1.33 1.23-2.64 1.56-4.06.26-1.14-.16-2.2.1-3.3.18-.83.41-2.07 1.25-2.53 1.07-.59 2.41 0 3.56-.5 1.24-.53 2.2-1.38 3.58-.73 1.36.63 2.29 1.2 3.82.95 1.89-.3 4.35-1 4.1 1.64-.23 2.26-1.83 5.4-2.9 7.33-1.28 2.28-1.26 3.78-1.28 6.41a15.02 15.02 0 0 1-.71 4.36c-.49 1.53-.86 2.37-.88 4.05a54.52 54.52 0 0 1-.15 3.24c-.08 1.09-.39 2.47-.66 3.53-.68 2.7.61 4.44-1.63 6.9-2.02 2.22-4.14 2.84-5.5 5.32a34.89 34.89 0 0 0-1.7 3.73c-.96 2.4-3.27 2.76-3.13 4.22.24 2.4.04 4.75.03 7.4 0 2.6-1.14 6.58-3.6 7.01-.9.16-1.84 1.1-2.12 2.05-.15.51-1.78 1.2-2.25 1.78-.86 1.04-1.49 2.26-2.48 3.28-1.27 1.3-2.52-.25-3.26.71 0-.93-.84-2.6-.2-3.36.51-.61.77-1.16-.28-1.48-1.3-.4-3.08 2.3-4.2.81-.56.59-.46 1.32-.76 2.02-.38.92-1.61 1.26-2.27 1.94-.07-1.2-1.75-1.37-2.02-2.52-.9 1.65-1.82-3.27-3.36-.86-.53.83-1.4.76-2.06 1.32-.66.56-1.77 1.87-2.45 2.61-1.58 1.76-2.06-1.51-2.32-2.46-.66-2.46-3.33-4.6-5.14-6.3" class="land cg" data-abre="CG" data-code="COG" data-country="Republic of the Congo"/>
    <path id="rw" stroke-miterlimit="3.97" stroke-width="1.25" d="M1491.18 781.13c-.53-1.1 2.22-2.96 2.19-4.41-.05-2.56 1.1-3.67 3.28-4.93.27-.16 1.57-.99 1.91-.72.46.36.64 1.59 1.38.77.58-.64 2.48-3.47 3.55-3.1-.5 1.46.76 3.31 1.43 4.4.83 1.36 1.68 3.69 1.46 5.25-.28 1.96-1.4 2.21-3.06 1.58-1.87-.71-2.33 1-3.94-.43-.24 1.77-.09 3.7-2.23 4.14-1.09.23-2.1.37-2.64-.72-.58-1.2-2.14-1.1-2.26.33-.68-.64-1.01-1.22-1.07-2.16" class="land rw" data-abre="RW" data-code="RWA" data-country="Rwanda"/>
    <path id="sn" stroke-miterlimit="3.97" stroke-width="1.25" d="M1140.03 632.09c-.44-.02-.83.13-1.15.43-.13-1.23 2.17-1.61 2.88-2.32a19.55 19.55 0 0 0 3.69-5.59c.43-.94 2.52-9.94 4.72-7.87 1 .93 6.25 0 7.1-.99 1.3-1.52 6.4.18 7.48 1.47 1.45 1.74 1.63 2.44 4.02 2.69 1.3.13 2.74 2.67 2.46 3.92-.13.58 1.76 1.6 2.1 2.22.41.77.62 1.66 1.22 2.32.59.64 1.79.72 2.18 1.5.57 1.16 2.3 1.8 2.47 3.15.07.6-.93 1.32-.24 1.93.58.52.99.85 1.07 1.74.1.93.91 3.2.15 3.9-.79.17-.86.55-.2 1.15.15.44.4.81.75 1.1.69.4.02 1.14.99 1.42.52-2.05 2.16 1.5 2.45 2.06.42.84.65 1.47.41 2.44-.26 1.1.47 2.51.09 3.41-1.25-.53-2.6.3-3.92.08-1.37-.24-2.16.56-3.46.74-1.32.18-3.45-2.18-4.56-1.44-.86.58-.55-1.05-.73-1.1-1.18-.35-.78-.56-1.77-.56l-12.64-.02c-1.65 0-2.35.1-3.6 1.08-1.09.86-2.59.78-4.21.73-1.41-.05-2.4.79-3.71 1-.66.1-1.35-.12-1.93.29-.14-.33-.83-1.04-.47-1.43.9-1 1.43-1.5 2.63-.73.9.57 2.03-.32 2.99-.34.7-.01 1.05.53 1.77.3.56-.17.82-.06 1.33.11.92.3.86-2.02 1.9-2.38-1.55.11-.65 1.42-1.6 2.1-.8.57-2.97-.2-3.23-1.16-.57 2.42-5.39.66-4.32-.58-.46.65-.42 1.74-1.36 1.95-.17-.6 0-1.07.5-1.44-1.29.28-.58-1.65-.3-2.51.43-1.29 1.89-1.37 3.04-1.37l4.12-.01c.76.42-.88-.27.47-1.15 1.17-.77 2.38-.25 3.53-.57 1.28-.37.6-2.19 2.3-1.13 2.36 1.47 4.74 3.02 7.49 2.1 1.05-.35 2.22-1.37.87-2.09-1.68-.9-2.02.39-3.33.33-1.34-.07-1-2.06-2.53-1.45-.58.23-1.11-.57-1.3-.96-.4-.8-1.63-.53-2.38-.06-1.07.65-1.3-.38-1.86.2-.41.42-.27.97-.79 1.26l-7.5-.04c.3-.62-.3-1.04-1.04-1.12.12-.6.5-.84 1.08-.57a3.08 3.08 0 0 1 .14-1.8c-.44.82-.97 1.44-1.94 1.58-.26-.8 2.07-2.86 2.88-2.95-.89-.37-3.25 1.76-3.24 2.6 0-2.38-1.45-6.66-3.96-7.57" class="land sn" data-abre="SN" data-code="SEN" data-country="Senegal"/>
    <path id="tg" stroke-miterlimit="3.97" stroke-width="1.25" d="M1269.78 663.19c1.48.39 3 .54 4.4 1.17 1.15.5 2.94.2 3.79-.2-.59 1.66-1.84 4.48-.5 6.08.75.91 3.52 1.94 3.64 3.17.18 1.84-.23 3.98.7 5.66 1.06 1.89 1.57 3.17 1.53 5.41-.07 3.9-.05 7.77.05 11.67.02.61.2 2.93-.87 2.9.36 1.12.16 2.4.7 3.48.43.88 1.08 1.7 1.17 2.7-1.59.15-3.18.87-4.61 1.52-.01-.74-1.86-1.67-2.35-2.11-1.05-.95-1.87-1.6-2.54-2.82-.9-1.66.86-3.29.8-4.98-.03-1.13-1.28-1.24-1.06-2.33.28-1.31 1.02-2.05.85-3.49-.1-.76-.25-1.55-.01-2.31.15-.48.82-.91.66-1.44-.44-1.48-1.94-2.13-2.47-3.49 1.67-.16.56-2.53 1.06-3.6.28-.6.34-1.6.04-2.19-.57-1.14-1.42.1-2.25-.04.46-.63.01-1.39 1.08-1.22-.23-1.2.61-3.23.21-4.22-.69-1.71.54-1.9-1.22-2.9-.92-.52-2.2-2.3-2.1-3.4.1-.85.9-1.4.56-2.32-.14-.37-.97-.39-1.26-.7" class="land tg" data-abre="TG" data-code="TGO" data-country="Togo"/>
    <path id="path5980" fill="#f9db8e" stroke="#fff" stroke-miterlimit="3.97" stroke-width=".3" d="M1339.04 765.65l.29.57c.27-.49.2-.92-.22-1.3l-.07.73"/>
    <path id="path6014" fill="#f9db8e" stroke="#fff" stroke-miterlimit="3.97" stroke-width="1.25" d="M1338.03 767.23c-.47-.64-.83-1.46-.43-2.23.02.59.24 1.09.65 1.51.16-1.63 1.13-.28 1.08.65.16-2 2.19-3.13 2.4-5.08.16-1.35-.7-3.97.48-5 .05.66.54 1.13.86 1.66.22-1.08 1.8-.48 2.3.43-.13-.92.86-1.26 1.59-1.23-1.83 0-3.23-.38-4.27-1.99-.41-.64-1.76-1.46-.27-1.75.63-.13 1.48.2 1.5.94.54-1.2-.36-2.78-.02-4.06.2-.7 1.05-.63 1.57-.35.93.51 1.59-.11 2.61-.11l8.97.14-.02-9.89c.4-2.3 1.35-1.41 3.07-1.34 1.46.07 3.26.27 4.8.18 1.47-.08 2.97.42 3.95.37 2.34-.12 4.2-1.35 2.61 2.36-.98 2.31.62 4.5-.18 6.58 1.73-.3 3.28-1.22 5-1.59 3.19-.7 2.8 1.2 3.76 2.8.9 1.52 1.67 3.72-1.37 4.43-1.67.39-1.76 3.24-1.6 4.56.07.63-1.26 2.36.23 2.44.73.04 1.45.6 1.37 1.13-.12.76 1.6.62 2.24 1.25 1.4 1.4-.3 3.17-.05 4.68.16.96 1.3 3.82-.42 4.7 1.08.73.33 2.61-.68 3.02-.28.12-.68 2.52-.6 2.61.63.74-1.08 2.53-1.91 2.44-.87-.09-1.17-3.1-1.56-3.82-.27.93-1.37 2.84-2.44 2.97-1.07.13-2.33-1.2-3.4-.59.73-2.83-4.68-7.3-3.91-2.58.45 2.76-.63 2.8-3.21 3.04-.83.08-.6-.62-1.4-.56-1.07.08-1.3-.02-2.35-.26.39 1.42.66 2.96-.28 4.25 1.04-.37 1.75.21 1.7 1.25-.04.9-.22 1.66-.1 2.12.44.43.98.43 1.26.85.62.95-.1 1.08-.02 1.89.07.66.48 1.57-.7 1.63-1.23.07-1.26-.99-2.16-1.54-.9-.55-2.86 2.81-3.08 3.44-1.66-1.3-3.1-4.01-4.25-5.76-1.69-2.57-4.23-4.63-6.42-6.76 1.22-.75 1.62 2.02 2.74.64-.8.08-1.97-.93-2.84-1.15-1.42-.34-2.44-3.6-3.35-4.75.91.08 1.24 1.08 2.1 1.3-.78-1.25-.92-.95-2.03-1.6-.5-.3-.35-1.18-.47-1.63-.3-1.08-1.08-1.94-1.62-2.9.7.58 2.1 1.85 1.87 2.89a5.72 5.72 0 0 1 2.24-.36c-.41-.32-.75-.7-1-1.16-.17.57-.6.87-1.17.58.1-.75.7-1.44.37-2.23-1.13 3.3-3.2-3.06-3.74-3.46" class="land ga" data-abre="GA" data-country="Gabon"/>
    <path id="mw" stroke-miterlimit="3.97" stroke-width="1.25" d="M1518.94 878.13c.25-.5 1.6-2.66 2.07-4.1.48-1.43.38-1.82.09-3.7-.27-1.73 3.62-2.82 4.42-3.67-2.82-.86-1.64-5.49-1.65-7.53 0-1.7 1.1-2.42.17-4.13-1.08-2 .52-1.56 1.6-2.35 1.26-.94 1.56-2.88-.54-5.33-1.7-1.96.42-2.56-1.18-3.63-1.32-.87-1.84-.84-2.15-1.16-.17-.18.32-1.27-.15-1.83.23.17 1.89.8 2.68.9 1 .14.73.9 1.56 1 .81.12 2.61-.03 3.12.95.02 1.3.08 2.85 1.68 4.78 1.44 1.74.07 2.09.28 3.48.18 1.18.62 6.73.64 7.37.08 2.55-3.23 5.1-2.35 6.6 3.38 5.86 2.3 5.77 2.11 6.95-.78 4.89 2.54 3.78 2.03 6-1.24 5.45 2.05 4.56 1.9 1.97l2.71 3.49c.64.32.26-4.48-1.56-5.91-1.64.25-.93-1.3-1.14-1.74 1.3.63 1.44.72 2.98 3.04 1.01 1.54 1.91 3.15 3.29 4.75 1.52 1.78 1.56 3.48.99 5.73-.5 1.97.24 3.9-.09 5.96-.14.88-.4 1.94-1.16 2.5-.85.63-2.05.43-2.85 1.12-.8.68-.54 2.14-1.7 3.07a8.23 8.23 0 0 1 1.17 2.97c.03.4.02 1.6-.35 2-.37.4-1.79.3-1.58-.43.43-1.57 1.17-1.14-.48-2.72-1.12-1.07-4.19-4.09-4.34-5.29-.27-2.1-.83-1.61-.4-3.25.18-.75.64-2.35 1.18-3.06.85-1.13.7-1.44.84-2.86.16-1.67.17-3.88-.97-5.54-.45-.65-1.8.24-3.01.39-.99.11-2.45-.17-2.5.75-.57-.62-4.37-5.06-4.6-4.97-.98.4-3.02-1.78-2.76-2.57z" class="land mw" data-abre="MW" data-code="MWI" data-country="Malawi"/>
    <path id="ma" stroke-miterlimit="3.97" stroke-width="0" d="M1175.74 520.2c.34-.38 1.47-2.17 1.86-2.3 1.42-.52 2.96-.59 4.43-.91 2.71-.6 5.46-1.46 7.51-3.42 2.01-1.93 4.1-3.44 6.2-5.23 2.02-1.7 3.56-3.99 5.17-6.06 1.1-1.4 3.61-5.46 1.49-7-.82-.6-1.4-.61-.87-1.71.52-1.1.46-2.19.52-3.38.17-3.32 1.37-4.8 3.4-7.27 1.16-1.42.84-2.86 1.33-4.48.35-1.18 1.32-2.1 2.2-2.9 1.88-1.7 3.37-3.82 5.73-4.88 2.56-1.16 5.3-2.07 7.75-3.47 4.85-2.76 7.19-9.5 9.03-14.45.18-.48.82-2.93 1.56-2.85.9.1 1.83-.28 2.6-.7.98-.52 1.16.78 1.45 1.48a6.6 6.6 0 0 0 2.47 3.1c2.48 1.77 4.54 1.28 7.37.94 2.35-.28 5.35 1.15 6.78-1.62-.02.9.22 1.13.35 1.81.13.73 1.46 1.1.3-.08.63.87 1.75 1.32 2.76.81 1.03-.5 1.64.55 2.28 1.13.68.63 1.89.99 2.3 1.88.46 1.01-.54 1.94.87 2.52-.77.6-.52 1.7-.37 2.5.23 1.28-.2 2.4-.05 3.63.11.99.75 1.62.5 2.68-.36 1.6-.18 2.17.58 3.57.39.72.04 1.35.42 2 .58.98 1.48 1.37 2.33 2.04 1.56 1.24-3.12 3.3-.61 4.24-2.59.66-11.65-2.44-12.98 1.07-.7 1.83-2.5 2.53-4.46 2.36-1.48-.12-3.3 2-1.28 2.55-1.71 1.56 1.42 2.72.67 3.46-.85.84-2.35.54-3.27 1.21-.97.7-2.03 1.76-3.17 2.16-.86.3-1.84.27-2.65.73-1.58.87-2.21 2.72-3.37 4-1.32 1.49-3.76 2.06-5.68 2.14-1.45.06-3-.55-3.58 1.17-.63 1.84-2.43.46-3.88.57-1.02.08-1.6.58-2.26 1.3-.67.71-1.46.56-2.29.9-.95.38-1.55 1.32-2.31 1.96-.81.68-1.82 1.1-2.65 1.77-1.62 1.32-3.04 1.5-2.88 3.78.16 2.26-.08 4.77-.33 7.01-.11.95-30.2.24-33.27.24" class="land ma" data-abre="MA" data-code="MAR" data-country="Morocco"/>
    <path id="lr" stroke-miterlimit="3.97" stroke-width="1.25" d="M1183.09 699.62c1.04-.38 1.07-2.03 1.81-2.78 1.36-1.38 3-2.56 4.29-4 .84-.95.25-2.22.9-3.06.99-1.25 1.6-.54 2.26-2.38.26-.74 0-.85.18-1.01-1.37-.45 1.37-.43 2.06-.19.67.23 1.06-.55 1.71-.5.9.05 1.56 1.1 2.19 1.61-.42.54-.2 1.06.02 1.61.16.41-.1 1.36.35.91.48 2.11.25 4.01-.44 6.05 1.35-.5 2.72-.24 2.8 1.44 1.64-.66 2.32-1.14 2.84-2.83.16-.5.3-1.47.96-1.57.74-.1 1.4 1.47 1.65 2.03.94 2.05.94 3.15.6 5.35-.15.97-.76 1.8-1.2 1.93-.58.2-.92.82-1.01.9.07.24.47.64 1.64.67-.58 2.1 3.65.39 4.09 1.96.15.56-.14 1.33 1.02 2.1.92.6 1.83 1.37 2.16 2.33.8 2.22.02 3.48-.3 4.64-.7 2.57-1.66 4.36-.49 6.79-1.19.22-2.12-.26-3.09-.81-1.26-.72-2.8-.82-3.96-1.77-2.1-1.73-4.83-2.51-6.77-4.44-2.17-2.16-3.9-4.73-6.11-6.85-.7-.66-5.83-2.44-4.62-3.6-.93.1-2.08-1.34-2.88-1.72-1.6-.77-1.46-1.66-2.66-2.8" class="land lr" data-abre="LR" data-code="LBR" data-country="Liberia"/>
    <path id="cf" stroke-miterlimit="3.97" stroke-width="1.25" d="M1380.58 707.25c.49-.8 1.22-1.32 1.93-1.9 1.1-.9 1.2-1.95 1.91-3.08 1.2-1.94 2.03-4.83 3.38-6.67 1.68-2.28 1.95-.72 4.1-1.35 1.13-.32 2-.56 3.1-.9 1.08-.35.79-1.53 1.93-1.94.3 1.21 1.25 1.9 1.94 2.88.6-1.2 2.45-1.78 3.01-2.2 1.79-1.36 4.59-1.91 6.72-1.91 1.87 0 3.7.52 4.62-1.2.64-1.22 3.26-3.38 3.12-4.55-.08-.72-1.69-.53-1.76-1.46-.1-1.42 4.25-1.45 5.39-1.44 3.56.06 7.47-1.33 9.8-4.22 1.21-1.51 1.97-3.14 3.55-4.31.8-.6 3.03-2.62 2.58-3.55-.56-1.16.36-2.33 1.77-2.67 1.6-.39 2.83-2.39 4.68-2.43 2.25-.05 2.76 1.4 3.76 2.6 1.55 1.9 3.25 3.3 4.17 5.32.9 1.96.96 3.74.84 5.8-.12 2.05-1.9 2.33-1.63 3.84l.79-.29c.21.8-.23 1.52-.5 2.23 1.6.3 3.48-.12 4.96.7 1.6.88-1.02 3.16 1.98 3.67 1 .17 2.39.06 3.25.7 1 .76 1.5 1.6 2.59 2.4 1.68 1.26.39 2.23.37 2.86-.03 1.06 1.47 1.82 2.28 2.3.88.53 1.85 1.1 2.76 1.57 1.78.9 1.24 1.4 1.89 2.44.46.73 2.44 1.1 1.9 2.18-.73 1.45-.14 1.7.75 2.53.82.76-.1 1.4 1.3 2.31.88.59 1.77.88 2.75 1.38 1.57.8 2.16 1.76 2.09 3.47-.07 1.6 1.02 2.47 1.51 3.82-1.26-1.37-2.94-1.92-4.06-.76-.47.5-1.45.37-2.03.31-.29-.1-.56-.07-.82.06-.65.33-.89-.29-1.38-.48-1-.39-1.82-1.2-2.89-.9-2.12.6-2.2-.8-3.55-1.01-.86-.14-1.46.42-1.3 1.28.28 1.4-1.38 1.61-2.35 1.92-.98.3-2.32.75-3.23.1-.48-.36-1.55-1.9-1.83-.94-.4 1.31-3.08 2.18-4.2 2.39-2.08.38-3.41 2.32-4.3 1.37-.98-1.09-2.1-2.65-3.74-.73-.5.59-.45 1.47-.84 2.1-.52.88-.63 2.07-1.57 2.71-1.3.9-4.38-1.06-6-1-.96.04-1.14.32-2.25-.05-1.14-.38-1.53.17-2.32-.8-.8-.99-2.46-.16-3.57-.36-1.4-.25-1.42-2.17-2.2-2.93-1.36-1.31-3.4-2.23-4.7-3.02-1.83-1.11-4.44 1.2-5.37 2.8-.53.9-1.29 1.81-1.65 2.8-.28.77-1.39.64-1.68 1.07-.46.7.71 2.15.62 2.97-.12 1.18-.24 1.7-.18 4.35-1-1.65-3.52-.22-5.22-.48-.76-.1-2.07-.73-2.77-1.05-1.36-.63-2.48.65-3.86.92-2.04.4-3.66-.3-4.1 2.22-.25 1.36-.11 2.84-.36 4.16-.33 1.77-1.53 3.48-2.13 5.18a36.32 36.32 0 0 1-.96-5.76c-.14-2.02-2.28-1.92-3.34-3.1-.52-.58-5.95-6.92-3.47-6.98-1.28-.91-1.02-2.9-2.34-3.93-1.7-1.34-1.46-3.26-1.53-5.26-.03-.75-1-1.27-.98-1.77.04-.74.47-1.5.52-2.28.06-.86.06-1.78-.18-2.6-.23-.79-1.18-.43-1.47-1.45" class="land cf" data-abre="CF" data-code="CAF" data-country="Central African Republic"/>
    <path id="zw" stroke-miterlimit="3.97" stroke-width="1.25" d="M1461.94 913.68c.97.22 1.92.43 2.9.07.94-.34 1.4 1.07 2 1.46.67.43 1.82-.63 2.47-.73.84-.13 2.09.81 2.8 1.12 2.1.9 3.37-1.01 4.5-2.54 1.51-2.04 3-3.94 4.08-5.76.52-.87 1.24-1.22 2.02-1.83a14.28 14.28 0 0 1 3.48-1.88c2.46-1.02 2.9-1.32 3.05-4.11.07-1.37 2.37-3.07 3.61-3.56 1.17-.46 2.59-1.1 3.84-1.14 1.52-.06 3.05.42 4.56.04 0 2.86-.25 3.14 2.93 3.14 1.98 0 3.08.48 5.03 1.27 1.08.43 3.59 1.9 4.6 2.44 1.48.79 3.96.45 4.55 1.7.43.92 1.18.99 2.05.73-.22 1.33-1 2.1-.38 3.46.73 1.61-.18 2.8.32 4.3.48 1.47-.61 3.1-.3 4.7.21 1.1.88 2.01-.1 2.89-.71.64-.06 2.14-.48 2.38-1.03.58-1.3.5-1.7 1.78-.17.58.78.79 1.07 1.04.23.22.03 1.07 0 1.31-.1.6-.58.91-.74 1.45-.13.42.52 2 .65 2.47l.72-.3c-.08 1.58.55 2.2-.4 3.8-.77 1.28-1.26 3.4-2.68 4.08-1.56.73-.37 1.72-.66 2.93-.36 1.48-1.51 2.34-.36 3.82-1.2-.87-6.6 7.13-7.6 7.76-.95.6-1.43 1.94-1.82 1.93-.85-1.76-4.2-1.03-5.89-1.02-1.47 0-2.83-.57-4.2-1.04-3.12-1.08-4.08-.31-4.25-.52-.83-.99-.93-.5-1.88-1.02-1.05-.57 0-1.5-.33-1.94-1.5-1.95-7.1-.7-7.94-2.75-.82-2.01-2.42-3.93-1.73-5.93.94-2.75-.42-3.38-3.17-2.82.5-2.6-.19-3.66-2.6-4.38-1.9-.57-4.46-2.7-5.53-4.36-1.63-2.54-1.66-5.72-3.61-8.18-.85-1.07-3.58-4.83-2.88-6.26" class="land zw" data-abre="ZW" data-code="ZWE" data-country="Zimbabwe"/>
    <path id="bj" stroke-miterlimit="3.97" stroke-width="1.25" d="M1276.97 666.86c.34-.78.42-1.97.97-2.57.51-.56.68-.47 1.16-.96.98-1.02 2.56-3.9 3.87-2.54.41.42 4.49-.6 5.28-1.98.5-.89 1.19-2.08 1.17-3.14-.01-.65-.83-2.13.21-2.35.65-.14 1.57.04 1.85-.38 1.04-1.53 2.36.15 3.13 1.02.55.62.88 1.14 1.42 1.78.64.74 1.51 1.49 2.15 2.37.35.5-.43 1.72-.54 2.21-.26 1.13.8 2.06 1.35 2.9.65.99.13 2.01.55 2.92.5 1.1 1.14 1.92.44 3.1-.37.62-1.19.04-1.44.75-.37 1.09 1.15 1.86-.18 3.35-.6.67-1.43.86-1.87 1.64-.4.72-.55 1.45-1.14 2.2-1.15 1.41.6 3.37-1.84 3.97-.82.2-1.32-.17-1.47.78-.13.89-.61 1.73-.56 2.62.11 2.19.08 4.37-.08 6.54-.07.95.9 2.86.74 4.22-.14 1.2-.17 2.24-.34 3.28-.27 1.55.31 2.18.2 3-.13.92-.71 2.29-.6 2.92-1 .02-2.72.24-3.7.44-1.53.3-3.06.58-4.6.79.36-.33.79-.5 1.29-.5-.07-.78-.6-1.61-.99-2.27-.6-1.02-.75-2.73-.91-3.87.15-.02.97-.26.86-2.35-.2-3.82-.03-7.7-.04-11.55-.01-2.18-.1-3.83-1.32-5.68-1.15-1.75-.78-3.8-.84-5.75-.05-1.53-2.35-2.26-3.48-3.32-1.06-.99-.78-2.35-.7-3.59" class="land bj" data-abre="BJ" data-code="BEN" data-country="Benin"/>
    <path id="path6816" fill="#f9db8e" stroke="#fff" stroke-miterlimit="3.97" stroke-width=".3" d="M1573.62 622.3c.05.56.63 2.26-.37 1.43.43 1.28 2.64 1.16 3.68 1.08-.52-1.1-1.96-.03-2.33-1.17-.15-.44-.16-1.85-.98-1.35"/>
    <path id="path6830" fill="#f9db8e" stroke="#fff" stroke-miterlimit="3.97" stroke-width="1.25" d="M1546.98 628.49c1.2-1.09 1.13-2.78 1.57-4.22.47-1.55 1.12-3.06 1.68-4.6.51-1.4-.94-7.23 1.3-7.54.46-.06 2.13.27 2.4-.17.73-1.22.17-2.15 1.6-2.6 1.17-.38 2.5-1.29 3.72-1.76 1.78-.71 1.85-2.55 3.13-3.74a58.03 58.03 0 0 1 4.97 13.65c.27 1.16.25 2.3.78 3.4.57 1.2 1.12 2.13 1.35 3.44.16.88 1.28.96 1.52 1.9.23.87.4 2.36 1.18 2.96.96-.68-.61-3.27.39-3.43.98-.17 1.56 1.07 1.63 1.8.07.85.68 2.31 1.5 2.69 1.16.53 1.9-1.04 3.08.28.98 1.1 1.1 1.9 2.67 2.12 1.83.25 2.52 1.65 3.5 3.1.93 1.4 1.75 2.81 3.2 3.73.7.44 1.3.97 1.89 1.54.29.29 1.7 2.22 1 .48.96.62.96 1.98 1.26 2.95.27.84 1.2.6 1.75 1.18.52.55 2.61 4.44 3.4 2.5.78.73 1.17 1.07.72 1.61-1.15.54-2.07 1.29-2.1 1.93-.06 2.22-1.81-.96-3.79.6.24-.56-.33-2.33-2.49-3.8-1.9-2.86-3.11-4.85-4.27-5.15-2.06-.56-2.73-3.1-3.96-4.8-1.34-1.84-3.33-1.93-5.03-3.24-1.6-1.23-2.54-.2-4.01-.65-1.16-.34-3.16-1.43-4.3.03-.03-.9-1.83-2.68-1.44-2.06.19.3-1.28 1.9-2.36 1.97-.7.04-2.2.25-2.94-.85-1.34-2.02-1.78-.37-3.35-2.95a55.2 55.2 0 0 1-2.37 6.77c-.48-.69-1.74-3.25-2.92-2.62-.73.4-.64 1.14-1.68 1.06-2.85-.22-2.8-.34-3.55 1.45a50.53 50.53 0 0 1-.68-8.78" class="land er" data-abre="ER" data-code="ERI" data-country="Eritrea"/>
    <path id="sz" stroke-miterlimit="3.97" stroke-width="1.25" d="M1500.97 990.66h.18c.96.94.85.77 1.63 1.74.66.84.74 1.22 1.45 1.92.88.87 2.8 2.08 4.33.85.67-.54.35-.57.77-1.38l.9-1.76h1.28l-.03-.5c-1.55-6.18.36-2-1.1-6.01-.8-.86-1.83-1.81-2.56-2.14l-2.4-.1c-.8 1.03-1.44 1.15-2.15 2.24-.41.62-.57 1.1-.77 1.53-.2.43-.96 3.2-1.53 3.61z" class="land sz" data-abre="SZ" data-code="SWZ" data-country="eSwatini"/>
    <path id="gm" stroke-miterlimit="3.97" stroke-width="1.25" d="M1143.63 643.9c1.41-1.12 1.21-1.05 1.92.5.54 1.2 2.21-.4 3.05.21-1.8-.92 3.7-1.46 4.03-1.65a10 10 0 0 0-4.44.55c-1.14.5-1.79.82-2.5-.49-.64-1.17.64-1.19 1.45-1.13 2.14.16 4.3.06 6.45.06.55 0 .32-1.73 1.59-1.37 1.02.3 2.01-.96 3.06-.4.53.27.66.96 1.18 1.27.5.3.98-.25 1.51 0 .56.27.39 1.12 1 1.38.67.28 1.5-.25 2.11-.43.73-.22 2.48-.07 2.37 1.05-.1 1.03-1.76 1.4-2.57 1.51-3.41.5-7.03-3.44-7.52-2.5-.58 1.09-.72 1.45-2.84 1.42-.75-.01-2.81.44-2.36 1.58.1.22-6.68-.54-6.96 1.06a4.3 4.3 0 0 1-.53-2.63" class="land gm" data-abre="GM" data-code="GMB" data-country="Gambia"/>
    <g id="cv-" fill="#f9db8e" stroke="#fff" stroke-miterlimit="3.97" stroke-width=".3" class="land coast cv" transform="translate(-29.9 -45.07)">
      <path id="path5762" d="M1110.6 658.3c.73.06 2.4-1.03 2.05-1.92-.58-1.47-3.22.45-2.05 1.92" data-abre="CP" data-code="CPV" data-country="Cape Verde"/>
      <path id="path5764" d="M1112.69 659.45c2.1-.18-.8-1.91 0 0"/>
      <path id="path5766" d="M1116.5 676.51c.56-.2 1.12-1.42.46-1.82-1.14-.7-1.55 1.2-.45 1.82"/>
      <path id="path5768" d="M1117.66 662.04c.2-1.65 1.72-.03 2.23-.94-.86-.39-1.99-.92-2.95-.57.29.48.53.98.72 1.51"/>
      <path id="path5770" d="M1123.13 675.72c1.15-1.23-.76-2.6-1.3-3.6-.57 1.47-.87 3.54 1.3 3.6"/>
      <path id="path5772" d="M1125.87 673.85c2.08-2.13-2.04-1.3 0 0"/>
      <path id="path5774" d="M1128.96 666.36c2.04-.81.27-1.87-.72-2.23.04.9-.83 2.25.72 2.23"/>
      <path id="path5776" d="M1128.24 661.1c.47-.69.32-1.47.15-2.23-.8.65-.16 1.44-.15 2.23"/>
    </g>
    <g id="km-" fill="#f9db8e" stroke="#fff" stroke-miterlimit="3.97" stroke-width=".3" class="land coast km" transform="translate(-29.9 -45.07)">
      <path id="path5750" d="M1630.88 907.92c.44-.4.17-1.17-.01-1.62-.45-1.12-.17-2.17-.5-3.28-1.38-.04-.78 1.78-1.09 2.57-.48 1.24 1 1.57 1.6 2.33" data-abre="CO" data-code="COM" data-country="Comoros"/>
      <path id="path5752" d="M1633.76 911.81c-.24-.7-.88-1.24-1.66-1.09 0 1 .95.94 1.66 1.1" data-abre="CO" data-code="COM" data-country="Comoros"/>
      <path id="path5754" d="M1638.8 911.73c.85-2.2-.84-1.37-2.16-1.73.74.55 1.55 1.02 2.16 1.73" data-abre="CO" data-code="COM" data-country="Comoros"/>
    </g>
    <path id="mu-" fill="#f9db8e" stroke="#fff" stroke-miterlimit="3.97" stroke-width=".3" d="M1704.15 932.62c-.53.55-3.04 4.26-1.3 4.47 2.79.34 3.14-4.87 1.3-4.47" class="land coast mu"/>
    <g id="st-" fill="#f9db8e" stroke="#fff" stroke-miterlimit="3.97" stroke-width=".3" class="land coast st" transform="translate(-29.9 -45.07)">
      <path id="path2898" d="M1350.22 804.45c.68-.37 1.4-.95 1.64-1.72.12-.4.06-1.73-.7-1.52-1.72.48-1.14 2-.94 3.24" data-abre="ST" data-code="STP" data-country="Sao Tome and principe"/>
      <path id="path5384" d="M1356.9 791.42c.32-.48.35-.99.09-1.5-.6.41-.63 1.02-.08 1.5" data-abre="ST" data-code="STP" data-country="Sao Tome and principe"/>
    </g>
    <path id="sc-" fill="#f9db8e" stroke="#fff" stroke-miterlimit="3.97" stroke-width=".3" d="M1694.5 801c.08-.7-.2-1.57-1.08-1.37.53.28.95.77 1.08 1.37" class="land coast sc"/>
    <path id="pt-30-" fill="#f9db8e" stroke="#fff" stroke-miterlimit="3.97" stroke-width=".3" d="M1150.97 477.14a3.52 3.52 0 0 1-1.83-1.04c-.4-.4.36-1.03.79-.58.56.6 1.36-.35 2 .37.7.8-.14 1.45-.96 1.25" class="land coast pt-30"/>
    <g id="es-cn-" fill="#f9db8e" stroke="#fff" stroke-miterlimit="3.97" stroke-width=".3" class="land coast es-cn" transform="translate(-29.9 -45.07)">
      <path id="path5984" d="M1170.08 565.49c-1.08-.72-.22-1.85.86-1.51-.2.55-.5 1.05-.86 1.5"/>
      <path id="path5986" d="M1172.09 557.78l-.65.44c-.1-.74-1.45-2.75-.07-3.03 1.54-.3 1.26 1.82.72 2.6"/>
      <path id="path5988" d="M1175.83 562.32c-.73-.45-.77-1.8.36-1.58 1.18.23.45 1.47-.36 1.58"/>
      <path id="path5990" d="M1179.94 562.54c-.6-1.02-.91-2.16-1.51-3.17 2.17-.51 3.82-1.19 5.9-2.02-.75 1.6-2.66 4.54-4.4 5.19"/>
      <path id="path5992" d="M1187.86 564.7c-1.78-.26-2.08-3.15-.25-3.56 2.82-.62 1.96 2.76.25 3.56"/>
      <path id="path5994" d="M1197.29 561.96l-.65-.43c2.13-.7 2.4-3.97 3.94-5.44.98-.93.46 2.7.32 3.07-.66 1.68-2.46 1.65-3.61 2.8"/>
      <path id="path5996" d="M1201.76 555.12l-.72-.29c.3-.65 2.62-3.68 3.16-2.19.45 1.25-1.81 1.83-2.44 2.48"/>
    </g>
    <path id="yt-" fill="#f9db8e" stroke="#fff" stroke-miterlimit="3.97" stroke-width=".3" d="M1613.43 871.99c.47-.64 1.08-2.02 0-2.45-.28.56-.41 1.92 0 2.45" class="land coast yt"/>
    <path id="re-" fill="#f9db8e" stroke="#fff" stroke-miterlimit="3.97" stroke-width=".3" d="M1689.46 941.26c-.11-1.99-3.99-.81-3.55 1.09.67 2.86 6.03 3.1 3.55-1.1" class="land coast re"/>
    <path id="sh-" fill="#f9db8e" stroke="#fff" stroke-miterlimit="3.97" stroke-width=".3" d="M1220.33 908.36c.31-.49.34-1 .08-1.51-.6.41-.63 1.03-.08 1.5" class="land coast sh"/>
    <path id="path6938-1" fill="#f9db8e" stroke="#fff" stroke-width="1.25" d="M1532.99 665.86c.86-1.09 1.86 1.32 1.83 2.53.6-.66 2.53-3.2 2.24-4.25a5.6 5.6 0 0 1-.16-2.87c.46-1.7 0-4.07 1.54-5.04 1.46-.91 2.1-4.15 3-5.59.93-1.46 2.12-.42 3.55-.62.95-.13.53-3.3.54-3.97.05-1.89 1.42-3.33 1.73-5.14.39-2.2.62-4.72.37-6.93-.2-1.76-.99-4.23-.28-5.94.91-2.2 1.16-4.47 2.1-6.67.36-.87.8-1.86 1-2.8.22-1-.55-1.7-.37-2.7.19-1 .74-2.77 1.67-3.32.68-.4 2.6-.06 2.86-.98.5-1.77.29-1.92 2.26-2.66 1.08-.4 3.15-1.42 3.85-2.31.5-.65 1.65-2.39 1.54-3.24-.16-1.35-2.39-.93-2.45-2.16-.94.83-3.5-3.55-4.91-3.79-2.43-.4-3.17-5.08-3.27-7.11-.15-2.9-1.02-5.53-.64-8.38a7.4 7.4 0 0 0-.73-3.78c-.7-1.58.66-2.37 1-.81-.09-2.05-2.43-3.32-3-5.22-.68-2.3.3-3.2-1.82-4.69-1.6-1.11-2.6-3.18-4.27-4.05-1.87-.98-3.4-1.75-3.9-3.96-.68.68-2.48 3.35-3.55 2.79-1.42-.74-1.88 1.12-2.19 1.98-.58 1.65-1.1 2.57-2.9 2.88-1.8.3-2.18.73-2.55 2.52-.81 3.92-4.69.92-6.55-.09-1.61-.87-4.42-.25-6.18-.18-2.3.1-4.2.21-6.47-.18.18-.6-.29-3.4-1.17-1.66-.93 1.85-2.6 1.66-4.45 1.66h-43.18c.19 5.75.27 11.55.36 17.3h-7.79c.6 12.37.51 24.72.51 37.1-1.24-.38-2.03-.82-3.27-.18-1.02.54-1.96-.06-3 .45-2.42 1.2.15 3.03-1.36 4.96-1.22 1.54-1.43 3.2-3.18 4.14-1.11.58-.05 3.31.63 3.96-2.52 2.01-4.08 2.64-2.27 6.04.69 1.29-.22 1.86-1.27 2.6-1.13.8-1.32 1.85-1.82 3.07.98 2.64 2.8.13 4.45 1.08.98.57-.44 1.49 0 2.25.55.94.08 3.28-.22 4.35.26-.13 1.23-1.36 1.5-1.46.78 1.25-.65 2.69 0 3.96.63 1.27 2.26 1.42 2.81 2.34.81 1.35-.87 2.56-.27 3.87.62 1.36 1.68 2.39 2.73 3.43 1.86 1.85 2.88 3.2 2.9 5.86l-.62 2.98 5.97-2.45 5.71-9.81 5.68-.77 3.35 6.9 1.8 1.02 3.36-1.02 6.2-.26 2.05 1.54 4.13.5 1.8-3.06h2.85l.51-2.81 3.36-1.79 6.19 4.35 2.83-.26 5.94-7.41 3.1-3.32-2.33-6.9 7.74-2.05v11.25l6.2 4.85v4.86l4.56 3.98c1.82-2.64.95-7.27 2.09-8.7z" data-abre="SD" data-code="SDN" data-country="Sudan"/>
    <path id="path6938" fill="#f9db8e" stroke="#fff" stroke-width="1.25" d="M1531.03 674.33c-.58 1.8-.6 3.68-.45 5.55.17 2.29 1.2 6.53-2.3 6.9-1.06.12-2.25-.31-3.38-.27-1.73.08-1.04.86-1.28 2.28-.2 1.15-2.36 2.17-.46 3.27 1.24.72 2.87-.1 4.14.63 1.3.75 2.19 1.77 2.82 3.2a8.43 8.43 0 0 0 2.65 3.27c1.04.79 1.46 1.87 2.57 2.54 1.3.78.94 2.63 1.55 3.82.73 1.41.82 3.03 1.56 4.46.28.53.64 1.32 1.19 1.63.66.37.37 1.2.92 1.73.85-1.09 1.56-.84 2.56-.73 1.13.13.8.97 1.1 1.73.34.87-.28 1.94-.28 2.82 0 1.11.64 1.74 1.28 2.55-3.56 0-7.97-.63-11.44.18-2.2.51-4.05 4.02-5.5 5.73-.26.31-1.3 1.77-1.83 1.64-.74-.2-1.7.15-2.38-.28-.6-.39-.86-.7-1.64-.54-1.23.23-6.36.95-5.86 2.9-1.35-.48-1.54-.96-2.3-2-.56-.77-1.7.2-2.28.46-1 .45-1.6-.71-2.47-.9-1.43-.33-2.85 1.53-3.3 2.63-.16-1.28-1.27-1.33-2.29-1.1 1.13-2.45-2.67-3.16-3.94-4.54a24.9 24.9 0 0 1-1.55-1.9c-.54-.73-.44-1.54-1.2-2.19-2.29-1.98-2.1 2.17-4.02 2-1.91-.17-2.25-2.28-4.03-.55-1.24 1.2-2.02 1.7-3.57.73a4.25 4.25 0 0 1-1.28-1.27c-.42-.83-1.46-.48-1.93-1.64a4.25 4.25 0 0 0-1.92-2.36c-.71-.42-1.1-1.62-1.65-2.28-.74-.9-.36-2.04-.45-3.09-.14-1.6-1.94-1.94-3.03-2.73-1.24-.9-2.84-1.16-2.84-2.72 0-.67-.85-.98-1.19-1.46-.6-.86.5-1.54.18-2.36-.28-.73-1.45-1-1.92-1.64-.64-.88-.32-1.4-1.37-2-2.04-1.17-4-2.05-5.59-3.82-.55-.62.46-1.34.46-2 0-1.02-.66-1.21-1.46-1.55-.9-.37-.86-1.21-1.47-1.82-.57-.56-1.43-.7-2.2-.81-1.11-.18-3.57-.08-3.57-1.73 0-.47.73-1.71.37-2.1-.99-1.05-4.08-.66-5.4-.9.27-.72.76-1.47.55-2.28-.27.1-.56.27-.83.37-.23-1.2.4-1.44 1.01-2.28l-.1-1.83 5.57-2.8 5.75-9.91 5.72-.78 3.38 6.97 1.82 1.03 3.37-1.03 6.24-.26 2.08 1.55 4.15.51 1.82-3.1h2.86l.52-2.83 3.38-1.8 6.23 4.38 2.86-.26 5.98-7.48 3.11-3.36-2.33-6.96 7.79-2.07v11.36l6.24 4.9v4.9l1.81 1.03z" data-abre="SS" data-code="SSD" data-country="South Sudan"/>
  </g>
</svg>
